<svg id="Layer_1" data-name="Layer 1" xmlns="http://www.w3.org/2000/svg" xmlns:xlink="http://www.w3.org/1999/xlink" viewBox="0 0 1608 1054"><defs><style>.cls-1{fill:#fff;}.cls-2{fill:#f9d4c9;}.cls-3{mask:url(#mask);}.cls-34,.cls-37,.cls-4{fill:none;}.cls-5{fill:#fe8769;}.cls-6{fill:#f4e7e4;}.cls-7{fill:#dbb491;}.cls-8{fill:#2d221b;}.cls-9{fill:#896146;}.cls-10{fill:#f4bf4f;}.cls-11{fill:#7c5133;}.cls-12{fill:#022028;}.cls-13{fill:#bc9375;}.cls-14{fill:#002938;}.cls-15{fill:#cea17c;}.cls-16{fill:#0a6f7f;}.cls-17{fill:#06748d;}.cls-18{fill:#f7d4c9;}.cls-19{fill:#e8ada3;}.cls-20{fill:#c5dce2;}.cls-21{fill:#e0a39b;}.cls-22{fill:#d3e8ef;}.cls-23{fill:#7c5942;}.cls-24{fill:#825b40;}.cls-25{fill:#0b2738;}.cls-26{fill:#efccaf;}.cls-27{fill:#c45a45;}.cls-28{fill:#d86644;}.cls-29{fill:#fcd183;}.cls-30{fill:#efb245;}.cls-31{fill:#2a634b;}.cls-32{fill:#859c79;}.cls-33{fill:#066a7a;}.cls-34,.cls-37{stroke:#f4bf4f;stroke-width:2px;}.cls-34{stroke-linecap:round;stroke-linejoin:round;}.cls-35{fill:#664026;}.cls-36{fill:#cea684;}.cls-37{stroke-miterlimit:10;}.cls-38{fill:#eab35c;}</style><mask id="mask" x="209.14" y="901" width="390.75" height="105.23" maskUnits="userSpaceOnUse"><polygon class="cls-1" points="571.54 1005.69 209.24 1005.69 237.3 904.57 599.6 904.57 571.54 1005.69"/></mask></defs><g id="carpet"><polygon class="cls-2" points="557 1006.23 232.32 1006.23 253.51 903.97 578.19 903.97 557 1006.23"/><g class="cls-3"><path class="cls-4" d="M535.74,968.33c-17,0-25.7-2.77-34.07-5.45-8.15-2.61-16.57-5.3-33-5.34s-24.87,2.73-33,5.34c-8.37,2.68-17,5.45-34.07,5.45s-25.7-2.77-34.08-5.45c-8.18-2.62-16.64-5.33-33.25-5.34s-25.07,2.72-33.25,5.34c-8.38,2.68-17,5.45-34.08,5.45s-25.7-2.77-34.07-5.45c-3.44-1.1-6.93-2.22-11-3.14l-2.69,9.79a110.58,110.58,0,0,1,14.22,3.81c8.2,2.62,16.68,5.34,33.35,5.34S291.83,976,300,973.34s17-5.43,33.88-5.45h.19c16.91,0,25.54,2.78,33.88,5.45s16.68,5.34,33.35,5.34,25.15-2.72,33.35-5.34,16.8-5.37,33.39-5.45h.68c16.59.08,25.14,2.81,33.4,5.45s16.67,5.34,33.34,5.34,25.15-2.72,33.35-5.34a117.51,117.51,0,0,1,12.37-3.44l2.93-10.83a107.23,107.23,0,0,0-14.33,3.81C561.44,965.56,552.78,968.33,535.74,968.33Z"/><path class="cls-4" d="M544.67,1006.2l26.68,0,1.71-6.27c-1.19.36-2.34.73-3.49,1.1A94.67,94.67,0,0,1,544.67,1006.2Z"/><path class="cls-4" d="M535.49,993.78c-17,0-25.69-2.77-34.07-5.45-8.14-2.61-16.56-5.3-33-5.33s-24.86,2.72-33,5.33c-8.37,2.68-17,5.45-34.07,5.45s-25.7-2.77-34.07-5.45C359.07,985.71,350.61,983,334,983s-25.06,2.72-33.25,5.34c-8.37,2.68-17,5.45-34.07,5.45S241,991,232.61,988.33A99.07,99.07,0,0,0,215.13,984l-2.74,10a97.12,97.12,0,0,1,20.94,4.79c8.2,2.63,16.68,5.34,33.35,5.34s25.15-2.71,33.35-5.34,17-5.43,33.88-5.45h.19c16.91,0,25.54,2.78,33.88,5.45s16.68,5.34,33.35,5.34,25.15-2.71,33.35-5.34,16.8-5.37,33.39-5.45h.68c16.59.08,25.14,2.81,33.4,5.45s16.67,5.34,33.34,5.34,25.15-2.71,33.35-5.34c1.62-.52,3.25-1,4.95-1.54l3-11.11c-2.55.69-4.9,1.45-7.23,2.19C561.19,991,552.54,993.78,535.49,993.78Z"/><path class="cls-4" d="M535.49,981.05c-17,0-25.69-2.77-34.07-5.45-8.14-2.6-16.56-5.29-33-5.33s-24.86,2.73-33,5.33c-8.37,2.68-17,5.45-34.07,5.45s-25.7-2.77-34.07-5.45c-8.19-2.61-16.65-5.32-33.26-5.33s-25.06,2.72-33.25,5.33c-8.37,2.68-17,5.45-34.07,5.45s-25.7-2.77-34.07-5.45a109.31,109.31,0,0,0-14.13-3.77l-2.71,9.87a101.37,101.37,0,0,1,17.56,4.37c8.2,2.62,16.68,5.33,33.35,5.33s25.15-2.71,33.35-5.33,17-5.43,33.88-5.45h.19c16.91,0,25.54,2.78,33.88,5.45s16.68,5.33,33.35,5.33,25.15-2.71,33.35-5.33,16.8-5.38,33.39-5.45h.68c16.59.07,25.14,2.8,33.4,5.45s16.67,5.33,33.34,5.33,25.15-2.71,33.35-5.33c2.77-.89,5.56-1.78,8.68-2.58l3-11c-4.07.92-7.52,2-10.93,3.11C561.19,978.28,552.54,981.05,535.49,981.05Z"/><path class="cls-4" d="M535.49,930.15c-17,0-25.69-2.77-34.07-5.45-8.14-2.61-16.56-5.3-33-5.34s-24.86,2.73-33,5.34c-8.37,2.68-17,5.45-34.07,5.45s-25.7-2.77-34.07-5.45c-8.19-2.62-16.65-5.33-33.26-5.34s-25.06,2.72-33.25,5.34c-8.37,2.68-17,5.45-34.07,5.45s-25.7-2.77-34.07-5.45l-1.09-.35-2.59,9.43c1.5.45,3,.92,4.4,1.38,8.2,2.62,16.68,5.34,33.35,5.34s25.15-2.72,33.35-5.34,17-5.43,33.88-5.45h.19c16.91,0,25.54,2.78,33.88,5.45s16.68,5.34,33.35,5.34,25.15-2.72,33.35-5.34,16.8-5.37,33.39-5.45h.68c16.59.08,25.14,2.81,33.4,5.45s16.67,5.34,33.34,5.34,25.15-2.72,33.35-5.34a95.32,95.32,0,0,1,23.15-5l2.86-10.55a92.35,92.35,0,0,0-25.28,5.1C561.19,927.38,552.54,930.15,535.49,930.15Z"/><path class="cls-4" d="M535.49,942.88c-17,0-25.69-2.78-34.07-5.45-8.14-2.61-16.56-5.3-33-5.34s-24.86,2.73-33,5.34c-8.37,2.67-17,5.45-34.07,5.45s-25.7-2.78-34.07-5.45c-8.19-2.62-16.65-5.33-33.26-5.34s-25.06,2.72-33.25,5.34c-8.37,2.67-17,5.45-34.07,5.45s-25.7-2.78-34.07-5.45c-1.42-.46-2.84-.91-4.31-1.35l-2.61,9.5c2.71.73,5.19,1.52,7.64,2.31,8.2,2.62,16.68,5.33,33.35,5.33s25.15-2.71,33.35-5.33,17-5.43,33.88-5.45h.19c16.91,0,25.54,2.78,33.88,5.45s16.68,5.33,33.35,5.33,25.15-2.71,33.35-5.33,16.8-5.38,33.39-5.45h.68c16.59.07,25.14,2.8,33.4,5.45s16.67,5.33,33.34,5.33,25.15-2.71,33.35-5.33a98.63,98.63,0,0,1,19.59-4.64l2.89-10.65a93.4,93.4,0,0,0-21.75,4.83C561.19,940.1,552.54,942.88,535.49,942.88Z"/><path class="cls-4" d="M535.49,955.6c-17,0-25.69-2.77-34.07-5.45-8.14-2.6-16.56-5.3-33-5.33s-24.86,2.73-33,5.33c-8.37,2.68-17,5.45-34.07,5.45s-25.7-2.77-34.07-5.45c-8.19-2.62-16.65-5.32-33.26-5.34s-25.06,2.72-33.25,5.34c-8.37,2.68-17,5.45-34.07,5.45s-25.7-2.77-34.07-5.45c-2.43-.77-4.88-1.56-7.55-2.27l-2.63,9.56c4.15.94,7.67,2.06,11.14,3.17,8.2,2.63,16.68,5.34,33.35,5.34s25.15-2.71,33.35-5.34,17-5.43,33.89-5.45h.18c16.92,0,25.55,2.78,33.89,5.45S384.91,966,401.58,966s25.15-2.71,33.35-5.34,16.8-5.37,33.39-5.44H469c16.59.07,25.13,2.8,33.39,5.44S519.07,966,535.74,966s25.15-2.71,33.35-5.34a106.2,106.2,0,0,1,15.74-4.08l2.93-10.79a97,97,0,0,0-18.19,4.41C561.19,952.83,552.54,955.6,535.49,955.6Z"/><path class="cls-4" d="M535.74,917.42c-17,0-25.7-2.77-34.07-5.45-8.15-2.6-16.57-5.3-33-5.33s-24.87,2.73-33,5.33c-8.37,2.68-17,5.45-34.07,5.45s-25.7-2.77-34.08-5.45c-8.18-2.62-16.64-5.32-33.25-5.33S309.18,909.35,301,912c-8.38,2.68-17,5.45-34.08,5.45-15.75,0-24.34-2.37-32.17-4.84l-2.6,9.48,1.18.37c8.2,2.63,16.68,5.34,33.35,5.34s25.15-2.71,33.35-5.34S317,917,333.91,917h.19c16.91,0,25.54,2.78,33.88,5.45s16.68,5.34,33.35,5.34,25.15-2.71,33.35-5.34,16.8-5.37,33.39-5.44h.68c16.59.07,25.14,2.8,33.4,5.44s16.67,5.34,33.34,5.34,25.15-2.71,33.35-5.34c7.07-2.26,14.33-4.58,26.66-5.25l2.84-10.46A92.67,92.67,0,0,0,569.81,912C561.44,914.65,552.78,917.42,535.74,917.42Z"/><path class="cls-4" d="M300.27,909.71a95,95,0,0,1,24.29-5.11l-87.93,1.16-1.25,4.52c7.68,2.43,16.09,4.76,31.54,4.76C283.59,915,292.07,912.33,300.27,909.71Z"/><path class="cls-4" d="M401.58,915c16.67,0,25.15-2.71,33.35-5.33s16.8-5.38,33.39-5.45H469c16.59.07,25.13,2.8,33.39,5.45S519.07,915,535.74,915s25.15-2.71,33.35-5.33c7.66-2.45,15.56-5,29.9-5.39l.9-3.32-37.74.49c-6.58,1.79-14.47,3.21-26.66,3.21a99.63,99.63,0,0,1-24.06-2.54l-92,1.2a110.21,110.21,0,0,1-18.13,1.34,115.91,115.91,0,0,1-15.17-.9l-45.69.6c13,.59,20.49,3,27.76,5.31C376.43,912.33,384.91,915,401.58,915Z"/><path class="cls-4" d="M334,995.72c-16.6,0-25.06,2.72-33.25,5.34a96.32,96.32,0,0,1-21.42,4.84L390,1006a95.83,95.83,0,0,1-22.7-5C359.07,998.44,350.61,995.73,334,995.72Z"/><path class="cls-4" d="M468.41,995.72c-16.44,0-24.86,2.73-33,5.34a95.42,95.42,0,0,1-23,5l52.94.06,3,0H469c1.12,0,2.21,0,3.26,0l53.77.06a94.47,94.47,0,0,1-24.61-5.12C493.28,998.45,484.86,995.76,468.41,995.72Z"/><path class="cls-4" d="M548.36,901.67l-22.55.3c2.9.22,6.1.35,9.68.35A116.63,116.63,0,0,0,548.36,901.67Z"/><path class="cls-4" d="M211.75,996.32l-2.61,9.5,44.62,0a96.61,96.61,0,0,1-21.15-4.81A94.26,94.26,0,0,0,211.75,996.32Z"/><path class="cls-5" d="M419.46,903.36l-33.3.44a115.91,115.91,0,0,0,15.17.9A110.21,110.21,0,0,0,419.46,903.36Z"/><path class="cls-5" d="M562.15,901.49l-13.79.18a116.63,116.63,0,0,1-12.87.65c-3.58,0-6.78-.13-9.68-.35l-14.38.19a99.63,99.63,0,0,0,24.06,2.54C547.68,904.7,555.57,903.28,562.15,901.49Z"/><path class="cls-5" d="M301,912c8.18-2.62,16.64-5.32,33.25-5.33h-.09v-2.16l-9.6.12a95,95,0,0,0-24.29,5.11c-8.2,2.62-16.68,5.33-33.35,5.33-15.45,0-23.86-2.33-31.54-4.76l-.63,2.3c7.83,2.47,16.42,4.84,32.17,4.84C284,917.42,292.62,914.65,301,912Z"/><path class="cls-5" d="M468.66,904.26h0Z"/><path class="cls-5" d="M334.25,906.64c16.61,0,25.07,2.71,33.25,5.33,8.38,2.68,17,5.45,34.08,5.45s25.7-2.77,34.07-5.45c8.14-2.6,16.57-5.3,33-5.33h-.34v-2.38c-16.59.07-25.13,2.8-33.39,5.45S418.25,915,401.58,915s-25.15-2.71-33.35-5.33c-7.27-2.33-14.76-4.72-27.76-5.31l-6.31.08v2.16Z"/><path class="cls-5" d="M569.09,909.71c-8.2,2.62-16.68,5.33-33.35,5.33s-25.15-2.71-33.35-5.33-16.8-5.38-33.39-5.45h-.68v2.38h.34c16.44,0,24.86,2.73,33,5.33,8.37,2.68,17,5.45,34.07,5.45s25.7-2.77,34.07-5.45a92.67,92.67,0,0,1,28.53-5.25l.65-2.4C584.65,904.73,576.75,907.26,569.09,909.71Z"/><path class="cls-5" d="M266.68,930.15c17,0,25.7-2.77,34.07-5.45,8.19-2.62,16.65-5.33,33.25-5.34h-.09V917c-16.91,0-25.54,2.78-33.88,5.45s-16.68,5.34-33.35,5.34-25.15-2.71-33.35-5.34l-1.18-.37-.63,2.29,1.09.35C241,927.38,249.64,930.15,266.68,930.15Z"/><path class="cls-5" d="M334.1,917h0Z"/><path class="cls-5" d="M468.75,917h0Z"/><path class="cls-5" d="M334,919.36c16.61,0,25.07,2.72,33.26,5.34,8.37,2.68,17,5.45,34.07,5.45s25.7-2.77,34.07-5.45c8.15-2.61,16.57-5.3,33-5.34h-.34V917c-16.59.07-25.13,2.8-33.39,5.44s-16.68,5.34-33.35,5.34-25.15-2.71-33.35-5.34S351,917,334.1,917h-.19v2.38Z"/><path class="cls-5" d="M535.49,927.77c-16.67,0-25.14-2.71-33.34-5.34s-16.81-5.37-33.4-5.44h-.68v2.37h.34c16.45,0,24.87,2.73,33,5.34,8.38,2.68,17,5.45,34.07,5.45s25.7-2.77,34.08-5.45a92.35,92.35,0,0,1,25.28-5.1l.65-2.42c-12.33.67-19.59,3-26.66,5.25C560.64,925.06,552.16,927.77,535.49,927.77Z"/><path class="cls-5" d="M334.1,929.71h0Z"/><path class="cls-5" d="M266.68,942.88c17,0,25.7-2.78,34.07-5.45,8.19-2.62,16.65-5.33,33.25-5.34h-.09v-2.38c-16.91,0-25.54,2.78-33.88,5.45s-16.68,5.34-33.35,5.34-25.15-2.72-33.35-5.34c-1.44-.46-2.9-.93-4.4-1.38l-.63,2.3c1.47.44,2.89.89,4.31,1.35C241,940.1,249.64,942.88,266.68,942.88Z"/><path class="cls-5" d="M468.75,929.71h0Z"/><path class="cls-5" d="M334,932.09c16.61,0,25.07,2.72,33.26,5.34,8.37,2.67,17,5.45,34.07,5.45s25.7-2.78,34.07-5.45c8.15-2.61,16.57-5.3,33-5.34h-.34v-2.38c-16.59.08-25.13,2.81-33.39,5.45S418,940.5,401.33,940.5s-25.15-2.72-33.35-5.34-17-5.43-33.88-5.45h-.19v2.38Z"/><path class="cls-5" d="M535.49,940.5c-16.67,0-25.14-2.72-33.34-5.34s-16.81-5.37-33.4-5.45h-.68v2.38h.34c16.45,0,24.87,2.73,33,5.34,8.38,2.67,17,5.45,34.07,5.45s25.7-2.78,34.08-5.45a93.4,93.4,0,0,1,21.75-4.83l.67-2.45a95.32,95.32,0,0,0-23.15,5C560.64,937.78,552.16,940.5,535.49,940.5Z"/><path class="cls-5" d="M266.68,955.6c17,0,25.7-2.77,34.07-5.45,8.19-2.62,16.65-5.32,33.25-5.34h-.09v-2.37c-16.91,0-25.54,2.78-33.88,5.45s-16.68,5.33-33.35,5.33-25.15-2.71-33.35-5.33c-2.45-.79-4.93-1.58-7.64-2.31l-.63,2.3c2.67.71,5.12,1.5,7.55,2.27C241,952.83,249.64,955.6,266.68,955.6Z"/><path class="cls-5" d="M334.1,942.44h0Z"/><path class="cls-5" d="M468.75,942.44h0Z"/><path class="cls-5" d="M334,944.81c16.61,0,25.07,2.72,33.26,5.34,8.37,2.68,17,5.45,34.07,5.45s25.7-2.77,34.07-5.45c8.15-2.6,16.57-5.3,33-5.33h-.34v-2.37c-16.59.07-25.13,2.8-33.39,5.45s-16.68,5.33-33.35,5.33-25.15-2.71-33.35-5.33-17-5.43-33.88-5.45h-.19v2.37Z"/><path class="cls-5" d="M535.49,953.22c-16.67,0-25.14-2.71-33.34-5.33s-16.81-5.38-33.4-5.45h-.68v2.37h.34c16.45,0,24.87,2.73,33,5.33,8.38,2.68,17,5.45,34.07,5.45s25.7-2.77,34.08-5.45a97,97,0,0,1,18.19-4.41l.67-2.49a98.63,98.63,0,0,0-19.59,4.64C560.64,950.51,552.16,953.22,535.49,953.22Z"/><path class="cls-5" d="M266.92,968.33c17,0,25.7-2.77,34.08-5.45,8.18-2.62,16.64-5.33,33.25-5.34h-.09v-2.38c-16.92,0-25.55,2.78-33.89,5.45S283.59,966,266.92,966s-25.15-2.71-33.35-5.34c-3.47-1.11-7-2.23-11.14-3.17l-.63,2.3c4.12.92,7.61,2,11,3.14C241.22,965.56,249.88,968.33,266.92,968.33Z"/><path class="cls-5" d="M334.34,955.16h0Z"/><path class="cls-5" d="M469,955.16h0Z"/><path class="cls-5" d="M334.25,957.54c16.61,0,25.07,2.72,33.25,5.34,8.38,2.68,17,5.45,34.08,5.45s25.7-2.77,34.07-5.45c8.14-2.61,16.57-5.3,33-5.34h-.34v-2.37c-16.59.07-25.13,2.8-33.39,5.44S418.25,966,401.58,966s-25.15-2.71-33.35-5.34-17-5.43-33.89-5.45h-.18v2.38Z"/><path class="cls-5" d="M535.74,966c-16.67,0-25.15-2.71-33.35-5.34s-16.8-5.37-33.39-5.44h-.68v2.37h.34c16.44,0,24.86,2.73,33,5.34,8.37,2.68,17,5.45,34.07,5.45s25.7-2.77,34.07-5.45a107.23,107.23,0,0,1,14.33-3.81l.69-2.54a106.2,106.2,0,0,0-15.74,4.08C560.89,963.24,552.41,966,535.74,966Z"/><path class="cls-5" d="M334.1,967.89h0Z"/><path class="cls-5" d="M266.68,981.05c17,0,25.7-2.77,34.07-5.45,8.19-2.61,16.65-5.32,33.25-5.33h-.09v-2.38c-16.91,0-25.54,2.78-33.88,5.45s-16.68,5.34-33.35,5.34-25.15-2.72-33.35-5.34a110.58,110.58,0,0,0-14.22-3.81l-.63,2.3a109.31,109.31,0,0,1,14.13,3.77C241,978.28,249.64,981.05,266.68,981.05Z"/><path class="cls-5" d="M468.75,967.89h0Z"/><path class="cls-5" d="M334,970.27c16.61,0,25.07,2.72,33.26,5.33,8.37,2.68,17,5.45,34.07,5.45s25.7-2.77,34.07-5.45c8.15-2.6,16.57-5.29,33-5.33h-.34v-2.38c-16.59.08-25.13,2.81-33.39,5.45s-16.68,5.34-33.35,5.34S376.18,976,368,973.34s-17-5.43-33.88-5.45h-.19v2.38Z"/><path class="cls-5" d="M535.49,978.68c-16.67,0-25.14-2.72-33.34-5.34s-16.81-5.37-33.4-5.45h-.68v2.38h.34c16.45,0,24.87,2.73,33,5.33,8.38,2.68,17,5.45,34.07,5.45s25.7-2.77,34.08-5.45c3.41-1.09,6.86-2.19,10.93-3.11l.71-2.59a117.51,117.51,0,0,0-12.37,3.44C560.64,976,552.16,978.68,535.49,978.68Z"/><path class="cls-5" d="M334.1,980.62h0Z"/><path class="cls-5" d="M266.68,993.78c17,0,25.7-2.77,34.07-5.45C308.94,985.71,317.4,983,334,983h-.09v-2.37c-16.91,0-25.54,2.78-33.88,5.45s-16.68,5.33-33.35,5.33-25.15-2.71-33.35-5.33a101.37,101.37,0,0,0-17.56-4.37l-.64,2.31a99.07,99.07,0,0,1,17.48,4.32C241,991,249.64,993.78,266.68,993.78Z"/><path class="cls-5" d="M468.75,980.62h0Z"/><path class="cls-5" d="M334,983c16.61,0,25.07,2.72,33.26,5.34,8.37,2.68,17,5.45,34.07,5.45S427,991,435.4,988.33c8.15-2.61,16.57-5.3,33-5.33h-.34v-2.37c-16.59.07-25.13,2.8-33.39,5.45S418,991.4,401.33,991.4s-25.15-2.71-33.35-5.33-17-5.43-33.88-5.45h-.19V983Z"/><path class="cls-5" d="M535.49,991.4c-16.67,0-25.14-2.71-33.34-5.33s-16.81-5.38-33.4-5.45h-.68V983h.34c16.45,0,24.87,2.72,33,5.33,8.38,2.68,17,5.45,34.07,5.45s25.7-2.77,34.08-5.45c2.33-.74,4.68-1.5,7.23-2.19l.72-2.65c-3.12.8-5.91,1.69-8.68,2.58C560.64,988.69,552.16,991.4,535.49,991.4Z"/><path class="cls-5" d="M334.1,993.34h0Z"/><path class="cls-5" d="M334,995.72h-.09v-2.38c-16.91,0-25.54,2.78-33.88,5.45s-16.68,5.34-33.35,5.34-25.15-2.71-33.35-5.34A97.12,97.12,0,0,0,212.39,994l-.64,2.32a94.26,94.26,0,0,1,20.86,4.74,96.61,96.61,0,0,0,21.15,4.81l25.57,0a96.32,96.32,0,0,0,21.42-4.84C308.94,998.44,317.4,995.73,334,995.72Z"/><path class="cls-5" d="M468.41,995.72h-.34v-2.38c-16.59.08-25.13,2.81-33.39,5.45s-16.68,5.34-33.35,5.34-25.15-2.71-33.35-5.34-17-5.43-33.88-5.45h-.19v2.38H334c16.61,0,25.07,2.72,33.26,5.34a95.83,95.83,0,0,0,22.7,5l22.45,0a95.42,95.42,0,0,0,23-5C443.55,998.45,452,995.76,468.41,995.72Z"/><path class="cls-5" d="M468.75,993.34h0Z"/><path class="cls-5" d="M535.49,1004.13c-16.67,0-25.14-2.71-33.34-5.34s-16.81-5.37-33.4-5.45h-.68v2.38h.34c16.45,0,24.87,2.73,33,5.34a94.47,94.47,0,0,0,24.61,5.12l18.64,0a94.67,94.67,0,0,0,24.9-5.14c1.15-.37,2.3-.74,3.49-1.1l.73-2.71c-1.7.5-3.33,1-4.95,1.54C560.64,1001.42,552.16,1004.13,535.49,1004.13Z"/><path class="cls-5" d="M465.35,1006.11h3v0Z"/><path class="cls-5" d="M469,1006.07h0Z"/><path class="cls-5" d="M468.66,1006.07h-.34v0h3.94c-1.05,0-2.14,0-3.26,0Z"/></g></g><g id="BG"><path class="cls-6" d="M800.41,533.16h0A119.49,119.49,0,0,1,919.91,652.65V834.91a0,0,0,0,1,0,0h-239a0,0,0,0,1,0,0V652.65A119.49,119.49,0,0,1,800.41,533.16Z"/><path class="cls-4" d="M869.84,763.67c-20,0-29.85,3.18-40.24,6.5s-20.93,6.7-41.87,6.7-31.59-3.41-41.88-6.7-20.3-6.49-40.54-6.51a124.51,124.51,0,0,0-24.39,2.1v11.46a130.61,130.61,0,0,1,24-2h.23c20.79,0,31.39,3.42,41.64,6.7,10.46,3.35,20.34,6.51,40.66,6.51s30.19-3.16,40.65-6.51c10.15-3.25,20.65-6.6,41-6.69H870c20.39.09,30.89,3.44,41,6.69,2.93.94,5.82,1.86,8.91,2.71V773.12c-3.5-.93-6.68-1.94-9.83-3C899.7,766.85,889.88,763.71,869.84,763.67Z"/><path class="cls-4" d="M869.54,671.42c-20,0-29.85,3.18-40.24,6.5s-20.93,6.7-41.87,6.7-31.59-3.4-41.88-6.7-20.3-6.49-40.54-6.5a125,125,0,0,0-24.09,2V685a131.5,131.5,0,0,1,24-2h.23c20.79,0,31.39,3.42,41.64,6.7,10.46,3.35,20.34,6.51,40.66,6.51s30.19-3.16,40.65-6.51c10.15-3.25,20.65-6.6,41-6.69H870c20.39.09,30.89,3.44,41,6.69,2.93.94,5.82,1.86,8.91,2.71V681c-3.62-1-6.89-2-10.13-3C899.4,674.6,889.58,671.46,869.54,671.42Z"/><path class="cls-4" d="M869.54,716.93c-20,0-29.85,3.18-40.24,6.51s-20.93,6.69-41.87,6.69-31.59-3.4-41.88-6.69-20.3-6.5-40.54-6.51a125.84,125.84,0,0,0-24.09,2v11.53a130.61,130.61,0,0,1,24-2h.23c20.79,0,31.39,3.41,41.64,6.69,10.46,3.35,20.34,6.51,40.66,6.51s30.19-3.16,40.65-6.51c10.15-3.24,20.65-6.6,41-6.69H870c20.39.09,30.89,3.45,41,6.69,2.93.94,5.82,1.87,8.91,2.71V726.47c-3.62-1-6.89-2-10.13-3C899.4,720.11,889.58,717,869.54,716.93Z"/><path class="cls-4" d="M705.31,826a123.85,123.85,0,0,0-24.39,2.09v6.84h72.85c-2.76-.78-5.35-1.61-7.92-2.43C735.42,829.14,725.55,826,705.31,826Z"/><path class="cls-4" d="M869.54,779.24c-20,0-29.85,3.19-40.24,6.51s-20.93,6.7-41.87,6.7-31.59-3.41-41.88-6.7-20.3-6.5-40.54-6.51a124.92,124.92,0,0,0-24.09,2V792.8a130.61,130.61,0,0,1,24-2h.23c20.79,0,31.39,3.42,41.64,6.7,10.46,3.34,20.34,6.5,40.66,6.5s30.19-3.16,40.65-6.5c10.15-3.25,20.65-6.61,41-6.7H870c20.39.09,30.89,3.45,41,6.7,2.93.94,5.82,1.86,8.91,2.7V788.78c-3.62-.95-6.89-2-10.13-3C899.4,782.43,889.58,779.29,869.54,779.24Z"/><path class="cls-4" d="M705.2,636.26h.23c20.79,0,31.39,3.42,41.64,6.7,10.46,3.34,20.34,6.5,40.66,6.5s30.2-3.16,40.65-6.5c10.16-3.25,20.66-6.61,41-6.7h.83c20.39.09,30.89,3.45,41,6.7,2.77.88,5.5,1.75,8.39,2.56q-.36-5.94-1.27-11.7c-3-.84-5.85-1.74-8.64-2.63-10.38-3.33-20.2-6.46-40.24-6.51s-29.85,3.18-40.24,6.51-20.93,6.7-41.87,6.7-31.59-3.41-41.88-6.7-20.3-6.5-40.54-6.51a132.9,132.9,0,0,0-21.15,1.51,120.48,120.48,0,0,0-2.06,11.94,131.89,131.89,0,0,1,23.4-1.87Z"/><path class="cls-4" d="M869.54,687c-20,0-29.85,3.18-40.24,6.5s-20.93,6.7-41.87,6.7-31.59-3.41-41.88-6.7S725.25,687,705,687a124.92,124.92,0,0,0-24.09,2v10.36a130,130,0,0,1,24.28-2h.23c20.79,0,31.39,3.42,41.64,6.7,10.46,3.34,20.34,6.51,40.66,6.51s30.2-3.17,40.65-6.51c10.16-3.25,20.66-6.61,41-6.7h.83c20.39.09,30.89,3.45,41,6.7,2.84.91,5.63,1.8,8.61,2.62V696.53c-3.62-.95-6.89-2-10.13-3C899.4,690.18,889.58,687,869.54,687Z"/><path class="cls-4" d="M869.54,794.82c-20,0-29.85,3.18-40.24,6.51S808.37,808,787.43,808s-31.59-3.4-41.88-6.69-20.3-6.5-40.54-6.51a124.92,124.92,0,0,0-24.09,2v11.52a130.61,130.61,0,0,1,24-2h.23c20.79,0,31.39,3.42,41.64,6.7,10.46,3.34,20.34,6.5,40.66,6.5s30.19-3.16,40.65-6.5c10.15-3.25,20.65-6.61,41-6.7H870c20.39.09,30.89,3.45,41,6.7,2.93.93,5.82,1.86,8.91,2.7V804.36c-3.62-1-6.89-2-10.13-3C899.4,798,889.58,794.87,869.54,794.82Z"/><path class="cls-4" d="M869.84,826c-20,0-29.85,3.18-40.24,6.5-2.56.82-5.15,1.65-7.91,2.43H918c-2.76-.78-5.35-1.61-7.92-2.43C899.7,829.16,889.88,826,869.84,826Z"/><path class="cls-4" d="M869.54,810.4c-20,0-29.85,3.18-40.24,6.51s-20.93,6.69-41.87,6.69-31.59-3.4-41.88-6.69-20.3-6.5-40.54-6.51a125.84,125.84,0,0,0-24.09,2V824a130.16,130.16,0,0,1,24.28-2h.23c20.79,0,31.39,3.41,41.64,6.69,8.66,2.77,16.92,5.41,31,6.24h19.26c14.11-.83,22.37-3.47,31-6.24,10.16-3.24,20.66-6.6,41-6.69h.83c20.39.09,30.89,3.45,41,6.69,2.84.91,5.63,1.81,8.61,2.63V819.94c-3.62-1-6.89-2-10.13-3C899.4,813.58,889.58,810.44,869.54,810.4Z"/><path class="cls-4" d="M869.84,701.35c-20,0-29.85,3.18-40.24,6.51s-20.93,6.7-41.87,6.7-31.59-3.41-41.88-6.7-20.3-6.5-40.54-6.51a124.51,124.51,0,0,0-24.39,2.1v11.46a130.61,130.61,0,0,1,24-2h.23c20.79,0,31.39,3.42,41.64,6.7,10.46,3.34,20.34,6.5,40.66,6.5s30.19-3.16,40.65-6.5c10.15-3.25,20.65-6.61,41-6.7H870c20.39.09,30.89,3.45,41,6.7,2.93.93,5.82,1.86,8.91,2.7V710.81c-3.5-.93-6.68-1.95-9.83-2.95C899.7,704.53,889.88,701.4,869.84,701.35Z"/><path class="cls-4" d="M787.43,556c20.32,0,30.19-3.16,40.65-6.5A123.37,123.37,0,0,1,850.27,544a119.39,119.39,0,0,0-19.17-6.89l-1.8.58c-10.29,3.29-20.93,6.7-41.87,6.7-13.37,0-22.54-1.39-30.1-3.25a117,117,0,0,0-14.86,7c1.46.45,2.88.9,4.3,1.36C757.23,552.83,767.11,556,787.43,556Z"/><path class="cls-4" d="M787.73,587.15c20.32,0,30.2-3.16,40.65-6.51,10.16-3.25,20.66-6.6,41-6.69h.83a133.92,133.92,0,0,1,21.47,1.64A120.48,120.48,0,0,0,879,562.65c-2.89-.17-6-.27-9.47-.28-20,0-29.85,3.18-40.24,6.5s-20.93,6.7-41.87,6.7-31.59-3.4-41.88-6.7c-7.19-2.3-14.12-4.51-24.36-5.67A120.63,120.63,0,0,0,710.44,574c17.55.52,27.24,3.62,36.63,6.62C757.53,584,767.41,587.15,787.73,587.15Z"/><path class="cls-4" d="M869.54,732.51c-20,0-29.85,3.18-40.24,6.5s-20.93,6.7-41.87,6.7-31.59-3.4-41.88-6.7-20.3-6.49-40.54-6.5a125,125,0,0,0-24.09,2v11.53a130.61,130.61,0,0,1,24-2h.23c20.79,0,31.39,3.41,41.64,6.69,10.46,3.35,20.34,6.51,40.66,6.51s30.19-3.16,40.65-6.51c10.15-3.25,20.65-6.6,41-6.69H870c20.39.09,30.89,3.44,41,6.69,2.93.94,5.82,1.87,8.91,2.71V742c-3.62-.94-6.89-2-10.13-3C899.4,735.69,889.58,732.55,869.54,732.51Z"/><path class="cls-4" d="M869.84,640.26c-20,0-29.85,3.18-40.24,6.51s-20.93,6.69-41.87,6.69-31.59-3.4-41.88-6.69-20.3-6.5-40.54-6.51a125.67,125.67,0,0,0-23.94,2q-.45,5.15-.45,10.39v1.17a130.61,130.61,0,0,1,24-2h.23c20.79,0,31.39,3.41,41.64,6.69,10.46,3.35,20.34,6.51,40.66,6.51s30.19-3.16,40.65-6.51c10.15-3.24,20.65-6.6,41-6.69H870c20.39.09,30.89,3.45,41,6.69,2.93.94,5.82,1.87,8.91,2.71v-8.59c0-1,0-2,0-2.94-3.48-.93-6.65-1.94-9.79-2.94C899.7,643.44,889.88,640.3,869.84,640.26Z"/><path class="cls-4" d="M787.43,571.57c20.32,0,30.19-3.16,40.65-6.51,10.15-3.24,20.65-6.6,41-6.69H870c1.36,0,2.67,0,3.95.06a119.21,119.21,0,0,0-17.06-11.12c-12,1-19.63,3.45-27.55,6C819,556.59,808.37,560,787.43,560s-31.59-3.4-41.88-6.69c-2.58-.83-5.13-1.65-7.8-2.4a118.07,118.07,0,0,0-12.45,8.82,125.27,125.27,0,0,1,21.47,5.34C757.23,568.41,767.11,571.57,787.43,571.57Z"/><path class="cls-4" d="M704.9,589.52h.23c20.79,0,31.39,3.41,41.64,6.69,10.46,3.35,20.34,6.51,40.66,6.51s30.19-3.16,40.65-6.51c10.15-3.25,20.65-6.6,41-6.69H870c16.24.07,26.21,2.21,34.72,4.72a121.08,121.08,0,0,0-9.11-13.88A120.81,120.81,0,0,0,869.84,578c-20,0-29.85,3.18-40.24,6.5s-20.93,6.7-41.87,6.7-31.59-3.4-41.88-6.7c-10.11-3.23-19.69-6.3-38.71-6.49a119.85,119.85,0,0,0-8.27,11.67c1.91-.06,3.92-.1,6-.1Z"/><path class="cls-4" d="M869.54,748.09c-20,0-29.85,3.18-40.24,6.5s-20.93,6.7-41.87,6.7-31.59-3.4-41.88-6.7-20.3-6.49-40.54-6.5a125,125,0,0,0-24.09,2V761.7a130.91,130.91,0,0,1,24.28-2h.23c20.79,0,31.39,3.42,41.64,6.7,10.46,3.35,20.34,6.51,40.66,6.51s30.2-3.16,40.65-6.51c10.16-3.25,20.66-6.6,41-6.69h.83c20.39.09,30.89,3.44,41,6.69,2.84.91,5.63,1.8,8.61,2.62V757.62c-3.62-1-6.89-2-10.13-3C899.4,751.27,889.58,748.13,869.54,748.09Z"/><path class="cls-4" d="M704.9,605.1h.23c20.79,0,31.39,3.42,41.64,6.7,10.46,3.35,20.34,6.51,40.66,6.51s30.19-3.16,40.65-6.51c10.15-3.25,20.65-6.6,41-6.69H870c20.39.09,30.89,3.44,41,6.69l2,.62a119,119,0,0,0-5.63-13.17c-9.55-3-19.33-5.68-37.79-5.72-20,0-29.85,3.18-40.24,6.5s-20.93,6.7-41.87,6.7-31.59-3.41-41.88-6.7-20.3-6.49-40.54-6.51c-3.09,0-5.93.08-8.58.22a118.86,118.86,0,0,0-6,12c4.23-.41,9-.65,14.43-.66Z"/><path class="cls-4" d="M869.54,655.84c-20,0-29.85,3.18-40.24,6.5s-20.93,6.7-41.87,6.7-31.59-3.4-41.88-6.7-20.3-6.49-40.54-6.5a125,125,0,0,0-24.09,2V669.4a130.61,130.61,0,0,1,24-2h.23c20.79,0,31.39,3.41,41.64,6.69,10.46,3.35,20.34,6.51,40.66,6.51s30.19-3.16,40.65-6.51c10.15-3.25,20.65-6.6,41-6.69H870c20.39.09,30.89,3.44,41,6.69,2.93.94,5.82,1.86,8.91,2.71V665.37c-3.62-.94-6.89-2-10.13-3C899.4,659,889.58,655.88,869.54,655.84Z"/><path class="cls-4" d="M823.42,535.38a120.33,120.33,0,0,0-23-2.22h0a119.61,119.61,0,0,0-35.85,5.47,127.91,127.91,0,0,0,22.87,1.79C804.73,540.42,814.45,538.12,823.42,535.38Z"/><path class="cls-4" d="M704.9,620.68h.23c20.79,0,31.39,3.42,41.64,6.7,10.46,3.34,20.34,6.51,40.66,6.51s30.19-3.17,40.65-6.51c10.15-3.25,20.65-6.61,41-6.7H870c20.39.09,30.89,3.45,41,6.7,2.21.7,4.39,1.4,6.64,2.06a118.45,118.45,0,0,0-3.11-12.34q-2.41-.74-4.75-1.49c-10.38-3.32-20.2-6.46-40.24-6.51s-29.85,3.19-40.24,6.51-20.93,6.7-41.87,6.7-31.59-3.41-41.88-6.7-20.3-6.5-40.54-6.51a144.65,144.65,0,0,0-16.23.84A120.24,120.24,0,0,0,684.89,622a140.22,140.22,0,0,1,20-1.32Z"/><path class="cls-1" d="M705.2,701.35v-4a130,130,0,0,0-24.28,2v4.06a124.51,124.51,0,0,1,24.39-2.1Z"/><path class="cls-1" d="M705.43,697.35h0Z"/><path class="cls-1" d="M870.26,697.35h0Z"/><path class="cls-1" d="M705.31,701.35c20.24,0,30.11,3.17,40.54,6.51s20.93,6.7,41.88,6.7,31.58-3.41,41.87-6.7,20.21-6.46,40.24-6.51h-.41v-4c-20.39.09-30.89,3.45-41,6.7-10.45,3.34-20.33,6.51-40.65,6.51s-30.2-3.17-40.66-6.51c-10.25-3.28-20.85-6.67-41.64-6.7h-.23v4Z"/><path class="cls-1" d="M870.26,697.35h-.83v4h.41c20,0,29.86,3.18,40.24,6.51,3.15,1,6.33,2,9.83,2.95v-4.14c-3-.82-5.77-1.71-8.61-2.62C901.15,700.8,890.65,697.44,870.26,697.35Z"/><path class="cls-1" d="M704.9,716.93v-4a130.61,130.61,0,0,0-24,2V719a125.84,125.84,0,0,1,24.09-2Z"/><path class="cls-1" d="M705.13,712.93h0Z"/><path class="cls-1" d="M870,712.93h0Z"/><path class="cls-1" d="M705,716.93c20.24,0,30.11,3.17,40.54,6.51s20.93,6.69,41.88,6.69,31.58-3.4,41.87-6.69,20.21-6.47,40.24-6.51h-.41v-4c-20.4.09-30.9,3.45-41,6.7-10.46,3.34-20.33,6.5-40.65,6.5s-30.2-3.16-40.66-6.5c-10.25-3.28-20.85-6.67-41.64-6.7h-.23v4Z"/><path class="cls-1" d="M870,712.93h-.83v4h.41c20,0,29.86,3.18,40.24,6.51,3.24,1,6.51,2.08,10.13,3v-4.14c-3.09-.84-6-1.77-8.91-2.7C900.85,716.38,890.35,713,870,712.93Z"/><path class="cls-1" d="M705.13,728.51h0Z"/><path class="cls-1" d="M704.9,732.51v-4a130.61,130.61,0,0,0-24,2v4a125,125,0,0,1,24.09-2Z"/><path class="cls-1" d="M870,728.51h0Z"/><path class="cls-1" d="M705,732.51c20.24,0,30.11,3.16,40.54,6.5s20.93,6.7,41.88,6.7,31.58-3.4,41.87-6.7,20.21-6.46,40.24-6.5h-.41v-4c-20.4.09-30.9,3.45-41,6.69-10.46,3.35-20.33,6.51-40.65,6.51s-30.2-3.16-40.66-6.51c-10.25-3.28-20.85-6.67-41.64-6.69h-.23v4Z"/><path class="cls-1" d="M870,728.51h-.83v4h.41c20,0,29.86,3.18,40.24,6.5,3.24,1,6.51,2.09,10.13,3v-4.13c-3.09-.84-6-1.77-8.91-2.71C900.85,732,890.35,728.6,870,728.51Z"/><path class="cls-1" d="M704.9,748.09v-4a130.61,130.61,0,0,0-24,2v4a125,125,0,0,1,24.09-2Z"/><path class="cls-1" d="M705.13,744.09h0Z"/><path class="cls-1" d="M870,744.09h0Z"/><path class="cls-1" d="M705,748.09c20.24,0,30.11,3.16,40.54,6.5s20.93,6.7,41.88,6.7,31.58-3.4,41.87-6.7,20.21-6.46,40.24-6.5h-.41v-4c-20.4.09-30.9,3.44-41,6.69-10.46,3.35-20.33,6.51-40.65,6.51s-30.2-3.16-40.66-6.51c-10.25-3.28-20.85-6.67-41.64-6.69h-.23v4Z"/><path class="cls-1" d="M870,744.09h-.83v4h.41c20,0,29.86,3.18,40.24,6.5,3.24,1,6.51,2.08,10.13,3v-4.13c-3.09-.84-6-1.77-8.91-2.71C900.85,747.53,890.35,744.18,870,744.09Z"/><path class="cls-1" d="M705.2,763.66v-4a130.91,130.91,0,0,0-24.28,2v4.06a124.51,124.51,0,0,1,24.39-2.1Z"/><path class="cls-1" d="M705.43,759.66h0Z"/><path class="cls-1" d="M870.26,759.66h0Z"/><path class="cls-1" d="M705.31,763.66c20.24,0,30.11,3.17,40.54,6.51s20.93,6.7,41.88,6.7,31.58-3.41,41.87-6.7,20.21-6.46,40.24-6.5h-.41v-4c-20.39.09-30.89,3.44-41,6.69-10.45,3.35-20.33,6.51-40.65,6.51s-30.2-3.16-40.66-6.51c-10.25-3.28-20.85-6.67-41.64-6.7h-.23v4Z"/><path class="cls-1" d="M870.26,759.67h-.83v4h.41c20,0,29.86,3.18,40.24,6.5,3.15,1,6.33,2,9.83,3V769c-3-.82-5.77-1.71-8.61-2.62C901.15,763.11,890.65,759.76,870.26,759.67Z"/><path class="cls-1" d="M704.9,779.24v-4a130.61,130.61,0,0,0-24,2v4.06a124.92,124.92,0,0,1,24.09-2Z"/><path class="cls-1" d="M705.13,775.24h0Z"/><path class="cls-1" d="M870,775.24h0Z"/><path class="cls-1" d="M705,779.24c20.24,0,30.11,3.17,40.54,6.51s20.93,6.7,41.88,6.7S819,789,829.3,785.75s20.21-6.46,40.24-6.51h-.41v-4c-20.4.09-30.9,3.44-41,6.69-10.46,3.35-20.33,6.51-40.65,6.51s-30.2-3.16-40.66-6.51c-10.25-3.28-20.85-6.67-41.64-6.7h-.23v4Z"/><path class="cls-1" d="M870,775.25h-.83v4h.41c20,0,29.86,3.19,40.24,6.51,3.24,1,6.51,2.08,10.13,3v-4.13c-3.09-.85-6-1.77-8.91-2.71C900.85,778.69,890.35,775.34,870,775.25Z"/><path class="cls-1" d="M704.9,794.82v-4a130.61,130.61,0,0,0-24,2v4.06a124.92,124.92,0,0,1,24.09-2Z"/><path class="cls-1" d="M705.13,790.82h0Z"/><path class="cls-1" d="M870,790.82h0Z"/><path class="cls-1" d="M705,794.82c20.24,0,30.11,3.17,40.54,6.51S766.48,808,787.43,808s31.58-3.4,41.87-6.69,20.21-6.46,40.24-6.51h-.41v-4c-20.4.09-30.9,3.45-41,6.7-10.46,3.34-20.33,6.5-40.65,6.5s-30.2-3.16-40.66-6.5c-10.25-3.28-20.85-6.67-41.64-6.7h-.23v4Z"/><path class="cls-1" d="M870,790.82h-.83v4h.41c20,0,29.86,3.18,40.24,6.51,3.24,1,6.51,2.08,10.13,3v-4.14c-3.09-.84-6-1.76-8.91-2.7C900.85,794.27,890.35,790.91,870,790.82Z"/><path class="cls-1" d="M704.9,810.4v-4a130.61,130.61,0,0,0-24,2v4a125.84,125.84,0,0,1,24.09-2Z"/><path class="cls-1" d="M705.13,806.4h0Z"/><path class="cls-1" d="M870,806.4h0Z"/><path class="cls-1" d="M705,810.4c20.24,0,30.11,3.17,40.54,6.51s20.93,6.69,41.88,6.69,31.58-3.4,41.87-6.69,20.21-6.47,40.24-6.51h-.41v-4c-20.4.09-30.9,3.45-41,6.7-10.46,3.34-20.33,6.5-40.65,6.5s-30.2-3.16-40.66-6.5c-10.25-3.28-20.85-6.68-41.64-6.7h-.23v4Z"/><path class="cls-1" d="M870,806.4h-.83v4h.41c20,0,29.86,3.18,40.24,6.51,3.24,1,6.51,2.08,10.13,3V815.8c-3.09-.84-6-1.77-8.91-2.7C900.85,809.85,890.35,806.49,870,806.4Z"/><path class="cls-1" d="M705.2,826v-4a130.16,130.16,0,0,0-24.28,2v4.06A123.85,123.85,0,0,1,705.31,826Z"/><path class="cls-1" d="M705.43,822h0Z"/><path class="cls-1" d="M869.84,826h-.41v-4c-20.39.09-30.89,3.45-41,6.69-8.65,2.77-16.91,5.41-31,6.24h24.33c2.76-.78,5.35-1.61,7.91-2.43C840,829.16,849.81,826,869.84,826Z"/><path class="cls-1" d="M870.26,822h0Z"/><path class="cls-1" d="M705.43,822h-.23v4h.11c20.24,0,30.11,3.16,40.54,6.5,2.57.82,5.16,1.65,7.92,2.43H778.1c-14.11-.83-22.37-3.47-31-6.24C736.82,825.39,726.22,822,705.43,822Z"/><path class="cls-1" d="M870.26,822h-.83v4h.41c20,0,29.86,3.18,40.24,6.5,2.57.82,5.16,1.65,7.92,2.43h1.91V831.3c-3-.82-5.77-1.72-8.61-2.63C901.15,825.43,890.65,822.07,870.26,822Z"/><path class="cls-1" d="M829.3,537.72l1.8-.58c-2.53-.67-5.09-1.25-7.68-1.76-9,2.74-18.69,5-36,5a127.91,127.91,0,0,1-22.87-1.79c-2.44.77-4.86,1.62-7.23,2.54,7.56,1.86,16.73,3.25,30.1,3.25C808.37,544.42,819,541,829.3,537.72Z"/><path class="cls-1" d="M787.43,560c20.94,0,31.58-3.4,41.87-6.69,7.92-2.54,15.51-5,27.55-6-2.15-1.16-4.35-2.25-6.58-3.28a123.37,123.37,0,0,0-22.19,5.46c-10.46,3.34-20.33,6.5-40.65,6.5s-30.2-3.16-40.66-6.5c-1.42-.46-2.84-.91-4.3-1.36q-2.4,1.33-4.72,2.77c2.67.75,5.22,1.57,7.8,2.4C755.84,556.59,766.48,560,787.43,560Z"/><path class="cls-1" d="M787.43,575.57c20.94,0,31.58-3.4,41.87-6.7s20.21-6.46,40.24-6.5h-.41v-4c-20.4.09-30.9,3.45-41,6.69-10.46,3.35-20.33,6.51-40.65,6.51s-30.2-3.16-40.66-6.51a125.27,125.27,0,0,0-21.47-5.34q-2.09,1.69-4.11,3.48c10.24,1.16,17.17,3.37,24.36,5.67C755.84,572.17,766.48,575.57,787.43,575.57Z"/><path class="cls-1" d="M870,558.37h0Z"/><path class="cls-1" d="M869.54,558.37h-.41v4h.41c3.44,0,6.58.11,9.47.28q-2.49-2.17-5.1-4.22c-1.28,0-2.59,0-3.95-.06Z"/><path class="cls-1" d="M870.26,574h0Z"/><path class="cls-1" d="M787.73,591.15c20.94,0,31.58-3.4,41.87-6.7s20.21-6.46,40.24-6.5h-.41v-4c-20.39.09-30.89,3.44-41,6.69-10.45,3.35-20.33,6.51-40.65,6.51s-30.2-3.16-40.66-6.51c-9.39-3-19.08-6.1-36.63-6.62q-1.7,1.93-3.3,3.94c19,.19,28.6,3.26,38.71,6.49C756.14,587.75,766.78,591.15,787.73,591.15Z"/><path class="cls-1" d="M869.84,574h-.41v4h.41a120.81,120.81,0,0,1,25.73,2.42c-1.24-1.62-2.52-3.22-3.84-4.78A133.92,133.92,0,0,0,870.26,574Z"/><path class="cls-1" d="M705.13,589.52h0Z"/><path class="cls-1" d="M704.9,593.52v-4c-2.11,0-4.12,0-6,.1-.84,1.36-1.65,2.72-2.44,4.11,2.65-.14,5.49-.21,8.58-.22Z"/><path class="cls-1" d="M869.13,589.53c-20.4.09-30.9,3.44-41,6.69-10.46,3.35-20.33,6.51-40.65,6.51s-30.2-3.16-40.66-6.51c-10.25-3.28-20.85-6.67-41.64-6.69h-.23v4H705c20.24,0,30.11,3.17,40.54,6.51s20.93,6.7,41.88,6.7S819,603.32,829.3,600s20.21-6.46,40.24-6.5h-.41Z"/><path class="cls-1" d="M870,589.52h0Z"/><path class="cls-1" d="M869.54,589.53h-.41v4h.41c18.46,0,28.24,2.7,37.79,5.72q-1.27-2.54-2.65-5c-8.51-2.51-18.48-4.65-34.72-4.72Z"/><path class="cls-1" d="M705.13,605.1h0Z"/><path class="cls-1" d="M704.9,609.1v-4c-5.45,0-10.2.25-14.43.66-.59,1.38-1.15,2.77-1.69,4.18A144.65,144.65,0,0,1,705,609.1Z"/><path class="cls-1" d="M869.13,605.11c-20.4.09-30.9,3.44-41,6.69-10.46,3.35-20.33,6.51-40.65,6.51s-30.2-3.16-40.66-6.51c-10.25-3.28-20.85-6.67-41.64-6.7h-.23v4H705c20.24,0,30.11,3.17,40.54,6.51s20.93,6.7,41.88,6.7,31.58-3.41,41.87-6.7,20.21-6.46,40.24-6.51h-.41Z"/><path class="cls-1" d="M870,605.1h0Z"/><path class="cls-1" d="M870,605.11h-.83v4h.41c20,0,29.86,3.19,40.24,6.51q2.34.75,4.75,1.49c-.49-1.57-1-3.13-1.57-4.68l-2-.62C900.85,608.55,890.35,605.2,870,605.11Z"/><path class="cls-1" d="M704.9,624.68v-4a140.22,140.22,0,0,0-20,1.32c-.37,1.39-.71,2.79-1,4.19A132.9,132.9,0,0,1,705,624.68Z"/><path class="cls-1" d="M705.13,620.68h0Z"/><path class="cls-1" d="M869.13,620.68c-20.4.09-30.9,3.45-41,6.7-10.46,3.34-20.33,6.51-40.65,6.51s-30.2-3.17-40.66-6.51c-10.25-3.28-20.85-6.67-41.64-6.7h-.23v4H705c20.24,0,30.11,3.17,40.54,6.51s20.93,6.7,41.88,6.7,31.58-3.41,41.87-6.7,20.21-6.46,40.24-6.51h-.41Z"/><path class="cls-1" d="M870,620.68h0Z"/><path class="cls-1" d="M870,620.68h-.83v4h.41c20,.05,29.86,3.18,40.24,6.51,2.79.89,5.61,1.79,8.64,2.63q-.34-2.21-.78-4.38c-2.25-.66-4.43-1.36-6.64-2.06C900.85,624.13,890.35,620.77,870,620.68Z"/><path class="cls-1" d="M705.43,636.26h0Z"/><path class="cls-1" d="M705.2,640.26v-4a131.89,131.89,0,0,0-23.4,1.87c-.17,1.37-.31,2.75-.43,4.13a125.67,125.67,0,0,1,23.94-2Z"/><path class="cls-1" d="M869.84,636.26h0Z"/><path class="cls-1" d="M787.73,649.46c-20.32,0-30.2-3.16-40.66-6.5-10.25-3.28-20.85-6.68-41.64-6.7h-.23v4h.11c20.24,0,30.11,3.17,40.54,6.51s20.93,6.69,41.88,6.69,31.58-3.4,41.87-6.69,20.21-6.47,40.24-6.51h-.41v-4c-20.39.09-30.89,3.45-41,6.7C817.93,646.3,808.05,649.46,787.73,649.46Z"/><path class="cls-1" d="M911.3,643c-10.15-3.25-20.65-6.61-41-6.7h-.83v4h.41c20,0,29.86,3.18,40.24,6.51,3.14,1,6.31,2,9.79,2.94,0-1.41-.1-2.8-.18-4.19C916.8,644.71,914.07,643.84,911.3,643Z"/><path class="cls-1" d="M704.9,655.84v-4a130.61,130.61,0,0,0-24,2v4a125,125,0,0,1,24.09-2Z"/><path class="cls-1" d="M705.13,651.84h0Z"/><path class="cls-1" d="M870,651.84h0Z"/><path class="cls-1" d="M705,655.84c20.24,0,30.11,3.16,40.54,6.5s20.93,6.7,41.88,6.7,31.58-3.4,41.87-6.7,20.21-6.46,40.24-6.5h-.41v-4c-20.4.09-30.9,3.45-41,6.69-10.46,3.35-20.33,6.51-40.65,6.51s-30.2-3.16-40.66-6.51c-10.25-3.28-20.85-6.67-41.64-6.69h-.23v4Z"/><path class="cls-1" d="M870,651.84h-.83v4h.41c20,0,29.86,3.18,40.24,6.5,3.24,1,6.51,2.09,10.13,3v-4.13c-3.09-.84-6-1.77-8.91-2.71C900.85,655.29,890.35,651.93,870,651.84Z"/><path class="cls-1" d="M704.9,671.42v-4a130.61,130.61,0,0,0-24,2v4.05a125,125,0,0,1,24.09-2Z"/><path class="cls-1" d="M705.13,667.42h0Z"/><path class="cls-1" d="M870,667.42h0Z"/><path class="cls-1" d="M705,671.42c20.24,0,30.11,3.16,40.54,6.5s20.93,6.7,41.88,6.7,31.58-3.4,41.87-6.7,20.21-6.46,40.24-6.5h-.41v-4c-20.4.09-30.9,3.44-41,6.69-10.46,3.35-20.33,6.51-40.65,6.51s-30.2-3.16-40.66-6.51c-10.25-3.28-20.85-6.67-41.64-6.69h-.23v4Z"/><path class="cls-1" d="M870,667.42h-.83v4h.41c20,0,29.86,3.18,40.24,6.5,3.24,1,6.51,2.08,10.13,3v-4.13c-3.09-.85-6-1.77-8.91-2.71C900.85,670.86,890.35,667.51,870,667.42Z"/><path class="cls-1" d="M704.9,687v-4a131.5,131.5,0,0,0-24,2V689A124.92,124.92,0,0,1,705,687Z"/><path class="cls-1" d="M705.13,683h0Z"/><path class="cls-1" d="M870,683h0Z"/><path class="cls-1" d="M705,687c20.24,0,30.11,3.17,40.54,6.51s20.93,6.7,41.88,6.7,31.58-3.41,41.87-6.7,20.21-6.46,40.24-6.5h-.41v-4c-20.4.09-30.9,3.44-41,6.69-10.46,3.35-20.33,6.51-40.65,6.51s-30.2-3.16-40.66-6.51c-10.25-3.28-20.85-6.67-41.64-6.7h-.23v4Z"/><path class="cls-1" d="M870,683h-.83v4h.41c20,0,29.86,3.18,40.24,6.5,3.24,1,6.51,2.08,10.13,3V692.4c-3.09-.85-6-1.77-8.91-2.71C900.85,686.44,890.35,683.09,870,683Z"/></g><path class="cls-7" d="M576.55,689.45l-.06-.05c-3.39-4.16-5.28-9.4-5.78-16-1-13.51,7.27-20.61,20.92-21.64,10.26-.77,15.81,1.56,20.21,10.09a12.87,12.87,0,0,1,1.29,6.77c-.34,3.45-2.49,6.89-.75,9.64,5.24,8.26-2.12,19.49-11.36,20.3-1.07,3.95.45,10.28-4.15,10.63-3.15.23-12.21-2.84-16.24-2.53-1.2.09-1.83-2.29-2.16-5.19C579.72,697.08,580.24,692.45,576.55,689.45Z"/><path class="cls-8" d="M564.44,659.44c0-6.24,4.37-11.31,9.79-11.36a9.84,9.84,0,0,1,8.66-5.23,10.06,10.06,0,0,1,2.87.43,9.3,9.3,0,0,1,14.51.14,9.77,9.77,0,0,1,8.34-.58,9.53,9.53,0,0,1,5.77,12v0c1.57,3.23,2,6.41,1.26,8.11a4.49,4.49,0,0,1-2.48,4.63l-.67.33a4.5,4.5,0,0,1-6-2.07l-.84-1.73a4.47,4.47,0,0,1-2.47.75h-.75l-.37,0V669a4.49,4.49,0,0,1-4.47,4.48h-.75a4.46,4.46,0,0,1-2-.48l1.66,4.88A1.86,1.86,0,1,1,593,679l-3.28-6.28-.12,0a1.78,1.78,0,0,0-.89-.56,2.49,2.49,0,0,0-1.55.11,1.8,1.8,0,0,0-.71.47,2.51,2.51,0,0,0-.54.92,1.83,1.83,0,0,0,.19,1.44.39.39,0,0,0,.08.1,12.92,12.92,0,0,1,.61,3.92,15,15,0,0,1-1.25,3.44,6.84,6.84,0,0,1-4.16,3.91,15.31,15.31,0,0,1-6.15,1.05c-.17,0-.33,0-.5,0-3.28-2.67-6.26-5.58-7.63-9.77a3.16,3.16,0,0,0-1.27-1.69,12.55,12.55,0,0,1-1.41-5.85,12.8,12.8,0,0,1,1.18-5.41A12.8,12.8,0,0,1,564.44,659.44Z"/><path class="cls-8" d="M419.91,761a5.33,5.33,0,0,0-.89.35c-4.48,2.42-6.5,6.9,2.28,9.79a3.76,3.76,0,0,0-.39.54c-2.35,4-2.08,8.39,4.78,7.6a4.27,4.27,0,0,0-.46.62c-2.42,4.13-2.05,8.7,5.53,7.49-2.13,4.56-.48,9.05,10.76,5.28a17.44,17.44,0,0,0,5.07-2.67,14.82,14.82,0,0,0,.71,3.66c2.32,5.14,7.37,7.47,11-4.72.05-.19.11-.38.16-.56l1.13.94c3,2.52,5.8,6.27,7.35,7.14,4.4,2.5,9.24,1.86,7.13-7a5.7,5.7,0,0,0,.86.65c4.8,2.81,10.11,2,7.31-8.56a3,3,0,0,0,.47.34c5.19,3,11,1.83,6.49-11.25C484.05,755.59,468.58,751,468.58,751a3.71,3.71,0,0,0-.67.07,2.09,2.09,0,0,0-.19-.5s-1.84-20.52-38.63-19.56c-11.15.29-10.19,6.37-6.26,9.35a16.12,16.12,0,0,0-3.75-.37c-4.84.69-8.09,4.27.76,10.15a12.19,12.19,0,0,0-3,.85C412.25,753.5,410.24,758.17,419.91,761Z"/><path class="cls-9" d="M464.77,758.71a13.11,13.11,0,0,1,8.37,8.06c1.42,4,2.26,9.14-.88,12.44-6.46,6.78,1.84,14.57-10.54,20.86-8.49,4.31-6.87-1.48-9.56.23s-9.41,14.89-9.41,14.89l-18.89-14.28s7.77-17.1,7.73-18.73,11.46-22.64,15.81-23.29C451.11,758.33,455,755.59,464.77,758.71Z"/><polygon class="cls-10" points="1082 993 1142 867 1417.26 867 1380 989.71 1082 993"/><path class="cls-11" d="M1311,966a51.55,51.55,0,0,0,5.69-6.07l-13.16-12.77c-.87.38-1.79.81-2.77,1.31,0,0-7.53,11.13-18.25,11s-21.57-8.37-22.17-9.52-5.85-3.39-5.5.37,18.31,22.91,22.39,24.59,10.36,13.3,16.13,12.8C1301.42,987,1300.67,975.38,1311,966Z"/><path class="cls-12" d="M1301,967.29c-3.08.92-9.23,1.75-11-.4-2.66-3.2.28-9.51-9.61-10.8-10.45-1.36-15.34-8.4-22.7-10.64-1.3-.4-7.61-1-6.86,2.66s20.35,24.25,24.51,26.34,11.55,14,17.11,14.23c4.16.14,6,1.51,13-11.29,2.87-5.22,8.24-6.21,3.72-9.54C1307.21,966.43,1307.35,965.41,1301,967.29Z"/><path class="cls-13" d="M1372.26,877.73s-26,28.56-29.83,32.36c-3.14,3.15-32.12,27.23-42.16,35.56a4.59,4.59,0,0,0-.7,6.35c3.8,4.88,10.43,13.27,12.22,14.6,2.53,1.91,106.61-75.69,106.61-75.69Z"/><path class="cls-14" d="M1399,890.4c0,1-.06,2-.06,3,0,32.94,24.29,59.65,54.25,59.65s54.26-26.71,54.26-59.65c0-1,0-2-.07-3Z"/><polygon class="cls-14" points="1437.34 934.82 1392.92 1005.25 1516.03 1003.35 1458.91 934.18 1437.34 934.82"/><path class="cls-11" d="M1346.26,961.06a52.17,52.17,0,0,0-.14-8.32h-18.34c-.37.88-.73,1.83-1.08,2.87,0,0,2.35,13.23-5.43,20.61s-21.31,9-22.54,8.6-6.56,1.64-3.69,4.1,29.09,3.69,33.19,2.05,16.7,2.33,20.49-2.05C1354.05,982.78,1345.44,975,1346.26,961.06Z"/><path class="cls-14" d="M1340,969c-1.57,2.8-5.4,7.68-8.19,7.38-4.13-.45-6.41-7-14.41-1.06-8.44,6.3-16.86,4.65-23.7,8.17-1.21.62-6.17,4.57-3.07,6.69s31.5,3.22,35.94,1.83,18.07,2,22.19-1.71c3.07-2.79,5.32-3,1.45-17.14-1.58-5.74,1.58-10.19-4-9.43C1343.9,964,1343.29,963.19,1340,969Z"/><path class="cls-15" d="M1442.69,846s-45,6.35-55.2,7.62-26.66,1.9-34.9,20.94-29.2,81.86-29.2,81.86,24.12,6.34,26.66,1.9,27.28-65.36,28.55-66,83.13,3.17,92.65-1.27,15.86-14,15.86-19.67S1442.69,846,1442.69,846Z"/><path class="cls-11" d="M1471.19,791.74c-1.38-8.8-7-25.75,5.44-29.47,11.37-3.38,13.77,21.79,15.93,28.74,5,16,13.35,41.31,3.13,41.76C1482.78,833.35,1472,796.89,1471.19,791.74Z"/><path class="cls-11" d="M1452.66,680.8s-10,6.56-6.45,18.25c3,10.11-3.4,16.54,2,26.3,5.06,9.1,8.49,2.29,10.19,5.6s-1.55,17.07-1.55,17.07l27.55-3.23s2.27-21.88,3.28-23.51,1.84-29.67-2.17-32.9S1456.56,675.7,1452.66,680.8Z"/><path class="cls-16" d="M1452,749.17c2-6,8.63-8.06,18-9.94,11-2.21,22.56-13.79,31,26.5,6.68,31.88,2,96.23-5.64,106.75s-60.92-25.93-60.92-28,8.56-31.24,8.56-39S1448.79,758.88,1452,749.17Z"/><path class="cls-7" d="M555.19,721.9c.37-5.12,3.46-10.83,3.46-10.83.74-3.37,6.86-8.73,9.93-8.19l2.12.71a2.86,2.86,0,0,0,1.29.78c-.72-.21-.25-.26-.25.68a15.66,15.66,0,0,1-.08,2.27,59.38,59.38,0,0,1-1.37,6.7c-.4,1.5-.84,3-1.3,4.47a7.94,7.94,0,0,0-.64,1.17c-.06.13-.38,1.5-.83,3.47l-.42,1.31a4.49,4.49,0,0,0-.24,1.59c-1.5,6.6-3.57,16-3.57,16l-1.49,5.82c-.74,3.37-7.86,14.43-12.18,11.25C544.17,755.05,555,725.31,555.19,721.9Z"/><path class="cls-17" d="M558.59,711.14c.75-3.38,6.84-9.34,9.9-8.81a5.43,5.43,0,0,1,4.43,2.82,4,4,0,0,1,.35,2.45,22.7,22.7,0,0,1-1.76,6.25c-.61,1.43-2.7,5.58-2.84,5.9,0,.14-.43,1.34-1.13,3.41-.14.45-.36.9-.5,1.34,0,.1,0,.19-.06.28l-12-2.1c.05-.29.09-.54.11-.72C555.5,716.84,558.59,711.14,558.59,711.14Z"/><path class="cls-7" d="M625.64,721.89c-.43-5.11-3.6-10.77-3.6-10.77-.79-3.36-7-8.64-10-8.07l-2.12.75a2.87,2.87,0,0,1-1.28.79c.72-.22.25-.26.26.68a17.26,17.26,0,0,0,.11,2.27,61.7,61.7,0,0,0,1.46,6.68c.42,1.5.88,3,1.36,4.45a7.68,7.68,0,0,1,.65,1.16c.06.14.4,1.49.88,3.46.14.43.29.87.44,1.31a4.53,4.53,0,0,1,.26,1.58c1.58,6.58,3.78,15.9,3.78,15.9l1.56,5.8c.79,3.36,8,14.33,12.33,11.1C637.1,754.91,625.93,725.31,625.64,721.89Z"/><path class="cls-17" d="M622.1,711.18c-.79-3.36-7-9.25-10-8.67a5.44,5.44,0,0,0-4.39,2.87,4.13,4.13,0,0,0-.32,2.46,23.22,23.22,0,0,0,1.85,6.23c.63,1.42,2.77,5.54,2.91,5.86.06.13.45,1.33,1.18,3.4.15.44.37.89.51,1.33a1.28,1.28,0,0,1,.07.28l11.92-2.26c-.06-.29-.1-.54-.12-.73C625.26,716.84,622.1,711.18,622.1,711.18Z"/><path class="cls-17" d="M577.86,761.21c5.08.32,10.21.92,15.3.62,7.21-.43,14.23-2.21,21.35-3.28,1.85-13.86,6.2-50.81,2.61-54-1.3-1.15-11.91-6.16-12.44-6-3.55.8-10.82,3-14.44,3-3.8,0-10.78-2.27-14.29-3-.46-.09-10.92,4.86-12.22,6-3.79,3.32,1.26,44.24,2.89,56C570.37,760.76,574.11,761,577.86,761.21Z"/><path class="cls-7" d="M561.59,770.88c-4.5,6.09-.32,58-.11,60.65.85,10.54,9.21,9.65,14.69,4,7.55-7.76,9.33-49.28,10-55.81S561.63,770.84,561.59,770.88Z"/><path class="cls-7" d="M564,820.36c.31-.67,6-.61,6.49-.6,6.73.15,8.52,9.18,8.13,27s-3.3,34.9-10,34.75c-.29,0-1.23.05-2.28.05a2.32,2.32,0,0,1-2.32-2C563,870.56,559,830.8,564,820.36Z"/><path class="cls-18" d="M574.71,879.29a30.39,30.39,0,0,0-.09-5.13H563.87c-.12,0-.17.28-.19.39-.24,1.48-.75,9.82-5.62,14.09-5.19,4.55-13.3,4-14.49,4.44-.81.27-4.9,1.88-3,3.4s19.39,2.27,22.12,1.26,11.12,1.44,13.65-1.26C579.9,892.69,574.17,887.88,574.71,879.29Z"/><path class="cls-14" d="M571.17,884.8a6.49,6.49,0,0,1-5.5,2.94c-2.7-.28-4.2-4.51-9.43-.68-5.53,4.06-11,3-15.52,5.26-.79.4-4,2.94-2,4.3s20.62,2.08,23.52,1.18,11.83,1.31,14.53-1.09c2-1.8,3.48-2,1-11C576.67,882,573.29,881.08,571.17,884.8Z"/><path class="cls-7" d="M615.43,770.88c4.5,6.09.32,58,.11,60.65-.85,10.54-9.21,9.65-14.69,4-7.55-7.76-9.33-49.28-10-55.81S615.39,770.84,615.43,770.88Z"/><path class="cls-7" d="M613,820.36c-.32-.67-6-.61-6.5-.6-6.73.15-8.52,9.18-8.13,27s3.3,34.9,10,34.75c.29,0,1.23.05,2.28.05a2.32,2.32,0,0,0,2.32-2C614,870.56,618,830.8,613,820.36Z"/><path class="cls-18" d="M602.31,879.29a30.39,30.39,0,0,1,.09-5.13h10.75c.12,0,.17.28.19.39.24,1.48.76,9.82,5.62,14.09,5.19,4.55,13.3,4,14.49,4.44.81.27,4.9,1.88,3,3.4s-19.39,2.27-22.12,1.26-11.12,1.44-13.65-1.26C597.12,892.69,602.85,887.88,602.31,879.29Z"/><path class="cls-14" d="M605.85,884.8a6.49,6.49,0,0,0,5.5,2.94c2.71-.28,4.2-4.51,9.43-.68,5.53,4.06,11,3,15.52,5.26.79.4,4,2.94,2,4.3s-20.62,2.08-23.52,1.18-11.83,1.31-14.53-1.09c-2-1.8-3.48-2-1-11C600.35,882,603.73,881.08,605.85,884.8Z"/><path class="cls-17" d="M589.25,803.76c0-12.33-.15-22.75.19-26.17.95-9.55-27-13-27-12.91-4.06,5.39-5.54,22.76-5.1,39.33C557.42,808.82,589.25,808.66,589.25,803.76Z"/><path class="cls-17" d="M589,803.76c0-12.33.15-22.75-.19-26.17-.95-9.55,27-13,27-12.91,4.06,5.39,5.54,22.76,5.1,39.33C620.8,808.82,589,808.66,589,803.76Z"/><path class="cls-17" d="M566.83,755.9c5.28.19,17.82,0,22.86,0s16.12-.31,20.89-.39c9.76-.17,9,26.51,9,26.51,0,1.25-19,9.69-26.57,14.47a7.23,7.23,0,0,1-7.76,0l-20.44-12.75c-2.35-1.46-6.23-2.26-6.24-5.17C558.55,778.59,556.41,755.54,566.83,755.9Z"/><path class="cls-7" d="M633.68,754.83s-.28,4-7.88,7.38a107.88,107.88,0,0,1-21.54,5.88c-5.1.79-8.71,1.39-9.74-2.32-1.59-5.71,13.58-9,18.38-10.83s14.56-8.84,17.49-8.39,3.7,4.57,3.29,8.28"/><path class="cls-7" d="M613.41,762.59c.48-2.32.11-1.73-2.92-2.14s-9.55.35-11,.33c-2.6,0-6.8-.66-9.75,1.93s-4.47,4.48-6.78,4.09a27.25,27.25,0,0,0-4.63-.8c-.59,0-1.81.43-1.62,1.33a.85.85,0,0,0,.52.56l2.7.86a4.93,4.93,0,0,0-2.92,0,3.42,3.42,0,0,0-1.11.64,1.2,1.2,0,0,0,.69,2.11c3.79.29,11.29.76,13.37,0a111.71,111.71,0,0,1,13.81-3.34C609,767.16,612.77,765.7,613.41,762.59Z"/><path class="cls-19" d="M1365.83,598.08h15.58c1.56,0,37.37-3.11,39.71-3.89s5.45,5.45-.78,9.34-20.24,6.23-21.8,9.35-6.23,10.9-13.24,5.45c-3.93-3.06-18.69-6.23-18.69-6.23Z"/><path class="cls-20" d="M1240.47,690.74s-46.72-.78-49.06-.78,17.91-43.6,18.69-46.72-14.8-7.78-15.57-7-36.6,58.4-35,69.3c1.77,12.43,68.47,30.66,71.61,27.4S1240.47,690.74,1240.47,690.74Z"/><path class="cls-19" d="M1196.08,639.35s8.57-18.69,9.35-21,6.23-30.37,7.78-31.93,3.9,0,4.68,4.67,0,24.14,1.55,29.59,5.45,10.13-.77,13.24-12.46,10.9-12.46,10.9Z"/><path class="cls-21" d="M1236.36,875.06s-8.09-6.56-4.64-16.83-2.8-14.62,3.27-22.44,7.29-2,9-4.88-.53-15.2-.53-15.2l24.25,4.23s.93,19.5,1.74,21,.16,26.38-3.55,29.05S1239.57,879.77,1236.36,875.06Z"/><path class="cls-15" d="M1233.24,880a27.84,27.84,0,0,1,13.53-11.88c9.51-3.89,5-9.82,8.75-11.22s6,5.12,8.23,3.27-.26-14.71,4-17.64,10.44,15.61,11.88,20.64-2,14-10.28,17.86S1233.24,880,1233.24,880Z"/><path class="cls-15" d="M1240,872.08s-11.7,3.52-9.35,12.57,11.17,7.48,15.47,7.07,11.85,5.17,18.5-.39,13.08-3.24,15.48-7.13,8.47-11.71,4-16.38-8.12-3.65-12-4.78S1240,872.08,1240,872.08Z"/><path class="cls-19" d="M1252.93,812.22s-10.13,12.45-10.13,25.69,3.9,38.94,3.12,46.72,1.56,46.72,4.67,51.4,10.9,0,10.9-8.57,2.34-42.05,1.56-46.72,2.34-39.71,3.11-47.5S1256.82,812.22,1252.93,812.22Z"/><path class="cls-19" d="M1221,732.79s1.56,27.25,2.34,35,7,53.73,17.91,62.3,20.24,15.57,27.25,13.23,16.35-29.59,12.46-49.05-15.57-45.17-13.24-54.51S1221,732.79,1221,732.79Z"/><path class="cls-14" d="M1221,773.28s5.45,1.56,18.69-1.55,35-11.69,35-10.13,10.12,36.6,9.34,42.83-.77,22.58-3.89,27.25-7.79-1.55-9.34-8.56-11.68-16.35-20.25-14-3.89,18.69-9.34,21S1218.67,778.73,1221,773.28Z"/><path class="cls-22" d="M1217.11,743.69s53.73,1.56,55.28.78-1.55-13.24,4.68-21.8,11.68-25.7,7.78-38.16,8.57-48.27,9.35-54.5,74.75-7.79,77.09-13.24,3.89-20.25-3.12-21-91.88-1.55-95,0-37.37,74.76-40.49,85.66S1217.11,735.13,1217.11,743.69Z"/><path class="cls-19" d="M1248.58,925.23S1248,935,1243,938s-15,2-17,5,9,9,19,5,11-7,14-4,6,3,5,0-2-13-3-18S1248.58,925.23,1248.58,925.23Z"/><polygon class="cls-23" points="469.38 836.03 501.42 880.28 489.68 889.12 461.2 850.94 469.38 836.03"/><path class="cls-15" d="M461.54,822.37l1.73-1.72,8.63,15.54s-5.18,20.72-6,21.59-11.23-13-11.23-13Z"/><path class="cls-22" d="M523.71,811.15s17.27,6.91,14.68,18.13l-34.46,18.21-.95-20.8Z"/><path class="cls-22" d="M538.39,829.28s8.63-11.22,17.26-10.36l.14,5.23Z"/><polygon class="cls-10" points="477.94 834.46 500.39 850 538.39 829.28 515.07 815.47 477.94 834.46"/><polygon class="cls-10" points="538.39 829.28 559.11 824.1 521.11 846.52 500.39 850 538.39 829.28"/><path class="cls-9" d="M490,851.73s7.77-12.09,10.36-12.09-1.72,10.36,0,10.36,9.5-1.72,11.23-3.45,6-5.18,7.77-4.32-1.73,8.64-5.18,11.23S509,863,503.85,864.68c-4.18,1.4-11.23,5.18-16.41,8.64s-12.09-3.46-9.5-6.05S490,851.73,490,851.73Z"/><polygon class="cls-24" points="395.7 882.57 390.09 908.77 435 904.09 435 881.64 395.7 882.57"/><path class="cls-9" d="M589.32,931.42s6,10.52,7.08,16.3,1.34,11.93,3.84,15.2,10.5-2.43,14.85-4.56,34.76-11.62,32.63-16-13.35-1.56-23.08-3.09-19.36-15.69-19.36-15.69Z"/><rect class="cls-15" x="593.83" y="952.21" width="60.9" height="8.42" rx="4.21" transform="translate(-356.83 371.7) rotate(-26.07)"/><polygon class="cls-15" points="622.94 937.81 624.72 954.22 641.01 946.68 638.94 939.15 622.94 937.81"/><path class="cls-9" d="M569.22,950.19s3.27,11.69,2.85,17.55-1.64,11.89,0,15.68,10.77.22,15.51-.77,36.56-2.7,35.57-7.44-12.55-4.8-21.61-8.68-14.9-20-14.9-20Z"/><rect class="cls-15" x="566.49" y="978.83" width="60.9" height="8.42" rx="4.21" transform="translate(-188.52 142.95) rotate(-11.81)"/><polygon class="cls-15" points="600.23 964.67 597.91 981.01 615.56 977.72 615.41 969.91 600.23 964.67"/><path class="cls-20" d="M609.66,921.54c-5.25-1.51-85.1-43.15-100.95-40.86-7.15,1-14.64,9.23-21.6,18.64a8,8,0,0,1,1.39.71c12.42,7.88,24.7,16.25,35.66,26.12,11.73,6.52,53.81,32.32,55.48,35.35C581.51,964.87,614.9,923.05,609.66,921.54Z"/><path class="cls-15" d="M423.2,894c9.58,1.06,18.19-2.28,26.67-6.38,3.25-1.57,6.44-3.09,9.68-4.45-1.15-3.4-1.48-8.36.26-15,4.32-16.41,9.81-38,1.73-50.95-12.53-20.13-18.61-13.73-25.6-15.08-4.49-.87-9.11-3.1-14-.94-8.21,3.6-17.13,16.13-26.85,43.65-5,14.16-9.6,27-11.51,36.82C396.12,886.7,409.78,892.48,423.2,894Z"/><path class="cls-22" d="M388.22,893.8S436,890.05,442,888.65s4.2,22.93,12.62,24.8,39.39-37.64,57.07-35.56c15.91,1.87,82.34,62.69,87,65.5S560.37,978,559.44,974.26s-43-47.71-46.78-50.52c-2.07-1.55-12.94,14.38-30.88,29-14.62,11.92-35,23.2-50.52,21.52C396.64,970.52,384.48,954.61,388.22,893.8Z"/><path class="cls-9" d="M479.86,866s-43.21,9.19-45.8,10-6.2-26-8.79-26.88-19.86,2.59-19,6.05,11.05,44.32,15.62,45.16c7.35,1.34,63.82-26.17,65.54-27S481.78,864.66,479.86,866Z"/><rect class="cls-22" x="292.53" y="609.45" width="74.47" height="118.25"/><rect class="cls-22" x="223.39" y="609.45" width="59.01" height="118.25"/><rect class="cls-22" x="223.39" y="737.83" width="59.01" height="111.84"/><rect class="cls-22" x="292.53" y="737.83" width="74.47" height="111.84"/><path class="cls-25" d="M181,753.58c-.75.86-1.48,1.74-2.17,2.65l63.14,78,2.42-2Z"/><path class="cls-15" d="M202.12,934.75c1.32-.67,15.25-10.12,16.57-12.13s5.22-14.71,5.19-18-1.94-11.53-8.77-10.85c-7.43.74-14.1,4-20.3,8a75.88,75.88,0,0,0-14.89,11.87c-2.71,2.89-5.77,6.7-5.79,10.77,2,.16,4.63,5.3,6,6.6s.77,13.33,1.46,15.33,16.68,1.86,21.35,1.82,16.66-.8,19.34-.15,12,.57,11.33-.76-2.72-6.65-5.4-7.29-14,.11-16.67.13-12.67-.56-13.34-1.22S200.79,935.43,202.12,934.75Z"/><path class="cls-15" d="M264.16,938.26c-1.11-.6-6.93-23-6.94-24.73s2.38-44.55,2.35-47.92c0-1-10,6.32-15.29,11.3,0,.68.06,1.39.06,2.15.06,7.59,1.55,35.41,2.2,38.77s4.3,17.34,5,19.86.41,7,2.74,9.31c3.36,3.31,10.82,1.41,13.34,1.23,2-.14,3.86-4.11,2.62-6C269.36,940.93,266.23,939.36,264.16,938.26Z"/><path class="cls-26" d="M270.83,938.2c-1.11-.59-6.93-23-6.95-24.72s2.39-44.55,2.36-47.93c0-1-10.06,6.33-15.29,11.31,0,.68.05,1.39.06,2.15.06,7.59,1.55,35.4,2.2,38.77s4.29,17.33,4.94,19.86.42,7,2.75,9.31c3.36,3.31,10.82,1.41,13.34,1.23,2-.15,3.86-4.12,2.62-6C276,940.87,272.9,939.31,270.83,938.2Z"/><path class="cls-26" d="M299.63,788.6c-1.34-1.32-6.67-.61-9.34-.59s-6,0-8-1.27-3.38-5.31-10.72-6.58-16.67.13-20,3.49-9.23,12.75-9.82,23.42-8.53,16.74-13.8,24.79-34.43,30.28-38.38,36.31-12.57,12.11-17.2,17.48-12.52,18.1-13.13,25.44-5.91,11.39-7.9,12.74-14.57,12.78-17.23,13.47-16,2.8-20.65,2.84-16,1.46-13.3,4.1S131.52,946,134.86,946s16.6-8.8,18.59-10.15,6-6,8-6.06,4.71,5.29,6,6.62.78,13.33,1.46,15.32,16.69,1.87,21.36,1.83,16.66-.8,19.33-.16,12,.57,11.33-.75-2.72-6.65-5.39-7.29-14,.11-16.67.13-12.68-.57-13.35-1.23,2.64-3.35,4-4,14.78-10.54,16.57-12.14c5.3-4.71,5.22-14.71,5.19-18s8.67-.07,14-4.12c9.26-7.06,40.74-38.87,41-40.34.64-3.33-.2-24.67.44-28s8.34-25,9.13-26.07c2-2.69,17.93-8.82,19.26-9.5s4-5.36,3.95-6a6.79,6.79,0,0,1,.65-2S301,789.92,299.63,788.6Z"/><path class="cls-9" d="M297.74,790.78a3.92,3.92,0,0,0,2.49-.27,2.69,2.69,0,0,0-.6-1.91c-.83-.82-3.2-.86-5.51-.76a2.28,2.28,0,0,0,.65,1.67c.74.77,1.78.75,2.7,1.15Z"/><path class="cls-15" d="M267.83,787.13s-1.05,7.29.7,12S256.82,805.9,255,801.8,257.18,786.56,267.83,787.13Z"/><path class="cls-10" d="M235.65,821.79s31.68,13.75,33,13.74-.64,4-.61,7.34-1.29,5.34-5.3,4-10.67.75-13.3,5.44c-7.63,13.62-.07,32-1.89,34.36s-8.43,8.4-8.43,8.4S214.72,843.3,216,841.29,232.08,821.81,235.65,821.79Z"/><path class="cls-25" d="M171.73,760.44l-.16.18a1.54,1.54,0,0,0-.06,1.94l58.57,78a1.56,1.56,0,0,0,2.18.31h0a1.56,1.56,0,0,0,.31-2.17l-58.42-78.17A1.55,1.55,0,0,0,171.73,760.44Z"/><path class="cls-27" d="M129,762.93c6.92,9.72,1.81,93.48,1.55,97.7-1,17-13.62,15.72-22,6.77C97,855.05,93.4,788.21,92.29,777.69S128.93,762.86,129,762.93Z"/><path class="cls-22" d="M101.93,941.25c0-8.81-2.18-7.59,10.74-7.54,6.76,0,5.47-3.17,7.17,7.65.67,4.21.56,8.76,8.23,13.89s15.75,2.66,21.94,5.5c1.1.5,5.6,3.72,2.85,5.54s-28.21,3.2-32.21,2.11-16.18,2-19.94-1.07C95.45,963,101.93,951.26,101.93,941.25Z"/><path class="cls-14" d="M107.43,956.4c7.27.6,13.82-.33,20.9-1.94a7,7,0,0,0,1.51-.55c7.5,5.35,14.82,3.81,20.87,7,1.1.56,5.61,4.21,2.87,6.26s-28.21,3.56-32.21,2.31-16.18,2.22-19.94-1.25c-2.6-2.4-4.53-2.77-2.22-13.46A36.06,36.06,0,0,0,107.43,956.4Z"/><path class="cls-27" d="M128.75,850.74c-3-4.61-18.84-5.2-26.62,4.92-4.2,5.47-4.25,24.75-4,35.82.27,10.63-4.48,34.86,3.16,43.63,1.91,2.19,7.78,1.81,10.71,2,13.08.84,12-15.92,14.9-37.08C129.21,883.53,133.39,857.75,128.75,850.74Z"/><path class="cls-28" d="M150.23,750.1c-.41-8.38-8.61-1-25.75-1.83-22.68-1.07-29-7.6-32.31,8.51-5.58,26.87,8.6,42.47,30,45.65,21.78,3.23,20.81-9.24,25.36-25.78C152,760.58,150.27,750.88,150.23,750.1Z"/><path class="cls-28" d="M148.52,757.56c5.54,10.41,20.53,91.63,21.12,95.81,2.39,16.87-15.73,19.32-25.75,11.86C130.07,855,118.57,788.17,115.38,778S144.48,750,148.52,757.56Z"/><path class="cls-22" d="M142.25,938.62c.61-8.8-1.64-7.73,11.24-6.78,6.74.5,5.68-2.78,6.62,8.13.37,4.25-.05,8.78,7.24,14.44s15.53,3.75,21.51,7c1,.58,5.32,4.11,2.45,5.73S163,968.37,159,967s-16.28.86-19.81-2.45C134.27,959.89,141.55,948.6,142.25,938.62Z"/><path class="cls-14" d="M152.84,955.25a138.44,138.44,0,0,0,19.73,1.09,10.17,10.17,0,0,0,1.47-.11c5.54,2.58,11,2.59,15.51,5.34,1,.64,5.3,4.6,2.42,6.45s-28.38,1.58-32.3.06-16.29,1.08-19.8-2.64c-2.43-2.58-4.33-3.07-1.23-13.69A75.17,75.17,0,0,0,152.84,955.25Z"/><path class="cls-28" d="M169.33,853.62c-3-4.6-18.85-5.2-26.62,4.92-4.2,5.47-4.26,24.75-4,35.83.27,10.62-4.48,34.85,3.16,43.63,1.9,2.19,7.78,1.81,10.71,2,13.08.85,12-15.91,14.9-37.08C169.79,886.41,174,860.64,169.33,853.62Z"/><g id="D_Body" data-name="D Body"><path class="cls-10" d="M157.29,763.41a20,20,0,0,1-13.56,9.13c-2,.35-3.92.72-5.89,1.09-9,1.69-39,1-48-7.89-1-28.79-9.09-74-9.13-80.61-.09-15.21,15.8-51.39,34.4-44,34.1,13.58,31.49,27.29,36,63.48,2.48,19.68,9.69,35.1,8.76,54C159.86,759.2,158.68,761.18,157.29,763.41Z"/></g><path class="cls-29" d="M135.4,669.4s14.84-2.5,13-12-9.65-17.16-12.06-21.3-20.26-6.37-25.6-5.14-10,9-14.16,12.59-10,9-7.63,11.35S135.4,669.4,135.4,669.4Z"/><path class="cls-18" d="M166.46,615.66s4.25,10.07-4,17.86-4.64,14.9-14.11,19.13-7.74-1.72-10.7.09-7,14.32-7,14.32l-20.34-15.88s8.77-18.5,8.75-20.28,12.88-24.47,17.63-25.1S165.82,609.72,166.46,615.66Z"/><path class="cls-9" d="M171.79,612.65A29.18,29.18,0,0,1,153.4,617c-10.71-1.1-9.46,6.62-13.62,6.06s-3-7.7-6-7.09-7,13.73-12.36,14.37-2-19.6-.8-25,8.82-12,18.33-11.44S171.79,612.65,171.79,612.65Z"/><path class="cls-9" d="M161.67,616.64s12.55,2.52,14.85-7-6.64-12.43-10.81-14.18-8.41-10.63-17.31-8.78-13.69-3.45-17.84-1-13.61,6.65-11.78,13.17,5.71,7.38,8.71,10.33S161.67,616.64,161.67,616.64Z"/><path class="cls-10" d="M135,674.62s6.48-4.25-.75-11.28-19.28-18.75-21.71-22.28-3.86-9.84-6.72-7.53S93.9,646.46,92.27,647.78s-3.4,2.53-3.34,7.28,38.81,12.53,42.43,16Z"/><path class="cls-18" d="M157.66,748s16.66-1.11,19.6-2.12,10.82,3.84,6,10.74-9.71,11.85-12.67,9.92-18.71-8.68-18.71-8.68Z"/><path class="cls-30" d="M125.27,693s1.24-16.12-9.58-17.83-16.18,10.23-19.58,35.08-3.31,44-.43,46.46,62.83,7.52,64.47,5,5.1-17.8,3.11-19.22-40.75-5.2-42.19-6.41S125.27,693,125.27,693Z"/><path class="cls-31" d="M933,880.77a10,10,0,0,1,1.24-.07h8.55c-.33-10-1.35-21.36-4.09-27-5.55-11.49-2.22-32.26-8.13-30.71s-2.9,27.34-.89,34.7C930.73,861.37,931.91,871.46,933,880.77Z"/><path class="cls-32" d="M953.41,880.7c1.42-13,3.21-32.73,1.32-35.35-2.86-4-3.52,11.15-5.77,18.16-1.17,3.65-1.55,11-1.65,17.19Z"/><path class="cls-28" d="M961,881.5c0-.68-.31-1.22-.67-1.22H926.57c-.37,0-.67.54-.67,1.22h0c0,10.92,3,20.54,7.53,26.35-4.07,4.32-6.71,11.22-6.71,19,0,13.1,3.28,23.72,16.73,23.72,14.68,0,16.73-10.62,16.73-23.72,0-7.78-2.64-14.68-6.71-19,4.55-5.81,7.53-15.43,7.53-26.35Z"/><rect class="cls-28" x="1443.31" y="698.62" width="2.41" height="17.53" rx="1.08" transform="translate(-108.71 289.63) rotate(-11.04)"/><rect class="cls-28" x="1457.21" y="687.59" width="2.41" height="29.21" rx="1.08" transform="translate(1868.41 -863.67) rotate(78.96)"/><path class="cls-8" d="M1466,674.09c15.9-.82,28.93,3.79,29.76,19.9.42,8.08-1.93,23.33-6.89,28.88-.33,0-.5,0-.25.08a21.21,21.21,0,0,1-2.89-1.47c.33.18-1-.66-1.18-.85-.54-.45-1.07-.91-1.59-1.39s-1.28-1.26-1.91-1.91l-.41-.45a24.75,24.75,0,0,0,4.42-10.06c.7-3.66-1.16-7.81-5.38-7.79-2.63,0-4.75,1.68-6.18,3.79a58.93,58.93,0,0,0-6.42-9.08,31.25,31.25,0,0,0-15.72-9.85,2.42,2.42,0,0,1-.81-4.27A28.38,28.38,0,0,1,1466,674.09Z"/><path class="cls-11" d="M1507.9,896.5s-2.5,6.25-4,4.58c-2.2-2.55,2.88-12.89,2.88-12.89l4,2.15Z"/><path class="cls-11" d="M1500.75,856.19c-3.87-.07-6.85,1.42-6.59,6.4s-.07,11,.32,13.22c.72,4.18,4.76,8.46,9.82,12.43s4.76,8.45,4.82,12.29c0,2.54-.36,5.34.12,7.66.2.95,1.23,2.78,2.61,2.21a1.39,1.39,0,0,0,.75-1l.57-4.59a8,8,0,0,0,.87,4.69,5.27,5.27,0,0,0,1.36,1.58,2,2,0,0,0,3.17-1.74c-.67-6.17-2.18-18.35-3.94-21.48-2.38-4.22-6.13-9.56-6.72-22.16C1507.59,858.59,1505.94,856.29,1500.75,856.19Z"/><path class="cls-11" d="M1494.73,873s-.19,6.65,1.19,11.19,2.46,13.55,5.28,13.8,1.54-7.62,1.59-9.29,1.74-8.77,1.74-8.77Z"/><path class="cls-17" d="M1499.16,769.74s13.48,41,14.4,54.27.8,39.62-1.33,40.29-16.82,2.74-18.1,1.86-2.88-35.56-3.08-40.66-14.92-37.52-12.67-43.38S1484.83,766.11,1499.16,769.74Z"/><path class="cls-14" d="M565.38,748.4a16.07,16.07,0,0,0,7,4.61l7.91,2.77,3.9,1.36a25.67,25.67,0,0,0,3.61,1.15l1.36.26c.56.26,1,.46,1.3.58a4.37,4.37,0,0,0,.88.31c.89.21,1.79.4,2.69.56h8.8a16.5,16.5,0,0,0,3.63-1.32l3.4-2.31a16.07,16.07,0,0,0,4.61-7l5.07-15.26,1.44-4.33a17.93,17.93,0,0,0-.94-12.28l-2.31-3.4a11.94,11.94,0,0,0-5.09-3.67,8.1,8.1,0,0,0-4.07-1.33,11.94,11.94,0,0,0-6.28,0l-3.87,1.38a16.08,16.08,0,0,0-6.14,5.46q-2.27,4.23-4.51,8.46l-1.87-.66-3.52-1.22a16.53,16.53,0,0,0-20.29,10.29c-.26,1.41-.52,2.83-.79,4.24a16.06,16.06,0,0,0,1.73,8Z"/><path class="cls-7" d="M549.25,759s1.16,3.7,9,5.08a103,103,0,0,0,21.3.64c4.9-.41,8.38-.67,8.51-4.34.19-5.65-14.6-5.29-19.47-5.93s-15.48-4.93-18.09-3.86S548,755.63,549.25,759Z"/><path class="cls-7" d="M594.54,762.16c1.94-1,6.08-5.56,6.1-8.4,0-2-2.24-6.71-3.72-5-2.26,2.57-8,4.35-8,4.35-2,.75-11.54,3.88-7.93,9.84C582.53,765.53,592,763.5,594.54,762.16Z"/><path class="cls-7" d="M592.27,749.55c.81.87,0,3.25-1.82,5.26s-2,6.07-5.14,2.8c-2.4-2.46,1.26-3.52,3.05-5.52S590.9,748.06,592.27,749.55Z"/><path class="cls-15" d="M1124.72,920.18l11.46-.25s1.48-7.4,6.41-6.69,22.45,15.08,26.58,16.63,18.92,3.68,17.37,7.81-43.42.12-46.69.2l-22.93.49Z"/><path class="cls-22" d="M1172.39,927.34s-2.92,16.45-2.9,17.27-14-1.34-14-1.34l3.62-22.2Z"/><path class="cls-22" d="M1189.86,935.32h0a2.2,2.2,0,0,1-3.06,1.2l-45.13-22.83a2.21,2.21,0,0,1-.76-3.31l.44-.58a2.21,2.21,0,0,1,2.78-.61l44.69,23.41A2.19,2.19,0,0,1,1189.86,935.32Z"/><path class="cls-33" d="M1021.11,919.87l53.63-1.16c-2.19,1.16-3.15,1.87-2.08,1.85,4.91-.11,60.58-2.13,61.4-2.15s3,27,.58,27-107.24,4-114-3.26c-4.57-4.92-5.45-14.84-4.05-23A12.87,12.87,0,0,0,1021.11,919.87Z"/><path class="cls-15" d="M1119.12,943.46l11.46-.24s1.48-7.41,6.41-6.7,22.45,15.08,26.58,16.63,18.93,3.69,17.38,7.82-43.42.12-46.7.19l-22.93.5Z"/><path class="cls-22" d="M1166.79,950.62s-2.92,16.45-2.9,17.27-14-1.33-14-1.33l3.62-22.2Z"/><path class="cls-22" d="M1184.27,958.61h0a2.2,2.2,0,0,1-3.06,1.19L1136.07,937a2.21,2.21,0,0,1-.76-3.31l.45-.57a2.19,2.19,0,0,1,2.77-.62l44.7,23.41A2.22,2.22,0,0,1,1184.27,958.61Z"/><path class="cls-17" d="M1110.55,850.25s-53.48,27.38-55.91,29.07,1.87,10.61.34,15.56-42.07,24.67-46.82,32.14-6,25.53.71,32.76,111.49,3.32,113.95,3.27.23-27-.58-27-56.49,2.05-61.4,2.15,33.25-15.47,38.08-19.67S1137.78,897.18,1110.55,850.25Z"/><path class="cls-14" d="M1003.71,833.14l11.62-26a3.46,3.46,0,0,0-1.75-4.58L985.7,790.1a3.47,3.47,0,0,0-4.58,1.75l-9.36,20.94a3.48,3.48,0,0,0,1.21,4.28l25.62,17.52A3.46,3.46,0,0,0,1003.71,833.14Z"/><path class="cls-14" d="M996.3,805.76a11.92,11.92,0,1,0-6-15.75A11.92,11.92,0,0,0,996.3,805.76Zm1.57-3.51a8.08,8.08,0,1,1,10.66-4.08A8.07,8.07,0,0,1,997.87,802.25Z"/><rect class="cls-14" x="968.29" y="804.69" width="3.55" height="52.55" rx="1.77" transform="translate(1352.41 -387.78) rotate(66.83)"/><path class="cls-15" d="M1024.78,795.58a37.78,37.78,0,0,1-9.77-1.16c-4-1.24-11.82-2.28-12-4.75s6.68-1.27,8.13-1.3,7.69-1.43,7.69-1.43Z"/><path class="cls-15" d="M1040.6,717.21s-9,14.4-2.24,21.53c7.58,8-2.17,17.09,12.36,24.46,10,5.06,8.06-1.72,11.21.27s11,17.47,11,17.47l22.16-16.74s-9.11-20.06-9.07-22-13.44-26.56-18.54-27.33S1041.4,710.83,1040.6,717.21Z"/><path class="cls-15" d="M1036.35,786.28s-22.24-8.31-26.51-10.13-10.43,3.2-9.67,7.53,10.8,7.75,10.8,7.75l21.64,6.84Z"/><polygon class="cls-15" points="1033.28 785.7 1057.43 790.36 1055.04 806.31 1027.27 796.63 1033.28 785.7"/><path class="cls-18" d="M1092.29,757.3s16.45-2.19,17.41,29.76,11.77,84.88,14.25,89.25-7.17,11.05-19.21,9-52.78,5.64-57.9,2.93,2.27-94,9.52-108.53S1092.29,757.3,1092.29,757.3Z"/><path class="cls-10" d="M1039.1,716.44s12.79-12.64,25.78-10c24,4.83,28.2,36.86,29.45,44s12.92-6.08,19.19-1.67,3.35,8.59.44,11.36,17.54,8.23,11.66,16.6-13.56,3.22-14.4,8.88-3.84,12-10.15,9-10-25.79-16.27-31.61-15.46-6.05-17.43-12.48,2-23.37-3-23.49-6,14.76-8.81,12.56-11.7-15.18-13.79-16.65S1035.48,719.19,1039.1,716.44Z"/><path class="cls-15" d="M1063.91,837.86c-3.19,10.75-12.36,12.73-22.06,16.65-10.26,4.16-30.65,13.39-31.78,6s13.32-10.1,22.74-16.68c5.31-3.71,17.82-9.81,21.62-12.33C1057.58,829.43,1067.33,826.33,1063.91,837.86Z"/><path class="cls-15" d="M995.48,860s-4.31,4-2.48,4.67c2.77,1,9.58-6.43,9.58-6.43l-3-2.53Z"/><path class="cls-15" d="M1030.58,853.08c1.28,3.14,1,6-3.13,7.4s-8.9,3.53-10.87,3.93c-3.63.74-8.4-1.2-13.23-4.06s-8.4-1.19-11.54,0c-2.09.77-4.24,2-6.28,2.33-.84.14-2.66-.12-2.63-1.42a1.21,1.21,0,0,1,.58-.93l3.56-1.92a7,7,0,0,1-4.09.78,4.85,4.85,0,0,1-1.72-.61,1.71,1.71,0,0,1,.41-3.13c5.24-1.41,15.64-4,18.74-3.61,4.2.6,9.74,2,20.19-1.55C1026.45,848.28,1028.85,848.89,1030.58,853.08Z"/><path class="cls-15" d="M1018.81,863.32a37.92,37.92,0,0,1-9.5,2.58c-4.13.31-11.82,2.29-12.91.07s5.71-3.67,7.05-4.24,6.6-4.2,6.6-4.2Z"/><path class="cls-15" d="M1077.9,811.61c2.13-8.51,9.2-24.64-2.72-29.39-10.86-4.33-15.44,20.15-18.18,26.78-6.33,15.29-16.77,39.33-6.77,40.68C1062.83,851.4,1076.65,816.59,1077.9,811.61Z"/><path class="cls-8" d="M747.52,616s-7,7.2-15.87,7.94c-4.86.4-5.4,7.1-6.59,10.73-1,3-2.63-4.59-4.59-4.59-.43,0-2.27,1.46-2,3.94.24,1.94,3.11,7.39,3.28,7.87.68,2,3.63,4.42,4.59,6.55,1.69,3.78,1.07,6.85-1.31,6.56-1.61-.19-12.48,0-14.43,0-3.74.1-.81-10.43.66-22.95,1.43-12.18,4.62-25.28,7.87-28.2,6.55-5.9,11.93-10.37,20.79-10.56s12.74,5.17,16.06,6.28,8.86,3.69,11.45,9.23c1.88,4,3.46,21.14,4.16,32.43.26,4.22.75,8.84,0,10.49-1.73,3.81-3,3.31-7.21,3.28-2.53,0-7.63-.16-7.87-.65-.45-.89-.42-4.61,2.62-10.5,1.57-3,1.74-2.52,2.62-4.59,2-4.59,3.28-7.87,1.32-7.87-2.75,0-3.28,4.59-4.6.66-1.51-4.55-2.86-10.33-4.52-11.62S748.26,618.62,747.52,616Z"/><ellipse class="cls-34" cx="722.11" cy="650.12" rx="6.89" ry="7.54"/><ellipse class="cls-34" cx="761.46" cy="649.8" rx="6.89" ry="7.87"/><path class="cls-11" d="M759.16,648.48a25.27,25.27,0,0,1,2-5.9c.8-1.61,1.52-2.24,2-3.28,2-4.59,2-7.87,0-7.87-2.75,0-3.28,4.59-4.6.66-1.51-4.55-2.86-10.33-4.52-11.62s-5.72-1.85-6.46-4.43c0,0-7,7.2-15.87,7.94-4.86.4-5.4,7.1-6.59,10.73-1,3-2.63-4.59-4.59-4.59-.43,0-2.27,1.46-2,3.94.24,1.94,3.11,7.39,3.28,7.87a80.39,80.39,0,0,0,3.93,9.18c2.63,4.59,7.45,6.71,7.22,10.49-.66,10.49,1.27,11.57,3.28,12.46,3.9,1.74,9.18.66,12.46,0,4.19-.84,4.61-6.9,3.93-13.77C752.23,656.46,757.85,656.35,759.16,648.48Z"/><path class="cls-14" d="M658.23,877.18c9.71,10.57,12.85,14,13.68,21,.24,3.09.13,6.89,0,12.17v.21h0c0,1.41,0,2.83.05,4.24v.18c.22,9.52,8.81,17.07,19.13,17.07H840.15a20,20,0,0,0,13.22-4.89,55.6,55.6,0,0,0,13-16.68A51.35,51.35,0,0,0,871.64,881a53.5,53.5,0,0,0-15.41-33.35h0c-8.09-8.72-11.64-12.58-13.12-17.58-.58-3.52-.43-7.88-.21-14.68v0a1.21,1.21,0,0,1,0-.19h0a51.38,51.38,0,0,0-2.56-17.89c-4.41-15.45-16-29-33-36.24-22.54-9.57-48.18-5.18-65.48,9.26h0c-16.94,13.35-17,13.31-37.44,12.84h-.23c-23.33-.6-45.9,11.44-56.28,32.22a51.21,51.21,0,0,0-3.28,38.07,54.29,54.29,0,0,0,13.59,23.7Z"/><path class="cls-35" d="M782.43,710.74s2,31,2,35S788.63,761,789,769c.57,12.26,9,17,9,17s-16.57,4.74-17.57,1.74-10-35-10-37-2.58-40.28-2.58-40.28Z"/><path class="cls-36" d="M746.43,892.74s-2,15-3,21,18,7,18,3,1-20,1-22S746.43,892.74,746.43,892.74Z"/><path class="cls-1" d="M743.43,913.74s3-6,9-5,7,1,9,8,0,16,0,21-7,13-13,11-15-6-12-15S743.43,913.74,743.43,913.74Z"/><path class="cls-37" d="M736.43,933.74s6,8,14,7,10-7,11-3-1.18,8.59-7.09,9.8-12.91.2-16.9-4.13C735.64,941.44,731.43,936.74,736.43,933.74Z"/><path class="cls-36" d="M778.4,882.8s1.28,15.07,1.6,21.15,19.08,3,18.22-1-3.33-19.75-3.76-21.7S778.4,882.8,778.4,882.8Z"/><path class="cls-1" d="M780,904s1.63-6.51,7.71-6.82,7-.54,10.51,5.87,3.45,15.62,4.53,20.51-4,14.2-10.33,13.54-15.94-2.63-14.95-12.06S780,904,780,904Z"/><path class="cls-37" d="M777.47,925s7.59,6.52,15.18,3.82,8.26-9,10.1-5.3.7,8.63-4.81,11.09-12.57,3-17.39-.39C778.37,932.68,773.24,929,777.47,925Z"/><path class="cls-38" d="M742.32,824.23S700.79,787.84,707,780s34.17-7.18,44-1.49S784.22,838,784.22,838s27.57,49.61,23.7,50.63-27.33,6.17-30.23,6.94S742.32,824.23,742.32,824.23Z"/><path class="cls-10" d="M768.92,811.64a22.86,22.86,0,0,0-15.29-19.79A20.13,20.13,0,0,0,733.29,796a1,1,0,0,1,.14.73c-1,4,1,99,1,102s42,4,42-2c0-5-4.77-59-6.44-81.62A8.19,8.19,0,0,1,768.92,811.64Z"/><path class="cls-1" d="M773.17,677.43S779,681,781,686s11,26,8,27-20,5-20,4S764.91,677.11,773.17,677.43Z"/><path class="cls-1" d="M731.43,661.74S757,660,757,662s.43,6.74,1.43,7.74S775,675,777,682c.78,2.71.56,13.71,0,25-.37,7.41-5.69,19.37-7,26-1.85,9.35.14,12.52-.57,15.74-2,9-52,6-52,6s-12-74-8-78S725,671,728,670,729.43,662.74,731.43,661.74Z"/><path class="cls-38" d="M714.43,752.74s-4-8,2-7,56-2,56,0,5,21,10,31-2,14-5,18-8,4-8,11,7,85,7,91-42,5-42,2-2-98-1-102-27.43-6.74-27-15C706.69,776.65,714.43,752.74,714.43,752.74Z"/><path class="cls-11" d="M790.2,728s5.59,2.79,3.93,4c-2.52,1.84-11.68-3.65-11.68-3.65l2.29-3.48Z"/><path class="cls-11" d="M748.45,735.42c-.37,3.57.54,5.39,5.17,5.53s14.32-2,16.44-2.19c3.92-.34,10.33-.06,14.39-4.42s6-7.45,9.57-7.21c2.35.16,4.91.74,7.09.48.89-.11,2.66-.93,2.24-2.25a1.3,1.3,0,0,0-.87-.76l-4.2-.88a7.37,7.37,0,0,0,4.39-.44,4.91,4.91,0,0,0,1.57-1.14,1.81,1.81,0,0,0-1.36-3.06c-5.75.14-17.13.6-20.14,2-4.09,1.87-9.11,3.71-20.28,7.17C754.77,730.62,748.93,730.64,748.45,735.42Z"/><path class="cls-35" d="M810.71,799.55s2.8,5.59.74,5.56c-3.12,0-7.15-9.93-7.15-9.93l3.92-1.41Z"/><path class="cls-35" d="M777,776c-2.43,2.64-4.61,6.11-1,9s10.31,10,12.12,11.11c3.34,2.08,8.3,6.15,14.16,5.09s9.29-2.33,12,0c1.79,1.54,3.48,3.54,5.38,4.64.78.45,2.69.86,3.14-.45a1.28,1.28,0,0,0-.24-1.13L819.71,801a7.45,7.45,0,0,0,3.79,2.29,5,5,0,0,0,1.93,0,1.82,1.82,0,0,0,.75-3.27c-4.69-3.33-14.06-9.79-17.31-10.5C804.48,788.61,799,788,791,780,785.31,774.31,780.26,772.47,777,776Z"/><path class="cls-11" d="M714.21,706.72s.71,24.51,3,25.36,39.12-2.52,42.2-3.18,5.09,7.83,5,9.35-31,10.44-37.13,11.77-17.68,2.46-20.66.07-7.31-10.2-8.71-14.07-5.9-29.28-5.9-29.28Z"/><path class="cls-1" d="M724.88,689.08s-7-14.63-14.2-12.93S690,709.75,688.29,716s27.87,9.35,27.87,9.35Z"/><path class="cls-10" d="M780,771.29c-19-8-42.7,3.59-47,24.37a1.27,1.27,0,0,1,.39,1.08c-1,4,1,99,1,102s42,4,42-2-7-84-7-91,5-7,8-11,10-8,5-18C781.62,775.12,780.81,773.27,780,771.29Z"/><path class="cls-8" d="M453.82,753.67c-4.65,2-8.93,4.79-13.38,7.17-4.12,2.2-8.37,4.16-12.29,6.7-3.09,2-5.39,5.09-8.56,6.91a12,12,0,0,0-.86,2.85c-.44,5.62,2.87,10.09,11.95,1.17l.41-.42.54,1.37c1.42,3.65,2.07,8.29,3,9.8,2.65,4.3,7.2,6.07,9.6-2.67a5.6,5.6,0,0,0,.43,1c2.87,4.77,7.92,6.59,10.53-4a3.76,3.76,0,0,0,.25.53c3.1,5.15,8.74,6.88,11.1-6.74C468.73,764.75,458.18,756.5,453.82,753.67Z"/><path class="cls-8" d="M458,767a28.39,28.39,0,0,1,17-6c4.7,0-18.06-5.27-18.06-5.27Z"/></svg>