<svg id="Layer_1" data-name="Layer 1" xmlns="http://www.w3.org/2000/svg" viewBox="0 0 1652 1075"><defs><style>.cls-1,.cls-18,.cls-20{fill:none;}.cls-2{fill:#fff;}.cls-3{fill:#002938;}.cls-4{fill:#7c5133;}.cls-5{fill:#fdf8f0;}.cls-6{fill:#d86644;}.cls-7{fill:#baced3;}.cls-8{fill:#d3e8ef;}.cls-9{fill:#896146;}.cls-10{fill:#ae864b;}.cls-11{fill:#e8ada3;}.cls-12{fill:#f4bf4f;}.cls-13{fill:#cea17c;}.cls-14{fill:#f2f1f0;}.cls-15{fill:#06748d;}.cls-16{fill:#cea684;}.cls-17{fill:#eab35c;}.cls-18{stroke:#f4bf4f;}.cls-18,.cls-20{stroke-miterlimit:10;stroke-width:2px;}.cls-19{fill:#2d221b;}.cls-20{stroke:#06748d;}</style></defs><path class="cls-1" d="M1135.22,635.08c47.74,0,72-7.77,95.51-15.28,21.48-6.88,43.64-14,83.41-15.26l-334.3,1.6c25.79,2.76,43,8.27,59.87,13.66C1063.19,627.31,1087.47,635.08,1135.22,635.08Z"/><path class="cls-1" d="M1135.92,747.94c-48.37,0-73-7.87-96.73-15.48-23.32-7.46-47.44-15.17-94.53-15.27-47.1.1-71.22,7.81-94.54,15.27-23.78,7.61-48.36,15.48-96.73,15.48s-72.95-7.87-96.72-15.48c-23.44-7.5-47.68-15.25-95.24-15.28s-71.8,7.78-95.24,15.28c-23.77,7.61-48.35,15.48-96.72,15.48s-73-7.87-96.73-15.48c-5.23-1.67-10.49-3.35-16.05-5l-5.56,30.77c7.86,2.11,15,4.4,22.13,6.67,23.48,7.51,47.76,15.28,95.51,15.28s72-7.77,95.5-15.28c23.69-7.58,48.18-15.41,96.19-15.47H561c48,.06,72.5,7.89,96.19,15.47,23.48,7.51,47.76,15.28,95.5,15.28s72-7.77,95.51-15.28,47.7-15.25,94.79-15.46h1.93c47.09.21,71.34,8,94.79,15.46s47.76,15.28,95.51,15.28,72-7.77,95.51-15.28c16.84-5.39,34.11-10.91,60-13.67l7-32.87c-28.81,2.48-47.17,8.34-65,14.06C1208.87,740.07,1184.29,747.94,1135.92,747.94Z"/><path class="cls-1" d="M1135.92,893.08c-48.37,0-73-7.87-96.73-15.47-23.32-7.47-47.44-15.18-94.53-15.28-47.1.1-71.22,7.81-94.54,15.28-23.78,7.6-48.36,15.47-96.73,15.47s-72.95-7.87-96.72-15.47c-23.44-7.5-47.68-15.26-95.24-15.29s-71.8,7.79-95.24,15.29c-23.77,7.6-48.35,15.47-96.72,15.47s-73-7.87-96.73-15.47c-12.39-4-25-8-41.19-10.94l-5.67,31.39c19.18,3,33.42,7.55,47.38,12,23.48,7.51,47.76,15.28,95.51,15.28s72-7.77,95.5-15.28c23.69-7.58,48.18-15.41,96.19-15.47H561c48,.06,72.5,7.89,96.19,15.47,23.48,7.51,47.76,15.28,95.5,15.28s72-7.77,95.51-15.28,47.7-15.25,94.79-15.46h1.93c47.09.21,71.34,8,94.79,15.46s47.76,15.28,95.51,15.28,72-7.77,95.51-15.28c8.76-2.81,17.65-5.65,27.79-8.11l7.19-33.68c-12.43,2.71-22.82,6-33.07,9.32C1208.87,885.21,1184.29,893.08,1135.92,893.08Z"/><path class="cls-1" d="M368.77,671.37c47.74,0,72-7.77,95.5-15.29,23.69-7.57,48.18-15.41,96.19-15.47H561c48,.06,72.5,7.9,96.19,15.47,23.48,7.52,47.76,15.29,95.5,15.29s72-7.77,95.51-15.29,47.7-15.25,94.79-15.46h1.93c47.09.21,71.34,8,94.79,15.46s47.76,15.29,95.51,15.29,72-7.77,95.51-15.29c21.5-6.88,43.67-14,83.52-15.26l6.92-32.44c-43.63.65-66.8,8-89.23,15.23-23.77,7.61-48.35,15.47-96.72,15.47s-73-7.86-96.73-15.47c-23.32-7.46-47.44-15.17-94.53-15.28-47.1.11-71.22,7.82-94.54,15.28-23.77,7.61-48.36,15.47-96.73,15.47s-73-7.86-96.72-15.47c-23.44-7.5-47.67-15.25-95.24-15.28s-71.8,7.78-95.24,15.28c-23.77,7.61-48.35,15.47-96.72,15.47-46.19,0-70.69-7.17-93.5-14.44L269.79,655l3.47,1.11C296.74,663.6,321,671.37,368.77,671.37Z"/><path class="cls-1" d="M368.77,707.65c47.74,0,72-7.77,95.5-15.28C488,684.79,512.45,677,560.46,676.9H561c48,.06,72.5,7.89,96.19,15.47,23.48,7.51,47.76,15.28,95.5,15.28s72-7.77,95.51-15.28,47.7-15.26,94.79-15.46h1.93c47.09.2,71.34,8,94.79,15.46s47.76,15.28,95.51,15.28,72-7.77,95.51-15.28c20-6.42,40.69-13,75.7-14.93l7-32.59c-38.68,1.37-60.39,8.31-81.45,15-23.77,7.61-48.35,15.48-96.72,15.48s-73-7.87-96.73-15.48c-23.32-7.46-47.44-15.17-94.53-15.27-47.1.1-71.22,7.81-94.54,15.27-23.77,7.61-48.36,15.48-96.73,15.48s-73-7.87-96.72-15.48c-23.44-7.5-47.67-15.25-95.24-15.28s-71.8,7.78-95.24,15.28c-23.77,7.61-48.35,15.48-96.72,15.48s-73-7.87-96.73-15.48l-3-.95-5.48,30.37c3.27,1,6.48,2,9.67,3.06C296.74,699.88,321,707.65,368.77,707.65Z"/><path class="cls-1" d="M464.27,619.8c13-4.17,26.31-8.41,43.61-11.4L278,609.5l-2,11.17c22.67,7.23,46.88,14.41,92.79,14.41C416.51,635.08,440.79,627.31,464.27,619.8Z"/><path class="cls-1" d="M752.69,635.08c47.75,0,72-7.77,95.51-15.28,16.13-5.16,32.64-10.44,56.69-13.3l-294.27,1.41c18.76,3,32.81,7.49,46.57,11.89C680.67,627.31,705,635.08,752.69,635.08Z"/><path class="cls-1" d="M205.93,1008.54l-3.76,20.82,86-1.82c-5.33-1.56-10.41-3.18-15.45-4.79C254.5,1016.91,235.77,1010.92,205.93,1008.54Z"/><path class="cls-1" d="M1135.22,784.22c-48.37,0-73-7.86-96.73-15.47-23.32-7.46-47.44-15.17-94.53-15.28-47.1.11-71.22,7.82-94.54,15.28-23.77,7.61-48.36,15.47-96.73,15.47s-73-7.86-96.72-15.47c-23.44-7.5-47.67-15.25-95.24-15.28s-71.8,7.78-95.24,15.28c-23.77,7.61-48.35,15.47-96.72,15.47s-73-7.86-96.73-15.47c-6.94-2.22-14-4.46-21.62-6.52L244.87,793c10.39,2.51,19.45,5.4,28.39,8.27,23.48,7.51,47.76,15.28,95.51,15.28s72-7.77,95.5-15.28c23.69-7.58,48.18-15.42,96.19-15.48H561c48,.06,72.5,7.9,96.19,15.48,23.48,7.51,47.76,15.28,95.5,15.28s72-7.77,95.51-15.28S895.9,786,943,785.76h1.93c47.09.21,71.34,8,94.79,15.47s47.76,15.28,95.51,15.28,72-7.77,95.51-15.28c15-4.82,30.45-9.74,52-12.71l7.07-33.12c-24.77,2.77-41.51,8.12-57.86,13.35C1208.17,776.36,1183.59,784.22,1135.22,784.22Z"/><path class="cls-1" d="M876,1015.11l125.38-2.65c-14.94-2.93-32.9-4.94-56.75-5C914.15,1007.54,893.28,1010.79,876,1015.11Z"/><path class="cls-1" d="M1135.22,1001.94c-48.37,0-73-7.87-96.73-15.48-23.32-7.46-47.44-15.17-94.53-15.28-47.1.11-71.22,7.82-94.54,15.28-23.77,7.61-48.36,15.48-96.73,15.48s-73-7.87-96.72-15.48c-23.44-7.5-47.67-15.25-95.24-15.28s-71.8,7.78-95.24,15.28c-23.77,7.61-48.35,15.48-96.72,15.48s-73-7.87-96.73-15.48c-16.74-5.36-33.9-10.84-59.67-13.55l-5.72,31.67c30,2.43,48.91,8.47,67.31,14.36,9,2.88,18.12,5.79,28.64,8.3L448,1024.16c5.89-1.68,11.45-3.46,17-5.22,23.69-7.58,48.18-15.41,96.19-15.47h.54c48,.06,72.5,7.89,96.19,15.47l2.3.74L860,1015.45c20.46-6.24,43.95-11.8,83.72-12h1.93c32.48.15,54.1,3.88,72.08,8.65l218.3-4.62,5.11-23.94c-3.1,1-6.14,1.93-9.17,2.9C1208.17,994.07,1183.59,1001.94,1135.22,1001.94Z"/><path class="cls-1" d="M1135.22,965.65c-48.37,0-73-7.87-96.73-15.47C1015.17,942.71,991.05,935,944,934.9c-47.1.1-71.22,7.81-94.54,15.28-23.77,7.6-48.36,15.47-96.73,15.47s-73-7.87-96.72-15.47c-23.44-7.5-47.67-15.26-95.24-15.29s-71.8,7.79-95.24,15.29c-23.77,7.6-48.35,15.47-96.72,15.47s-73-7.87-96.73-15.47c-15.31-4.9-31-9.91-53.26-12.8L213.08,969c26,2.75,43.28,8.29,60.18,13.69,23.48,7.52,47.76,15.29,95.51,15.29s72-7.77,95.5-15.29c23.69-7.58,48.18-15.41,96.19-15.47H561c48,.06,72.5,7.89,96.19,15.47,23.48,7.52,47.76,15.29,95.5,15.29s72-7.77,95.51-15.29S895.9,967.4,943,967.19h1.93c47.09.21,71.34,8,94.79,15.46s47.76,15.29,95.51,15.29,72-7.77,95.51-15.29c3.73-1.19,7.48-2.39,11.33-3.57l7.32-34.27c-6.07,1.73-11.78,3.56-17.44,5.37C1208.17,957.78,1183.59,965.65,1135.22,965.65Z"/><path class="cls-1" d="M1135.22,820.51c-48.37,0-73-7.87-96.73-15.47-23.32-7.47-47.44-15.18-94.53-15.28-47.1.1-71.22,7.81-94.54,15.28-23.77,7.6-48.36,15.47-96.73,15.47s-73-7.87-96.72-15.47c-23.44-7.5-47.67-15.26-95.24-15.29s-71.8,7.79-95.24,15.29c-23.77,7.6-48.35,15.47-96.72,15.47s-73-7.87-96.73-15.47c-8.79-2.82-17.69-5.66-27.89-8.13l-5.58,30.92a340.83,340.83,0,0,1,34.69,9.68c23.48,7.51,47.76,15.28,95.51,15.28s72-7.77,95.5-15.28C488,829.93,512.45,822.1,560.46,822H561c48,.06,72.5,7.89,96.19,15.47,23.48,7.51,47.76,15.28,95.5,15.28s72-7.77,95.51-15.28,47.7-15.25,94.79-15.46h1.93c47.09.21,71.34,8,94.79,15.46s47.76,15.28,95.51,15.28,72-7.77,95.51-15.28c13.12-4.2,26.5-8.48,44-11.47l7.12-33.34c-20.52,2.94-35.36,7.69-49.9,12.34C1208.17,812.64,1183.59,820.51,1135.22,820.51Z"/><path class="cls-1" d="M466.19,1022.75l-3.45,1.1,185-3.91c-21-6.51-44.74-12.45-86.36-12.47C513.86,1007.49,489.63,1015.25,466.19,1022.75Z"/><path class="cls-1" d="M369.47,743.94c47.74,0,72-7.77,95.5-15.29,23.69-7.57,48.18-15.41,96.19-15.47h.54c48,.06,72.5,7.9,96.19,15.47,23.48,7.52,47.76,15.29,95.5,15.29s72-7.77,95.51-15.29,47.7-15.25,94.79-15.46h1.93c47.09.21,71.34,8,94.79,15.46s47.76,15.29,95.51,15.29,72-7.77,95.5-15.29c18.37-5.87,37.23-11.9,67.15-14.34l7-32.81c-33.87,2-54,8.41-73.63,14.68-23.77,7.61-48.35,15.47-96.72,15.47s-73-7.86-96.73-15.47C1015.17,688.72,991.05,681,944,680.9c-47.1.11-71.22,7.82-94.54,15.28-23.77,7.61-48.36,15.47-96.73,15.47s-73-7.86-96.72-15.47c-23.44-7.5-47.67-15.25-95.24-15.28s-71.8,7.78-95.24,15.28c-23.77,7.61-48.35,15.47-96.72,15.47s-73-7.86-96.73-15.47c-3-1-6.07-1.94-9.17-2.9l-5.47,30.26c5.74,1.65,11.17,3.39,16.56,5.11C297.44,736.17,321.72,743.94,369.47,743.94Z"/><path class="cls-1" d="M1135.22,856.79c-48.37,0-73-7.86-96.73-15.47-23.32-7.46-47.44-15.17-94.53-15.28-47.1.11-71.22,7.82-94.54,15.28-23.77,7.61-48.36,15.47-96.73,15.47s-73-7.86-96.72-15.47c-23.44-7.5-47.67-15.25-95.24-15.28s-71.8,7.78-95.24,15.28c-23.77,7.61-48.35,15.47-96.72,15.47s-73-7.86-96.73-15.47a338.78,338.78,0,0,0-34.18-9.55l-5.6,31c16.38,3,29.15,7,41.7,11.07,23.48,7.51,47.76,15.28,95.51,15.28s72-7.77,95.5-15.28c23.69-7.58,48.18-15.42,96.19-15.48h.54c48,.06,72.5,7.9,96.19,15.48,23.48,7.51,47.76,15.28,95.5,15.28s72-7.77,95.51-15.28,47.7-15.26,94.79-15.47h1.93c47.09.21,71.34,8,94.79,15.47s47.76,15.28,95.51,15.28,72-7.77,95.5-15.28a339.5,339.5,0,0,1,35.2-9.8l7.2-33.73c-16.5,2.93-29.31,7-41.88,11.05C1208.17,848.93,1183.59,856.79,1135.22,856.79Z"/><path class="cls-1" d="M1135.22,929.36c-48.37,0-73-7.86-96.73-15.47-23.32-7.46-47.44-15.17-94.53-15.28-47.1.11-71.22,7.82-94.54,15.28-23.77,7.61-48.36,15.47-96.73,15.47s-73-7.86-96.72-15.47c-23.44-7.5-47.67-15.25-95.24-15.28s-71.8,7.78-95.24,15.28c-23.77,7.61-48.35,15.47-96.72,15.47s-73-7.86-96.73-15.47c-13.81-4.42-27.9-8.92-46.87-11.89l-5.67,31.43c22.48,2.93,38.29,8,53.76,12.94,23.48,7.51,47.76,15.28,95.51,15.28s72-7.77,95.5-15.28C488,938.79,512.45,931,560.46,930.9H561c48,.05,72.5,7.89,96.19,15.47,23.48,7.51,47.76,15.28,95.5,15.28s72-7.77,95.51-15.28S895.9,931.11,943,930.9h1.93c47.09.21,71.34,8,94.79,15.47s47.76,15.28,95.51,15.28,72-7.77,95.51-15.28c6.32-2,12.71-4.07,19.59-6l7.27-34.07c-9.27,2.33-17.51,5-25.65,7.57C1208.17,921.5,1183.59,929.36,1135.22,929.36Z"/><path class="cls-2" d="M465.49,623.61c23.44-7.5,47.67-15.25,95.24-15.28h-.27v-.18l-52.58.25c-17.3,3-30.58,7.23-43.61,11.4-23.48,7.51-47.76,15.28-95.5,15.28-45.91,0-70.12-7.18-92.79-14.41l-.71,4c22.81,7.27,47.31,14.44,93.5,14.44C417.14,639.08,441.72,631.22,465.49,623.61Z"/><path class="cls-2" d="M560.73,608.33c47.57,0,71.8,7.78,95.24,15.28,23.77,7.61,48.35,15.47,96.72,15.47s73-7.86,96.73-15.47c23.32-7.46,47.44-15.17,94.54-15.28h-1v-2l-38.1.18c-24,2.86-40.56,8.14-56.69,13.3-23.48,7.51-47.76,15.28-95.51,15.28s-72-7.77-95.5-15.28c-13.76-4.4-27.81-8.89-46.57-11.89l-50.16.24v.18Z"/><path class="cls-2" d="M944,608.33c47.09.11,71.21,7.82,94.53,15.28,23.78,7.61,48.36,15.47,96.73,15.47s73-7.86,96.72-15.47c22.43-7.18,45.6-14.58,89.23-15.23l.83-3.88-7.86,0c-39.77,1.3-61.93,8.38-83.41,15.26-23.48,7.51-47.77,15.28-95.51,15.28s-72-7.77-95.51-15.28c-16.83-5.39-34.08-10.9-59.87-13.66l-36.85.18v2Z"/><path class="cls-2" d="M368.77,675.37c48.37,0,73-7.87,96.72-15.48,23.44-7.5,47.67-15.25,95.24-15.28h-.27v-4c-48,.06-72.5,7.9-96.19,15.47-23.48,7.52-47.76,15.29-95.5,15.29s-72-7.77-95.51-15.29L269.79,655l-.72,4,3,.95C295.81,667.5,320.4,675.37,368.77,675.37Z"/><path class="cls-2" d="M561,640.61h0Z"/><path class="cls-2" d="M944.92,640.61h0Z"/><path class="cls-2" d="M943,640.62c-47.09.21-71.34,8-94.79,15.46s-47.76,15.29-95.51,15.29-72-7.77-95.5-15.29C633.5,648.51,609,640.67,561,640.61h-.54v4h.27c47.57,0,71.8,7.78,95.24,15.28,23.77,7.61,48.35,15.48,96.72,15.48s73-7.87,96.73-15.48c23.32-7.46,47.44-15.17,94.54-15.27h-1Z"/><path class="cls-2" d="M1135.22,671.37c-47.75,0-72-7.77-95.51-15.29s-47.7-15.25-94.79-15.46H943v4h1c47.09.1,71.21,7.81,94.53,15.27,23.78,7.61,48.36,15.48,96.73,15.48s73-7.87,96.72-15.48c21.06-6.73,42.77-13.67,81.45-15l.86-4c-39.85,1.29-62,8.38-83.52,15.26C1207.25,663.6,1183,671.37,1135.22,671.37Z"/><path class="cls-2" d="M368.77,711.65c48.37,0,73-7.86,96.72-15.47,23.44-7.5,47.67-15.25,95.24-15.28h-.27v-4c-48,.06-72.5,7.89-96.19,15.47-23.48,7.51-47.76,15.28-95.5,15.28s-72-7.77-95.51-15.28c-3.19-1-6.4-2-9.67-3.06l-.72,4c3.1,1,6.14,1.93,9.17,2.9C295.81,703.79,320.4,711.65,368.77,711.65Z"/><path class="cls-2" d="M561,676.9h0Z"/><path class="cls-2" d="M943,676.91c-47.09.2-71.34,8-94.79,15.46s-47.76,15.28-95.51,15.28-72-7.77-95.5-15.28C633.5,684.79,609,677,561,676.9h-.54v4h.27c47.57,0,71.8,7.78,95.24,15.28,23.77,7.61,48.35,15.47,96.72,15.47s73-7.86,96.73-15.47C872.74,688.72,896.86,681,944,680.9h-1Z"/><path class="cls-2" d="M944.92,676.9h0Z"/><path class="cls-2" d="M1135.22,707.65c-47.75,0-72-7.77-95.51-15.28s-47.7-15.26-94.79-15.46H943v4h1c47.09.11,71.21,7.82,94.53,15.28,23.78,7.61,48.36,15.47,96.73,15.47s73-7.86,96.72-15.47c19.6-6.27,39.76-12.71,73.63-14.68l.86-4.06c-35,1.91-55.65,8.51-75.7,14.93C1207.25,699.88,1183,707.65,1135.22,707.65Z"/><path class="cls-2" d="M369.47,747.94c48.37,0,72.95-7.87,96.72-15.48,23.44-7.5,47.67-15.25,95.24-15.28h-.27v-4c-48,.06-72.5,7.9-96.19,15.47-23.48,7.52-47.76,15.29-95.5,15.29s-72-7.77-95.51-15.29c-5.39-1.72-10.82-3.46-16.56-5.11l-.71,4c5.56,1.61,10.82,3.29,16.05,5C296.51,740.07,321.1,747.94,369.47,747.94Z"/><path class="cls-2" d="M561.7,713.18h0Z"/><path class="cls-2" d="M753.39,743.94c-47.74,0-72-7.77-95.5-15.29-23.69-7.57-48.18-15.41-96.19-15.47h-.54v4h.27c47.56,0,71.8,7.78,95.24,15.28,23.77,7.61,48.35,15.48,96.72,15.48s73-7.87,96.73-15.48c23.32-7.46,47.44-15.17,94.54-15.27h-1v-4c-47.09.21-71.34,8-94.79,15.46S801.14,743.94,753.39,743.94Z"/><path class="cls-2" d="M944.66,713.19h0Z"/><path class="cls-2" d="M1231.42,728.65c-23.48,7.52-47.76,15.29-95.5,15.29s-72-7.77-95.51-15.29-47.7-15.25-94.79-15.46h-1.93v4h1c47.09.1,71.21,7.81,94.53,15.27,23.78,7.61,48.36,15.48,96.73,15.48s72.95-7.87,96.72-15.48c17.88-5.72,36.24-11.58,65-14.06l.88-4.09C1268.65,716.75,1249.79,722.78,1231.42,728.65Z"/><path class="cls-2" d="M368.77,784.22c48.37,0,73-7.86,96.72-15.47,23.44-7.5,47.67-15.25,95.24-15.28h-.27v-4c-48,.06-72.5,7.89-96.19,15.47-23.48,7.51-47.76,15.28-95.5,15.28s-72-7.77-95.51-15.28c-7.1-2.27-14.27-4.56-22.13-6.67l-.71,4c7.66,2.06,14.68,4.3,21.62,6.52C295.81,776.36,320.4,784.22,368.77,784.22Z"/><path class="cls-2" d="M561,749.47h0Z"/><path class="cls-2" d="M944.92,749.47h0Z"/><path class="cls-2" d="M560.73,753.47c47.57,0,71.8,7.78,95.24,15.28,23.77,7.61,48.35,15.47,96.72,15.47s73-7.86,96.73-15.47c23.32-7.46,47.44-15.17,94.54-15.28h-1v-4c-47.09.21-71.34,8-94.79,15.46s-47.76,15.28-95.51,15.28-72-7.77-95.5-15.28C633.5,757.36,609,749.53,561,749.47h-.54v4Z"/><path class="cls-2" d="M1135.22,780.22c-47.75,0-72-7.77-95.51-15.28s-47.7-15.25-94.79-15.46H943v4h1c47.09.11,71.21,7.82,94.53,15.28,23.78,7.61,48.36,15.47,96.73,15.47s73-7.86,96.72-15.47c16.35-5.23,33.09-10.58,57.86-13.35l.88-4.13c-25.84,2.76-43.11,8.28-60,13.67C1207.25,772.45,1183,780.22,1135.22,780.22Z"/><path class="cls-2" d="M561,785.75h0Z"/><path class="cls-2" d="M368.77,820.51c48.37,0,73-7.87,96.72-15.47,23.44-7.5,47.67-15.26,95.24-15.29h-.27v-4c-48,.06-72.5,7.9-96.19,15.48-23.48,7.51-47.76,15.28-95.5,15.28s-72-7.77-95.51-15.28c-8.94-2.87-18-5.76-28.39-8.27l-.72,3.95c10.2,2.47,19.1,5.31,27.89,8.13C295.81,812.64,320.4,820.51,368.77,820.51Z"/><path class="cls-2" d="M944.92,785.75h0Z"/><path class="cls-2" d="M560.73,789.75c47.57,0,71.8,7.79,95.24,15.29,23.77,7.6,48.35,15.47,96.72,15.47s73-7.87,96.73-15.47c23.32-7.47,47.44-15.18,94.54-15.28h-1v-4c-47.09.21-71.34,8-94.79,15.47s-47.76,15.28-95.51,15.28-72-7.77-95.5-15.28C633.5,793.65,609,785.81,561,785.75h-.54v4Z"/><path class="cls-2" d="M1135.22,816.51c-47.75,0-72-7.77-95.51-15.28S992,786,944.92,785.76H943v4h1c47.09.1,71.21,7.81,94.53,15.28,23.78,7.6,48.36,15.47,96.73,15.47s73-7.87,96.72-15.47c14.54-4.65,29.38-9.4,49.9-12.34l.89-4.18c-21.55,3-37,7.89-52,12.71C1207.25,808.74,1183,816.51,1135.22,816.51Z"/><path class="cls-2" d="M368.77,856.79c48.37,0,73-7.86,96.72-15.47,23.44-7.5,47.67-15.25,95.24-15.28h-.27v-4c-48,.06-72.5,7.89-96.19,15.47-23.48,7.51-47.76,15.28-95.5,15.28s-72-7.77-95.51-15.28a340.83,340.83,0,0,0-34.69-9.68l-.71,3.94A338.78,338.78,0,0,1,272,841.32C295.81,848.93,320.4,856.79,368.77,856.79Z"/><path class="cls-2" d="M561,822h0Z"/><path class="cls-2" d="M944.92,822h0Z"/><path class="cls-2" d="M560.73,826c47.57,0,71.8,7.78,95.24,15.28,23.77,7.61,48.35,15.47,96.72,15.47s73-7.86,96.73-15.47c23.32-7.46,47.44-15.17,94.54-15.28h-1v-4c-47.09.21-71.34,8-94.79,15.46s-47.76,15.28-95.51,15.28-72-7.77-95.5-15.28C633.5,829.93,609,822.1,561,822h-.54v4Z"/><path class="cls-2" d="M1135.22,852.79c-47.75,0-72-7.77-95.51-15.28s-47.7-15.25-94.79-15.46H943v4h1c47.09.11,71.21,7.82,94.53,15.28,23.78,7.61,48.36,15.47,96.73,15.47s73-7.86,96.72-15.47c12.57-4,25.38-8.12,41.88-11.05l.9-4.23c-17.49,3-30.87,7.27-44,11.47C1207.25,845,1183,852.79,1135.22,852.79Z"/><path class="cls-2" d="M369.47,893.08c48.37,0,72.95-7.87,96.72-15.47,23.44-7.5,47.67-15.26,95.24-15.29h-.27v-4c-48,.06-72.5,7.9-96.19,15.48-23.48,7.51-47.76,15.28-95.5,15.28s-72-7.77-95.51-15.28c-12.55-4-25.32-8.1-41.7-11.07l-.71,3.94c16.18,2.93,28.8,7,41.19,10.94C296.51,885.21,321.1,893.08,369.47,893.08Z"/><path class="cls-2" d="M561.7,858.32h0Z"/><path class="cls-2" d="M945.62,858.32h0Z"/><path class="cls-2" d="M561.43,862.32c47.56,0,71.8,7.79,95.24,15.29,23.77,7.6,48.35,15.47,96.72,15.47s73-7.87,96.73-15.47c23.32-7.47,47.44-15.18,94.54-15.28h-1v-4c-47.09.21-71.34,8-94.79,15.47s-47.76,15.28-95.51,15.28-72-7.77-95.5-15.28c-23.69-7.58-48.18-15.42-96.19-15.48h-.54v4Z"/><path class="cls-2" d="M1135.92,889.08c-47.75,0-72-7.77-95.51-15.28s-47.7-15.26-94.79-15.47h-1.93v4h1c47.09.1,71.21,7.81,94.53,15.28,23.78,7.6,48.36,15.47,96.73,15.47s72.95-7.87,96.72-15.47c10.25-3.28,20.64-6.61,33.07-9.32l.91-4.29a339.5,339.5,0,0,0-35.2,9.8C1207.94,881.31,1183.66,889.08,1135.92,889.08Z"/><path class="cls-2" d="M368.77,929.36c48.37,0,73-7.86,96.72-15.47,23.44-7.5,47.67-15.25,95.24-15.28h-.27v-4c-48,.06-72.5,7.89-96.19,15.47-23.48,7.51-47.76,15.28-95.5,15.28s-72-7.77-95.51-15.28c-14-4.47-28.2-9-47.38-12l-.71,3.94c19,3,33.06,7.47,46.87,11.89C295.81,921.5,320.4,929.36,368.77,929.36Z"/><path class="cls-2" d="M561,894.61h0Z"/><path class="cls-2" d="M944.92,894.61h0Z"/><path class="cls-2" d="M560.73,898.61c47.57,0,71.8,7.78,95.24,15.28,23.77,7.61,48.35,15.47,96.72,15.47s73-7.86,96.73-15.47c23.32-7.46,47.44-15.17,94.54-15.28h-1v-4c-47.09.21-71.34,8-94.79,15.46s-47.76,15.28-95.51,15.28-72-7.77-95.5-15.28C633.5,902.5,609,894.67,561,894.61h-.54v4Z"/><path class="cls-2" d="M1135.22,925.36c-47.75,0-72-7.77-95.51-15.28s-47.7-15.25-94.79-15.46H943v4h1c47.09.11,71.21,7.82,94.53,15.28,23.78,7.61,48.36,15.47,96.73,15.47s73-7.86,96.72-15.47c8.14-2.6,16.38-5.24,25.65-7.57l.93-4.35c-10.14,2.46-19,5.3-27.79,8.11C1207.25,917.59,1183,925.36,1135.22,925.36Z"/><path class="cls-2" d="M368.77,965.65c48.37,0,73-7.87,96.72-15.47,23.44-7.5,47.67-15.26,95.24-15.29h-.27v-4c-48,.05-72.5,7.89-96.19,15.47-23.48,7.51-47.76,15.28-95.5,15.28s-72-7.77-95.51-15.28c-15.47-5-31.28-10-53.76-12.94l-.72,4c22.29,2.89,38,7.9,53.26,12.8C295.81,957.78,320.4,965.65,368.77,965.65Z"/><path class="cls-2" d="M561,930.89h0Z"/><path class="cls-2" d="M944.92,930.89h0Z"/><path class="cls-2" d="M560.73,934.89c47.57,0,71.8,7.79,95.24,15.29,23.77,7.6,48.35,15.47,96.72,15.47s73-7.87,96.73-15.47C872.74,942.71,896.86,935,944,934.9h-1v-4c-47.09.21-71.34,8-94.79,15.47s-47.76,15.28-95.51,15.28-72-7.77-95.5-15.28C633.5,938.79,609,931,561,930.9h-.54v4Z"/><path class="cls-2" d="M1135.22,961.65c-47.75,0-72-7.77-95.51-15.28S992,931.11,944.92,930.9H943v4h1c47.09.1,71.21,7.81,94.53,15.28,23.78,7.6,48.36,15.47,96.73,15.47s73-7.87,96.72-15.47c5.66-1.81,11.37-3.64,17.44-5.37l.94-4.42c-6.88,1.91-13.27,4-19.59,6C1207.25,953.88,1183,961.65,1135.22,961.65Z"/><path class="cls-2" d="M368.77,1001.94c48.37,0,73-7.87,96.72-15.48,23.44-7.5,47.67-15.25,95.24-15.28h-.27v-4c-48,.06-72.5,7.89-96.19,15.47-23.48,7.52-47.76,15.29-95.5,15.29s-72-7.77-95.51-15.29c-16.9-5.4-34.21-10.94-60.18-13.69l-.71,3.95c25.77,2.71,42.93,8.19,59.67,13.55C295.81,994.07,320.4,1001.94,368.77,1001.94Z"/><path class="cls-2" d="M561,967.18h0Z"/><path class="cls-2" d="M944.92,967.18h0Z"/><path class="cls-2" d="M560.73,971.18c47.57,0,71.8,7.78,95.24,15.28,23.77,7.61,48.35,15.48,96.72,15.48s73-7.87,96.73-15.48c23.32-7.46,47.44-15.17,94.54-15.28h-1v-4c-47.09.21-71.34,8-94.79,15.46s-47.76,15.29-95.51,15.29-72-7.77-95.5-15.29C633.5,975.07,609,967.24,561,967.18h-.54v4Z"/><path class="cls-2" d="M1135.22,997.94c-47.75,0-72-7.77-95.51-15.29S992,967.4,944.92,967.19H943v4h1c47.09.11,71.21,7.82,94.53,15.28,23.78,7.61,48.36,15.48,96.73,15.48s73-7.87,96.72-15.48c3-1,6.07-1.94,9.17-2.9l1-4.48c-3.85,1.18-7.6,2.38-11.33,3.57C1207.25,990.17,1183,997.94,1135.22,997.94Z"/><path class="cls-2" d="M945.62,1003.46h0Z"/><path class="cls-3" d="M904,341.64c8.72,3.35,16.74,5.69,24.08,9.37,43.12,21.65,69,56.19,76.53,104.06,2.35,14.87.81,29.7-.74,44.52-.44,4.25-.65,8.52-1,12.78a53.79,53.79,0,0,0,9.53,35.4c8.15,11.76,16.92,23.11,24.63,35.14,17.9,28,24.69,58.61,19.24,91.37-8.28,49.85-36.29,84.64-82.69,104.36-22,9.34-45.11,11-68.68,8.29-6.53-.75-13.1-1.11-19.65-1.7-14.09-1.25-26.7,2.73-38.13,10.83-10.54,7.47-20.85,15.3-31.63,22.41-70.21,46.34-166.46,15.71-197.24-62.63a134.61,134.61,0,0,1-8.46-65.57c1-8.59,1.45-17.25,2-25.89.83-13.69-4.12-25.56-11.91-36.44-7.24-10.14-15.07-19.89-21.83-30.33-44.82-69.22-15.91-163.07,60-195.47A135.21,135.21,0,0,1,705.77,392c4.79.48,4.78.51,4.78,5.34q0,100.44,0,200.87c0,19.43,5.1,37.1,14.47,54.13,17.59,32,60.22,52.93,101.41,43.87,39.27-8.64,64.34-33.13,74.76-72,2.14-8,2.72-16.65,2.74-25q.3-125.72.12-251.43Z"/><path class="cls-4" d="M520.83,438.67s.07-8.26-1.74-13.85-3.36-16.76-6.87-17-1.73,9.48-1.75,11.55-2,10.93-2,10.93Z"/><path class="cls-4" d="M479.29,460.25s7.92-2.7,7.51,0c-.62,4.13-14.46,7.69-14.46,7.69l-1.17-5.45Z"/><path class="cls-4" d="M447.1,499.55c3.07,3.7,6.87,5.3,11.36,1s10.37-8.78,12.19-11c3.36-4.05,4.12-11.32,3.77-19.28s4.12-11.32,7.68-14.48c2.36-2.09,5.32-4,7.12-6.3.73-1,1.62-3.4,0-4.25a1.73,1.73,0,0,0-1.55.12l-4.79,3.17a9.9,9.9,0,0,0,3.71-4.61,6.52,6.52,0,0,0,.4-2.56,2.43,2.43,0,0,0-4.2-1.58c-5.27,5.62-15.53,16.89-17.05,21.06-2.06,5.66-4,13.5-15.45,24.24C443.84,491.17,443,494.59,447.1,499.55Z"/><path class="cls-4" d="M467.79,491.65s6.42-5.2,9.58-10.16,10.78-13.27,8.73-16.12-8.42,4.7-10,6-9.67,5.45-9.67,5.45Z"/><path class="cls-3" d="M392.32,540.92c2,5.22,3.61,10.53,5.88,15.62a56.53,56.53,0,0,1,3.42,10.19c12.59-12.76,66.2-68.05,65.83-70.22-.41-2.4-11.84-11.54-16.34-12.62s-55.54,50.19-58.93,52c-.55.29-1.06.61-1.56.93C391.22,538.18,391.8,539.54,392.32,540.92Z"/><path class="cls-4" d="M513.74,459.65c4.81,0,8.46-1.92,8-8.1s-.17-13.59-.7-16.39c-1-5.17-6.11-10.38-12.47-15.19s-6.1-10.38-6.27-15.13c-.1-3.16.33-6.64-.32-9.51-.27-1.17-1.59-3.42-3.29-2.68a1.71,1.71,0,0,0-.9,1.26l-.6,5.72a9.94,9.94,0,0,0-1.19-5.8,6.74,6.74,0,0,0-1.72-1.93,2.43,2.43,0,0,0-3.9,2.23c1,7.64,3.13,22.72,5.38,26.56,3,5.19,7.83,11.72,8.84,27.34C505.21,456.83,507.31,459.65,513.74,459.65Z"/><polygon class="cls-5" points="397.46 862.45 393.64 891.77 428.06 890.5 420.41 857.35 397.46 862.45"/><path class="cls-6" d="M387.4,884.1a6.88,6.88,0,0,1,4.23-5.71,7.68,7.68,0,0,1,7.11.64c6.37,3.82,27.22-4.3,31-3s7.2,5.58,16.12,6.85,19.15,4.36,21.7,6.91,5.08,13.49-7.67,14.76S417.86,902,414,903.25s-20.83,4-24.66-2.32C386.3,895.79,386.89,888.84,387.4,884.1Z"/><polygon class="cls-5" points="310.43 824.16 284.07 837.55 304.54 865.24 327.59 840.23 310.43 824.16"/><path class="cls-6" d="M286.88,828.06a6.91,6.91,0,0,1,7.1.27,7.74,7.74,0,0,1,3.49,6.23c.44,7.42,18.9,20.05,20,23.92s-.54,9.09,3.45,17.18,7.2,18.26,6.54,21.81-8.28,11.8-16.52,2-21.64-36.17-24.85-38.61S271,846,274.11,839.2C276.61,833.76,282.68,830.32,286.88,828.06Z"/><path class="cls-7" d="M376.82,677.13s-3.77,28.16-3.54,36.8.86,47.46-1.54,56.76-67.49,51.1-64.5,57.35,7.07,21.2,12.34,19.86S392.51,805,397.11,801s16.62-62.56,16.62-62.56l8.65-59.69Z"/><path class="cls-8" d="M374.5,640.08s-11.29,46.39-1.84,65.3,24.89,65.34,25.75,74.79-4.3,79.93,0,83.37,21.49,2.58,26.64,1.72,12.85-93.52,12-104.7S431.52,641,431.52,641Z"/><path class="cls-9" d="M390.87,507.67l-.09,0c-4.73-3.91-8.08-9.38-10.23-16.69-4.44-15,2.87-25,17.51-29.42,11-3.31,21.78-3.94,28.68,4.65,1.05,1.3,5.83,9.62,3.72,15.52s3.28,10.44,3.75,14.14c2,15.22-1.1,23.39-11.48,22.22-.2,4.72,2.32,17.78-2.61,19.27-3.38,1-16.46,3.22-20.78,4.51C398.05,542.22,395.63,510.18,390.87,507.67Z"/><rect class="cls-10" x="433.11" y="479.01" width="2.33" height="16.94" rx="1.08" transform="matrix(-0.99, 0.14, -0.14, -0.99, 934.32, 907.23)"/><rect class="cls-10" x="418.77" y="473.09" width="2.33" height="28.24" rx="1.08" transform="translate(841.46 1.39) rotate(81.71)"/><path class="cls-4" d="M369.24,480c-1.46-6.71,2.45-13.27,8.75-14.7a12.21,12.21,0,0,1,12.3-8.07,11.69,11.69,0,0,1,16.94-3.54,12.58,12.58,0,0,1,9.58-2.74c6.16.79,10.36,5.86,9.52,11.42l0,0c2.58,3.08,3.82,6.39,3.36,8.4a4.86,4.86,0,0,1-1.8,5.61l-.71.52a5.55,5.55,0,0,1-7.45-.71l-1.38-1.65a5.66,5.66,0,0,1-2.7,1.44l-.87.18a3.39,3.39,0,0,1-.44.08l1,4.43a5.15,5.15,0,0,1-4.16,5.94l-.87.19a5.53,5.53,0,0,1-2.43,0l3.08,4.84a2,2,0,0,1-.8,2.84,2.28,2.28,0,0,1-3-.66L401.82,488l-.12.07a2.3,2.3,0,0,0-1.17-.37,3.24,3.24,0,0,0-1.79.51,2.46,2.46,0,0,0-.71.69,2.62,2.62,0,0,0-.41,1.12,1.9,1.9,0,0,0,.56,1.5s.08.06.11.09a13.41,13.41,0,0,1,1.63,4.07,16,16,0,0,1-.65,4c-.56,2.39-1.63,3.7-3.93,5.26a19.54,19.54,0,0,1-6.92,2.68l-.59.1c-4.45-2.05-8.6-4.41-11.18-8.57a3.42,3.42,0,0,0-1.87-1.5,13.2,13.2,0,0,1-2.89-12.05A13.09,13.09,0,0,1,369.24,480Z"/><path class="cls-3" d="M379.25,541.2s6-11.17,20.63-6.87,22.11-2.6,31.68-1.3,39.66-9.87,45.67-9.87,6-3.44,7.74-6.88,13.75-65.58,18-67.3,18.9-.86,20.62.86-10.94,86.28-13.75,89.65c-4.3,5.15-55.86,26.64-57.58,29.22S438,604.21,442,652.08c1,12.26.76,35.8-13,32.36s-70,10.58-76,8c-6.37-2.73-5.73-38.44-2.11-49.82,6.11-19.18,13.65-64.55,15.47-70.47C369.8,561,371.52,550.66,379.25,541.2Z"/><path class="cls-4" d="M503.94,409.81s3-7.82,4.81-5.78c2.79,3.11-3.28,16.06-3.28,16.06l-5-2.58Z"/><path class="cls-3" d="M564.17,369.82a23,23,0,0,0-7.87-12.75h0c-3.59-3.1-5.17-4.48-6-6.44a37,37,0,0,1-1-6h0v-.07h0A23.15,23.15,0,0,0,508.41,332h0c-5.57,6.42-5.59,6.41-13.34,7.37H495a23.33,23.33,0,0,0-11.57,41h0c4.31,3.76,5.71,5,6.45,7.78.28,1.25.47,2.81.75,5h0v.07h0c.07.59.16,1.16.28,1.73a22.93,22.93,0,0,0,40.28,10.78h0c5.6-6.39,5.63-6.37,13.37-7.3h.09a22.91,22.91,0,0,0,19.52-28.57Z"/><path class="cls-2" d="M1016.93,633.61c-.08,1.83-.13,3.66-.13,5.5,0,61.12,45.07,110.66,100.66,110.66s100.65-49.54,100.65-110.66c0-1.84,0-3.67-.13-5.5Z"/><polygon class="cls-2" points="1088.03 716.02 1005.62 846.69 1234 843.16 1128.05 714.84 1088.03 716.02"/><path class="cls-11" d="M1073.07,538c.63-.18,1.26-.38,1.89-.58.15-.1.28-.19.39-.25l.69-.66h-1c-1.29-.07-2.58-.09-3.87-.09-2.65,0-5.3.16-7.94.42l-1.31.15h-.1c-1,.2-2.08.35-3.11.56-1.56.31-3.07.71-4.59,1.13.08.76.19,1.71.24,2.21q2.57,0,5.13-.21s3-.35,3-.33q2.75-.44,5.46-1C1069.71,538.91,1071.4,538.48,1073.07,538Z"/><path class="cls-12" d="M1080.35,588.8c-7.39,1.09-15.23,2.92-23.09,4,3.94,6.67,6.92,12.08,7.58,14.74,2,8-19,12-31,14s-10,10-3,12,35-1,41,1,23,1,23-3S1094,621,1086,610C1083.2,606.14,1082.09,597.5,1080.35,588.8Z"/><path class="cls-3" d="M565.63,861.5a21.34,21.34,0,0,0,9.4,6.16l10.56,3.7,5.22,1.82a32.9,32.9,0,0,0,4.82,1.53l1.81.36,1.74.77a5.5,5.5,0,0,0,1.18.41c1.19.28,2.38.53,3.59.75h11.76a21.81,21.81,0,0,0,4.84-1.76l4.54-3.09a21.34,21.34,0,0,0,6.16-9.4L638,842.37l1.92-5.79a23.82,23.82,0,0,0-1.26-16.4l-3.08-4.54a16,16,0,0,0-6.81-4.91,10.85,10.85,0,0,0-5.43-1.78,16.09,16.09,0,0,0-8.38-.06l-5.18,1.85a21.42,21.42,0,0,0-8.2,7.29q-3,5.65-6,11.3l-2.51-.88-4.69-1.64a20.74,20.74,0,0,0-22.77,6.45,16.23,16.23,0,0,0-4.34,7.3q-.51,2.84-1,5.66a21.6,21.6,0,0,0,2.3,10.74Z"/><path class="cls-13" d="M594.52,690.41s10.38,17.09,2.28,25.35c-9,9.23,2.27,20.15-14.94,28.58-11.81,5.79-9.46-2.16-13.2.13s-13.27,20.37-13.27,20.37l-25.8-20.06s11.06-23.45,11-25.71,16.25-31,22.27-31.84S593.69,682.89,594.52,690.41Z"/><path class="cls-13" d="M433.58,917.37H420.42s-1.88-8.46-7.52-7.52-25.38,17.86-30.08,19.74-21.62,4.7-19.74,9.4,49.82-.94,53.58-.94H443Z"/><path class="cls-2" d="M379.06,926.77s3.76,18.8,3.76,19.74,16-1.88,16-1.88l-4.7-25.38Z"/><path class="cls-2" d="M359.21,936.37h0a2.53,2.53,0,0,0,3.54,1.29L414,910.35a2.54,2.54,0,0,0,.78-3.82l-.52-.65a2.54,2.54,0,0,0-3.2-.64l-50.69,28A2.53,2.53,0,0,0,359.21,936.37Z"/><path class="cls-14" d="M552.43,916.86H490.88c2.54,1.29,3.65,2.08,2.44,2.08-5.64,0-69.56-.94-70.5-.94s-2.82,31,0,31S546,950.9,553.47,942.44c5.12-5.76,5.88-17.16,4.07-26.54A14.61,14.61,0,0,1,552.43,916.86Z"/><path class="cls-13" d="M440.58,946.37H427.42s-1.88-8.46-7.52-7.52-25.38,17.86-30.08,19.74-21.62,4.7-19.74,9.4,49.82-.94,53.58-.94H450Z"/><path class="cls-2" d="M386.06,955.77s3.76,18.8,3.76,19.74,16-1.88,16-1.88l-4.7-25.38Z"/><path class="cls-2" d="M366.21,965.37h0a2.53,2.53,0,0,0,3.54,1.29L421,939.35a2.54,2.54,0,0,0,.78-3.82l-.52-.65a2.54,2.54,0,0,0-3.2-.64l-50.69,28A2.53,2.53,0,0,0,366.21,965.37Z"/><path class="cls-15" d="M544,743.34c-19.44,2.13-42.29,9.4-63.91,45.11s-31,58.28-32.9,62,58.28,27.26,61.1,24.44,15-35.72,24.44-40.42,35.71-41.36,34.77-55.46S561.73,741.39,544,743.34Z"/><path class="cls-6" d="M596.66,689.84s-14.69-15.23-30-12.52c-28.38,5-34.22,42.56-35.89,50.91s-15-7.51-22.53-2.51-4.17,10-.83,13.36-20.86,9.18-14.19,19.19,15.86,4.17,16.69,10.85S514,783.3,521.55,780s12.52-30.05,20-36.72,18.36-6.68,20.86-14.19-1.66-27.54,4.18-27.54,6.67,17.53,10,15,14.19-17.52,16.69-19.19S600.83,693.18,596.66,689.84Z"/><polygon class="cls-14" points="792.33 563.97 811.1 586.12 801.34 598.88 792.33 563.97"/><polygon class="cls-4" points="815 596 859.53 635.39 840 640 804 609 815 596"/><path class="cls-4" d="M786,458s12.87,2.47,14.81,12.9,2,15,4.53,18.57c5.11,7.15,5.54,21.09-1.37,24.54s-15.76.48-17.41,10.79c-2.5,15.57-19,2.45-19,2.45A132.15,132.15,0,0,1,766,512.48c-.5-8.54-5.5-23.8-.79-33.31S770.39,460.93,786,458Z"/><path class="cls-16" d="M940.76,723.44s12.52,35.88,15,36.71-20,6.68-20,6.68l-10-.84s4.17-8.34,3.34-10.84S917.4,732.62,916.56,731,940.76,723.44,940.76,723.44Z"/><path class="cls-16" d="M898.86,752.69s-10.93,36.4-9.39,38.54-20.13-6.35-20.13-6.35l-7.62-6.55s8.28-4.31,9.07-6.83,3.77-25.09,4.07-26.93S898.86,752.69,898.86,752.69Z"/><path class="cls-17" d="M905.11,765.33a5.4,5.4,0,0,1-6,5c-12-1.3-39.18-4.56-40.8-5.37s8.14-67,10.84-84.8a5.41,5.41,0,0,1,5.09-4.58l30.78-1.43a5.4,5.4,0,0,1,5.64,5.75Z"/><path class="cls-2" d="M758.86,641.67s-9.18-20-10.85-25-7.51-17.52-10-29.2,3.19-36.85,8.2-43.53,14.6-18.3,16.27-22.47,28.52,5,26.85,6.71-2.93,19.24-2.93,21.74S801,572.48,801,582.5s-.46,20.78-.46,29.13A132.79,132.79,0,0,1,798.91,630Z"/><path class="cls-12" d="M951.85,729.59S911,746.28,909.29,741.27,895.1,677,895.1,677s-87.64,29.31-95.12,30c-14.17,1.37-37.6-4.46-42.61-22s-2.45-24.75-2.45-32.26-5.84-20-5.84-20,53.4-13.35,53.4-10.84.84,15.85,2.51,16.69,96-10.08,105.13-4.18C920.89,641.4,951.85,729.59,951.85,729.59Z"/><path class="cls-4" d="M850,549.86s7.11-1.6,6.51.72c-.92,3.53-13.24,5.32-13.24,5.32l-.5-4.83Z"/><path class="cls-4" d="M817.77,587.4c2.31,3.49,4.46,4.45,8.75,1.18S838,576.2,839.75,574.47c3.28-3.2,9.28-7.67,9.72-14.6s-.05-11.16,3.33-13.56c2.24-1.59,5-2.95,6.75-4.8.72-.76,1.72-2.79.37-3.68a1.49,1.49,0,0,0-1.35,0l-4.44,2.3a8.67,8.67,0,0,0,3.64-3.64,5.88,5.88,0,0,0,.58-2.18,2.11,2.11,0,0,0-3.49-1.76c-5.09,4.37-15,13.17-16.72,16.64-2.31,4.71-5.48,10.06-13,21.43C819.94,578.4,814.68,582.72,817.77,587.4Z"/><path class="cls-4" d="M765.7,586.73s18.71,21.61,21.38,20.7,33.46-31.11,35.75-34,10.37,3.31,11.45,4.72-20.25,32.26-24.84,38-14.15,15.26-18.6,15.3-14.12-3.82-18.24-6.28-26.92-22.08-26.92-22.08Z"/><path class="cls-2" d="M762.33,562.94s-17.13-8-22.36-1.2,6.15,45.55,9.14,52.43,32-12.1,32-12.1Z"/><circle class="cls-18" cx="775.09" cy="515.94" r="10.61"/><path class="cls-2" d="M855.16,779.09A6.89,6.89,0,0,1,861,775a7.72,7.72,0,0,1,6.57,2.83c4.87,5.64,26.67.71,29.91,3.12s5.7,11.29,13.79,15.3,19.42,6.39,21,9.62-2,18.18-14.49,15.4-39.24-15.6-43.28-15.59-23.84-1.12-25.49-8.39C847.71,791.42,853.19,783.45,855.16,779.09Z"/><path class="cls-18" d="M850.66,788.11c-1.34,3.12-2.26,6.38-1.63,9.16,1.65,7.27,21.45,8.41,25.49,8.39s30.75,12.81,43.28,15.59c6.94,1.54,11.13-2.36,13.22-6.69Z"/><path class="cls-11" d="M1055.72,377.93s-4.73,11.21,4.47,19.89,5.16,16.59,15.72,21.31,8.62-1.92,11.91.1,7.82,15.95,7.82,15.95l22.65-17.69s-9.77-20.6-9.75-22.59-14.35-27.26-19.64-28S1056.43,371.31,1055.72,377.93Z"/><path class="cls-9" d="M1049.79,374.57a32.57,32.57,0,0,0,20.48,4.8c11.92-1.23,10.53,7.36,15.17,6.74s3.38-8.58,6.68-7.89,7.82,15.29,13.78,16,2.16-21.83.88-27.8-9.82-13.32-20.42-12.74S1049.79,374.57,1049.79,374.57Z"/><path class="cls-9" d="M1061.06,379s-14,2.81-16.54-7.8,7.39-13.85,12-15.79,9.36-11.84,19.28-9.78,15.25-3.85,19.86-1.16,15.17,7.4,13.13,14.67-6.36,8.22-9.7,11.5S1061.06,379,1061.06,379Z"/><path class="cls-2" d="M920.14,762.59a6.9,6.9,0,0,1,4.5-5.52,7.73,7.73,0,0,1,7.08,1c6.21,4.12,25.88-6.47,29.65-5s8.52,9.35,17.39,11,20.42,1,22.85,3.62,3,18-9.82,18.73-42-4.51-45.88-3.41-23.27,5.31-26.8-1.25C916.27,776.47,919.41,767.31,920.14,762.59Z"/><path class="cls-18" d="M918.22,772.49c-.45,3.37-.46,6.75.89,9.26,3.53,6.56,22.91,2.34,26.8,1.25s33.06,4.09,45.88,3.41c7.1-.38,10.09-5.26,10.94-10Z"/><path class="cls-19" d="M782.22,452.15a6.07,6.07,0,0,1,3.39.5c2.88,1.33,8.14,4.78,7.08,11.93-1.46,9.74-10.73,17.94-8.71,23s1.74,9.39-2.82,8.08-10.81-.15-11.28,3.18,8.78,12.39,3.3,17.73-30,6.67-31.8-2.72-4-39.17,3.33-45.94C751.78,461.38,769.57,453.89,782.22,452.15Z"/><path class="cls-6" d="M1117.34,411.06s20,0,32,29,21,61,26,66,0,9-20,9-36,14-43,7-3.68-12.12-8.34-25.06c-1.69-4.7-16-38-15-50S1103.34,407.06,1117.34,411.06Z"/><path class="cls-8" d="M1097.21,618.45a6.12,6.12,0,0,0-4-4.89,6.84,6.84,0,0,0-6.29.86c-5.5,3.66-23-5.75-26.3-4.46s-7.56,8.3-15.43,9.8-18.12.84-20.28,3.21-2.66,16,8.71,16.62,37.27-4,40.71-3,20.65,4.72,23.78-1.1C1100.65,630.77,1097.86,622.65,1097.21,618.45Z"/><path class="cls-20" d="M1098.92,627.24c.4,3,.4,6-.8,8.22-3.13,5.82-20.33,2.08-23.78,1.1s-29.33,3.63-40.71,3c-6.29-.34-9-4.67-9.7-8.87Z"/><path class="cls-12" d="M1191.62,620.44c.19-.47.38-.94.58-1.41,0,.05.74-1.85,1-2.5s.63-2.1.7-2.33a13.53,13.53,0,0,0,.66-5.6c-.06-3.88-1.39-8.36-3-13.51a13.31,13.31,0,0,1-.58-3.4c-1.36.89-2.79,1.89-4.31,3-3.8,2.89-12.42,4.18-21.08,6.11,1.25,7.36,3.25,15.16,4.52,23,6.58-4.08,11.93-7.17,14.57-7.89S1189.67,617.13,1191.62,620.44Z"/><path class="cls-8" d="M1188.87,586.43a6.16,6.16,0,0,0-3.59,5.2,6.86,6.86,0,0,0,2.58,5.8c5.06,4.27.9,23.65,3.07,26.51s10.08,4.94,13.72,12.08,5.86,17.16,8.74,18.57,16.12-1.91,13.53-13-14.25-34.66-14.28-38.24-1.23-21.14-7.7-22.53C1199.74,579.7,1192.72,584.64,1188.87,586.43Z"/><path class="cls-20" d="M1196.83,582.35c2.76-1.22,5.64-2.07,8.11-1.54,6.47,1.39,7.68,18.94,7.7,22.53s11.68,27.15,14.28,38.24c1.43,6.14-2,9.9-5.81,11.8Z"/><path class="cls-6" d="M1113,513s2.8,5.22-2.6,6.11S1045,515,1036,520c-5.6,3.11-12,7-9,22s14,56,15,60,51-2,47-10-20-33-14-33,46.4,3,60,3c14,0,35,0,41-16s.87-33.62-5.07-37.31S1113,513,1113,513Z"/><path class="cls-6" d="M1129.84,548.56S1112,617,1112,623s9,17,16,17,62-5,59-11c-2.24-4.47-7-37-7-40s-27.74,11.58-27.37,9.79S1162,582,1164,575s13.44-34.57,11.72-43.78S1129.84,548.56,1129.84,548.56Z"/><rect class="cls-6" x="1019.77" y="376.68" width="4" height="55" transform="translate(75.8 963.22) rotate(-52.16)"/><path class="cls-2" d="M998.56,381.09c3.92,3.05,6,6.93,4.65,8.68s-5.63.69-9.56-2.36a71.43,71.43,0,0,1-8-8,1.11,1.11,0,0,1,1-1.83C990.1,378,995.9,379,998.56,381.09Z"/><path class="cls-3" d="M994.42,385.35a25.49,25.49,0,0,1,2-5.48,40.18,40.18,0,0,0-9.77-2.33,1.11,1.11,0,0,0-1,1.83,71.43,71.43,0,0,0,8,8l.27.2C994.13,386.56,994.36,385.59,994.42,385.35Z"/><path class="cls-11" d="M1120.84,427.56C1118.6,425.51,1112,424,1105,429s-33,38-37,42-15-18-19-25-14.16-40.44-18.16-41.44S1020,398,1015,403s5.84,28.56,9.84,33.56,25,61,34,62,33-15,45-28S1131.11,436.92,1120.84,427.56Z"/><polygon class="cls-12" points="778.11 867.44 518.11 947.33 509.89 920.56 522.64 916.64 769.89 840.67 778.11 867.44"/><line class="cls-20" x1="526.35" y1="933.29" x2="521.36" y2="917.04"/><line class="cls-20" x1="584.66" y1="915.37" x2="579.67" y2="899.12"/><line class="cls-20" x1="540.18" y1="923.81" x2="536.65" y2="912.34"/><line class="cls-20" x1="555.47" y1="919.11" x2="551.95" y2="907.64"/><line class="cls-20" x1="569.81" y1="914.7" x2="566.28" y2="903.23"/><line class="cls-20" x1="584.66" y1="915.37" x2="579.67" y2="899.12"/><line class="cls-20" x1="642.97" y1="897.46" x2="637.98" y2="881.2"/><line class="cls-20" x1="598.49" y1="905.89" x2="594.96" y2="894.42"/><line class="cls-20" x1="613.78" y1="901.19" x2="610.26" y2="889.72"/><line class="cls-20" x1="628.12" y1="896.79" x2="624.59" y2="885.32"/><line class="cls-20" x1="642.97" y1="897.46" x2="637.98" y2="881.2"/><line class="cls-20" x1="701.28" y1="879.54" x2="696.29" y2="863.29"/><line class="cls-20" x1="656.8" y1="887.98" x2="653.27" y2="876.51"/><line class="cls-20" x1="672.09" y1="883.28" x2="668.56" y2="871.81"/><line class="cls-20" x1="686.43" y1="878.87" x2="682.9" y2="867.4"/><line class="cls-20" x1="701.28" y1="879.54" x2="696.29" y2="863.29"/><line class="cls-20" x1="759.59" y1="861.62" x2="754.59" y2="845.37"/><line class="cls-20" x1="715.1" y1="870.06" x2="711.58" y2="858.59"/><line class="cls-20" x1="730.4" y1="865.36" x2="726.87" y2="853.89"/><line class="cls-20" x1="744.74" y1="860.95" x2="741.21" y2="849.48"/><path class="cls-13" d="M646.43,906c-3.76-5.64-31-3.76-35.72-6.58s-37.6-36.66-40.42-40.42-1.88-17.86-2.82-26.32c-.53-4.8-1.67-22.29-2.55-36.54-4.11,3.42-8.27,6.78-12.19,10.43-1.07,1-2.17,2-3.25,3.1a68.25,68.25,0,0,1-6.86,8.92c-.13.14-.26.25-.38.37l-.07.12c3.71,19.24,11.56,52.33,15,57.78,4.7,7.52,44.18,32.9,47,36.66s18.8,1.88,24.44,1.88S650.19,911.59,646.43,906Z"/><path class="cls-15" d="M567.47,779.05l4.24,54.28a7.91,7.91,0,0,1-2.33,6.27c-4.6,4.54-14.18,13.88-19.86,18.66-2.7,2.27-6.52-3.48-6.52-4.26,0-3-6-39-6-39Z"/><path class="cls-2" d="M448.1,839.21s62,30.08,64.86,32-1.88,12.22,0,17.86,48.87,27.26,54.51,35.72,7.52,29.14,0,37.6-127.83,6.58-130.65,6.58-.94-31,0-31,64.86.94,70.5.94-38.54-16.92-44.18-21.62S418,893.73,448.1,839.21Z"/></svg>