<svg id="Layer_1" data-name="Layer 1" xmlns="http://www.w3.org/2000/svg" viewBox="0 0 1446 864"><defs><style>.cls-1{fill:#d3e8ef;}.cls-13,.cls-15,.cls-2{fill:none;}.cls-2{stroke:#06748d;stroke-width:4px;}.cls-13,.cls-2{stroke-miterlimit:10;}.cls-3{fill:#cea684;}.cls-4{fill:#f4bf4f;}.cls-5{fill:#fe8769;}.cls-6{fill:#fdf8f0;}.cls-7{fill:#06748d;}.cls-8{fill:#7c5133;}.cls-9{fill:#f2f1f0;}.cls-10{fill:#eab35c;}.cls-11{fill:#fff;}.cls-12{fill:#002938;}.cls-13{stroke:#f4bf4f;stroke-width:2px;}.cls-14{fill:#2d221b;}.cls-16{fill:#dbb593;}</style></defs><path class="cls-1" d="M1149.52,370c-125-62-348-62-456-11.35s-219,32.32-409-8.74C179,327.14,74,342.35,1.6,360.37V864H1445.7V351.71C1348.83,380,1220.8,405.41,1149.52,370Z"/><path class="cls-2" d="M265.83,400.5C260,391,247,387,236,388c-10,1-16,9-24.06,15.12-3.17-12.79,3.79-2.84,0,0-3.17-12.79-16.57-21.26-28.47-24.66a45.32,45.32,0,0,0-40.64,8.13c-5.76,4.55-10.77,10.74-12.44,18"/><path class="cls-2" d="M828.39,644.5c5.83-9.5,18.83-13.5,29.83-12.5,10,1,16,9,24.06,15.12,3.17-12.79-3.79-2.84,0,0,3.17-12.79,16.57-21.26,28.47-24.66a45.32,45.32,0,0,1,40.64,8.13c5.76,4.55,10.78,10.74,12.44,18"/><path class="cls-2" d="M130.05,649.74C122.68,651,116,654.92,112.89,662c-7.24-14.36-28.12-20.93-42.06-12.6-5.22,3.12-9,8.11-13.89,11.74-3.78-15.2-21.25-24.58-35.83-25.92"/><rect class="cls-3" x="485" y="449" width="22" height="239"/><path class="cls-2" d="M1020.72,450.45c-10.5-20.88-40.38-24.69-58.45-11.87a33.59,33.59,0,0,0-11.2,13.22c-6.53-7.44-13.48-16.27-23.32-19.31C914,432,896,430,888.89,445c-3.53-7,2-4.47,0,0C881,430,861,425,846.74,432.33"/><path class="cls-2" d="M1469.86,458.74c-5.78-7.08-14.08-9.13-22.8-10-7.28-.73-15.19-.3-21.6,3.59a22.48,22.48,0,0,0-8.57,9.67c-.77-1.53-3.22-5-3-6.88.12-1-.08-.76.72-.18,1.63,1.17,2.88,5.22,2.27,7.06-7.24-14.36-28.12-20.93-42.06-12.6-5.22,3.12-9,8.11-13.89,11.74-4.09-16.43-23.65-25.8-39.32-26.12a49.44,49.44,0,0,0-13.53,1.61"/><path class="cls-2" d="M1129.86,751.74c-6.39-7.83-17-9.94-26.58-10.28-10.77-.38-21.5,3.21-26.39,13.52-1.15-2.14-3.56-5-2.88-7.55a7.66,7.66,0,0,1,2.88,7.55c-7.57-15-29.55-21.38-43.54-11.64"/><path class="cls-4" d="M433.82,579.49H431c-.82.51-1.62,1-2.46,1.52-3.7,2.07-7.45,4.07-11.13,6.18-2.79,1.6-5.47,3.36-8.25,5s-5.76,3.33-8.74,4.81a5.44,5.44,0,0,1-5.39-.23c-3.55-2.14-7-4.51-10.61-6.49a89.14,89.14,0,0,0-10.63-5c-3.34-1.28-5.32-.12-6.87,3.32-1.27,2.84-1.37,5.92-1.6,9-.15,1.92-.15,3.85-.26,5.77-.09,1.66-.24,1.72-1.92,1.81s-3.52.29-5.27.47c-2.73.29-5.45.63-8.18.9-2,.2-4,.28-6,.49-3.27.35-6.53.7-9.79,1.16s-6.7,1.05-10,1.65A2.3,2.3,0,0,0,322,611.4a4,4,0,0,0,1.36,4.19q4.57,3.25,9.2,6.44c4.22,2.9,8.48,5.76,12.69,8.68,1,.73,2,1.61,3.11,2.54a13.32,13.32,0,0,0-1.38,1.24c-2,2.51-4,5.06-6,7.58-2.43,3.06-4.92,6.08-7.33,9.15q-4,5.07-7.85,10.21a22.61,22.61,0,0,0-2,3.07,2,2,0,0,0,.83,2.92c.89.41,1.81.75,2.72,1.09,3.87,1.44,7.75,2.85,11.61,4.32,4.08,1.55,8.13,3.15,12.19,4.74,1.25.5,2.49,1,3.55,1.46-.21,2-.42,3.74-.58,5.48-.32,3.38-.65,6.77-.92,10.15-.21,2.68-.18,5.38-.53,8-.25,1.94-.35,3.7,1.16,5.18h2.56c.06-.09.09-.23.17-.27,3.44-1.88,6.91-3.7,10.31-5.63s6.68-3.92,10-5.9c2.88-1.7,5.71-3.49,8.64-5.11,2.56-1.42,5.16-1.86,7.8,0a97.37,97.37,0,0,0,18.38,10.27,11,11,0,0,0,4.72,1.06c2.52-.14,3.79-2,4.54-4.31a37.34,37.34,0,0,0,1.34-9c.15-1.87.14-3.76.28-5.63,0-.39.43-1,.72-1.07,2.28-.32,4.57-.54,6.86-.75,1.9-.18,3.82-.27,5.72-.47,2.66-.27,5.31-.64,8-.92,2-.2,4-.25,5.95-.49q5.12-.61,10.22-1.4c1.34-.2,2.66-.55,4-.88s1.57-1.49,2-2.53v-.46a13.14,13.14,0,0,0-1.95-2.83,52.55,52.55,0,0,0-4.78-3.43c-5.09-3.49-10.21-7-15.29-10.46-1.53-1-3-2.21-4.5-3.36.28-.45.44-.8.67-1.09,2-2.5,4.11-5,6.11-7.5q5.87-7.43,11.68-14.9c1.81-2.33,3.65-4.64,5.4-7,1.47-2,1-3.38-1.34-4.25-3.95-1.49-7.89-3-11.83-4.49q-8.32-3.19-16.63-6.47a1.33,1.33,0,0,1-.65-1c.24-2.64.59-5.27.86-7.91.13-1.19.16-2.38.26-3.56q.45-5.83.91-11.67a4,4,0,0,1,.05-1A3.46,3.46,0,0,0,433.82,579.49Z"/><path class="cls-5" d="M887.24,865.94H998.65a30.81,30.81,0,0,0-7-13h0c-4.16-4.85-6-7-6.74-9.78a50,50,0,0,1-.11-8.18h0v-.1h0a31.19,31.19,0,0,0-51.93-25h0c-8.7,7.43-8.73,7.41-19.24,7.15h-.12a31.45,31.45,0,0,0-26.26,48.93Z"/><path class="cls-4" d="M487,448.62S619.51,510.36,487,608c0,0,146.15-16.75,203.32-67,0,0,61.06-53.61-9.1-101C681.22,440,567.55,452,487,448.62Z"/><path class="cls-5" d="M480.21,675.59l27.66,8.53a20,20,0,0,0,25.38-23.55l-6.44-28.22-6.44-28.21a20,20,0,0,0-33.08-10.21l-21.22,19.69L444.85,633.3a20,20,0,0,0,7.71,33.76Z"/><path class="cls-6" d="M1348.62,736.78l22,6.77a15.87,15.87,0,0,0,20.16-18.7l-5.12-22.41L1380.51,680a15.88,15.88,0,0,0-26.28-8.11l-16.85,15.64-16.85,15.64a15.87,15.87,0,0,0,6.12,26.8Z"/><path class="cls-7" d="M1102.08,579.46a25.15,25.15,0,0,0,11.05,7.24l12.42,4.35,6.13,2.14a40.45,40.45,0,0,0,5.66,1.8l2.13.42c.89.4,1.64.72,2,.91a7,7,0,0,0,1.4.48c1.39.32,2.8.63,4.21.88H1161a25.77,25.77,0,0,0,5.69-2.07L1172,592a25.15,25.15,0,0,0,7.24-11.05l8-24q1.13-3.39,2.26-6.8a28.22,28.22,0,0,0-1.48-19.28l-3.63-5.34a18.82,18.82,0,0,0-8-5.77,12.76,12.76,0,0,0-6.38-2.09,18.84,18.84,0,0,0-9.86-.07l-6.09,2.17a25.27,25.27,0,0,0-9.64,8.57l-7.07,13.28-3-1-5.51-1.93a19.08,19.08,0,0,0-9.93-.95,22.65,22.65,0,0,0-16.84,8.54,19.08,19.08,0,0,0-5.1,8.57l-1.23,6.67a25.28,25.28,0,0,0,2.71,12.61Z"/><path class="cls-4" d="M988.53,369.2c5.82-1,11.59-2.24,17.34-3.58,14-3.25,27.88-7.08,42.07-9.36,2-.33,4.1-.65,6.15-.94A40,40,0,1,0,975,346.83a39.79,39.79,0,0,0,7.11,22.75C984.25,369.52,986.4,369.39,988.53,369.2Z"/><ellipse class="cls-7" cx="467.5" cy="558.5" rx="41.5" ry="39.5"/><path class="cls-8" d="M695.37,527a50,50,0,0,1,0-7s13-1.21,15.55-.93.53,9.81-.31,11.48-3.18,10.19-4.2,16.16c-.76,4.4-7.52,29.85-10.31,31.5s-18.94-.31-25.34-2.81A148,148,0,0,1,657.11,569l5.45-15.59s10.24,5,16.41,7c7,2.35,9.06,1.88,9.06,1.88s7.68-17,8.52-20.63S696,530,695.37,527Z"/><polygon class="cls-9" points="643.22 544.01 668.42 553.39 658.46 574.49 637.95 560.42 643.22 544.01"/><path class="cls-10" d="M625.14,629.47s-1.19,26.74-1.85,31.75,5.47,48.46,4.36,56.82-4.41,58.37-4.41,58.37-6.73,6.24-11.74,5.13a17,17,0,0,1-8.36-5.13v-35l-3.9-96.92,4.46-41.22Z"/><path class="cls-11" d="M635.6,532.88c-7.39-3.85-21.09-1.17-31.7,10.81-4,4.57-11.66,17.32-14.59,30.21-6.5,28.59-4.69,31.06-5.86,36.92-.67,3.33,34.15,21.27,38.67,15.23,3.52-4.68,7-28.72,8.21-29.88,14.06-14.07,16.92-32.94,18.75-45.12"/><path class="cls-12" d="M689.7,514.48a5.83,5.83,0,0,0-1.12,5.72c1.12,3.47,141.76,2.72,141.76,2.72l.56-31.74Z"/><ellipse class="cls-4" cx="830.9" cy="506.81" rx="7.1" ry="16.12"/><path class="cls-8" d="M665.75,496.46s7.85,5.61,5.93,13.19-3.3,10.67-2.7,13.84c1.22,6.35-2.79,15.82-8.48,16s-10.7-4.55-15,1.85c-4.1,6.11-10,2.26-13.84-1.39a5,5,0,0,1-.18-7.1,19.13,19.13,0,0,0,4-6.15c2.29-5.87,3.65-17.62,9.74-22.53S654.38,493.58,665.75,496.46Z"/><circle class="cls-13" cx="640.55" cy="531.84" r="7.82"/><path class="cls-14" d="M665,491.35a4.46,4.46,0,0,1,2.11,1.38c1.52,1.78,4,5.71,1,10.16-4,6.08-12.71,8.7-12.91,12.69s-1.73,6.82-4.37,4.53-7.2-3.43-8.53-1.35,2,11-3.27,12.88-22.17-4.8-20.44-11.63,9.38-27.46,16.4-29.72C641.78,488.13,656,488.61,665,491.35Z"/><path class="cls-12" d="M669.09,518.07A5.84,5.84,0,0,0,668,523.8c1.12,3.46,141.76,2.72,141.76,2.72l.56-31.75Z"/><path class="cls-8" d="M696.55,509.44s-8-4.46-12.14-1.12-6.34,1.57-6.62,4.64,1.05,10.13-.07,14-4.61,7.66-4.61,7.66-15.91,18.53-17.58,19.92-4.75,5.25-5.86,4.69-13.06-6.06-15.19-6c-4.27.12-9.46,10-8.63,14.76s23.21,10.64,28.5,11.75S679.11,544,683,537.85s8.36-4.46,10-11.42S698.77,513.06,696.55,509.44Z"/><ellipse class="cls-4" cx="810.29" cy="510.4" rx="7.1" ry="16.12"/><path class="cls-4" d="M586.38,607.89c-6.52-1.63-12.89,12.3-14.65,21.68-2.4,12.79,4.67,27.48,5.51,29.42s7.16,39.55,7.16,39.55,2.87,13.09,2.87,18.94-7,41.5-8.08,48.46,19.22,11.42,19.22,10.3,21.16-52.63,20.88-59.32-1-59.91-1-64.37c0-3.2,3.57-13.55,6.75-23,1.25-3.68,1.76-11.13,1.76-13.48,0-2.11-3.34-3-11.13-3.51A215.61,215.61,0,0,1,586.38,607.89Z"/><path class="cls-3" d="M327.74,776.32a125,125,0,0,1,22.39-5.72c12-1.82,24.18-3.71,36.37-3.46,11.47.24,23,2.09,34.3,3.78,24.92,3.73,48.28,13.24,71.71,22.07,16.22,6.11,32.19,11,49,14a396.25,396.25,0,0,0,84.82-.8q13.51-2.12,26.87-5.12l27-111.59A19,19,0,0,0,661.8,666H325.2a19,19,0,0,0-18.5,23.51Z"/><path class="cls-15" d="M535.06,666H464.39c8.79,2.66,18.46,4.84,35.34,4.84S526.28,668.66,535.06,666Z"/><path class="cls-15" d="M621.78,746c-10.38-3.32-20.2-6.46-40.24-6.5s-29.85,3.18-40.24,6.5-20.93,6.7-41.87,6.7-31.59-3.41-41.88-6.7-20.3-6.49-40.54-6.51-30.1,3.17-40.54,6.51-20.93,6.7-41.87,6.7c-4.72,0-8.91-.18-12.69-.48L324.76,764c3,.18,6.25.28,9.84.28,20.32,0,30.2-3.16,40.65-6.51,10.26-3.28,20.86-6.67,41.65-6.7h.23c20.79,0,31.39,3.42,41.64,6.7,10.46,3.35,20.34,6.51,40.66,6.51s30.19-3.16,40.65-6.51c10.15-3.25,20.65-6.6,41-6.69H582c20.39.09,30.89,3.44,41,6.69s19.85,6.35,39.17,6.5L665,752.72h-1.32C642.71,752.73,632.07,749.32,621.78,746Z"/><path class="cls-15" d="M581.84,786.26c-20,0-29.85,3.18-40.24,6.51-8.42,2.69-17.08,5.46-31.44,6.38a250.14,250.14,0,0,0,25.59,6.75c1.46-.44,2.89-.9,4.33-1.36,10.15-3.25,20.65-6.61,41-6.7H582c20.39.09,30.89,3.45,41,6.69,1.56.5,3.1,1,4.66,1.47q12.87-2.06,25.59-4.9l.47-1.94c-14.47-.91-23.18-3.69-31.64-6.39C611.7,789.44,601.88,786.3,581.84,786.26Z"/><path class="cls-15" d="M581.54,770.68c-20,.05-29.85,3.18-40.24,6.51s-20.93,6.69-41.87,6.69-31.59-3.4-41.88-6.69c-10-3.21-19.54-6.25-38.23-6.49l1.48.22c24.92,3.73,48.28,13.24,71.71,22.07q3.39,1.28,6.76,2.47h.46c20.32,0,30.2-3.16,40.65-6.5,10.16-3.25,20.66-6.61,41-6.7h.83c20.39.09,30.89,3.45,41,6.7,8.73,2.79,17.05,5.45,31.38,6.25l2.77-11.43c-16.94-.6-26.45-3.64-35.67-6.59C611.4,773.86,601.58,770.73,581.54,770.68Z"/><path class="cls-15" d="M544.57,807.31a393.08,393.08,0,0,0,73.25-.22c-9.09-2.82-18.79-5.21-36.28-5.25C563.61,801.88,553.87,804.4,544.57,807.31Z"/><path class="cls-15" d="M581.54,755.1c-20,0-29.85,3.19-40.24,6.51s-20.93,6.7-41.87,6.7-31.59-3.41-41.88-6.7-20.3-6.5-40.54-6.51-30.1,3.17-40.54,6.51-20.93,6.7-41.87,6.7c-3.18,0-6.12-.08-8.85-.23l2,8.24a125,125,0,0,1,22.39-5.72c12-1.82,24.18-3.71,36.37-3.46,3.81.08,7.62.35,11.44.72a141.56,141.56,0,0,1,19-1.18h.23c20.79,0,31.39,3.42,41.64,6.7,10.46,3.34,20.34,6.5,40.66,6.5s30.19-3.16,40.65-6.5c10.15-3.25,20.65-6.61,41-6.69H582c20.39.08,30.89,3.44,41,6.69,9.52,3,18.55,5.93,35.41,6.43l2.79-11.52c-19.33-.26-29.54-3.52-39.42-6.68C611.4,758.29,601.58,755.15,581.54,755.1Z"/><path class="cls-15" d="M622.08,668.14c-2.29-.73-4.55-1.46-6.9-2.14H548.5c-2.35.68-4.61,1.41-6.9,2.14-10.29,3.29-20.93,6.7-41.87,6.7s-31.59-3.41-41.88-6.7c-2.29-.73-4.55-1.46-6.9-2.14H383.67c-2.35.68-4.61,1.41-6.9,2.14-10.29,3.29-20.93,6.7-41.87,6.7a130.87,130.87,0,0,1-24.31-2,19.07,19.07,0,0,0-4.37,10.64c7.2,1.72,15.78,2.94,28.38,2.94,20.32,0,30.2-3.17,40.65-6.51,10.26-3.28,20.86-6.67,41.65-6.7h.23c20.79,0,31.39,3.42,41.64,6.7,10.46,3.34,20.34,6.51,40.66,6.51s30.19-3.17,40.65-6.51c10.15-3.25,20.65-6.61,41-6.69H582c20.39.08,30.89,3.44,41,6.69,10.46,3.34,20.34,6.51,40.66,6.51a141.42,141.42,0,0,0,17.17-.94,18.86,18.86,0,0,0-3.32-11.19c-4,.35-8.48.55-13.55.55C643,674.84,632.37,671.43,622.08,668.14Z"/><path class="cls-15" d="M628.62,666c8.79,2.66,18.46,4.84,35.34,4.84,3.72,0,7.08-.11,10.17-.3A18.86,18.86,0,0,0,661.8,666Z"/><path class="cls-15" d="M621.78,683.72c-10.38-3.33-20.2-6.46-40.24-6.51s-29.85,3.19-40.24,6.51-20.93,6.7-41.87,6.7-31.59-3.41-41.88-6.7-20.3-6.5-40.54-6.51-30.1,3.17-40.54,6.51-20.93,6.7-41.87,6.7a124.1,124.1,0,0,1-28.26-2.82c.09.64.21,1.28.36,1.91l2.47,10.21A123.42,123.42,0,0,0,334.6,702c20.32,0,30.2-3.16,40.65-6.5,10.26-3.28,20.86-6.67,41.65-6.7h.23c20.79,0,31.39,3.42,41.64,6.7,10.46,3.34,20.34,6.5,40.66,6.5s30.19-3.16,40.65-6.5c10.15-3.25,20.65-6.61,41-6.7H582c20.39.09,30.89,3.45,41,6.7,10.46,3.34,20.34,6.5,40.66,6.5,5.21,0,9.73-.2,13.75-.57l2.88-11.86a149.87,149.87,0,0,1-16.63.86C642.71,690.42,632.07,687,621.78,683.72Z"/><path class="cls-15" d="M621.78,699.3c-10.38-3.33-20.2-6.47-40.24-6.51S551.69,696,541.3,699.3,520.37,706,499.43,706s-31.59-3.4-41.88-6.69-20.3-6.5-40.54-6.51-30.1,3.17-40.54,6.51S355.54,706,334.6,706a130.6,130.6,0,0,1-24.39-2l2.92,12a131.37,131.37,0,0,0,21.47,1.54c20.32,0,30.2-3.16,40.65-6.5,10.26-3.29,20.86-6.68,41.65-6.7h.23c20.79,0,31.39,3.41,41.64,6.7,10.46,3.34,20.34,6.5,40.66,6.5s30.19-3.16,40.65-6.5c10.15-3.25,20.65-6.61,41-6.7H582c20.39.09,30.89,3.45,41,6.69,10.46,3.35,20.34,6.51,40.66,6.51,3.61,0,6.89-.1,9.91-.28l2.85-11.78c-3.8.31-8,.48-12.76.48C642.71,706,632.07,702.59,621.78,699.3Z"/><path class="cls-15" d="M622.08,730.45c-10.38-3.32-20.2-6.46-40.24-6.5s-29.85,3.18-40.24,6.5-20.93,6.7-41.87,6.7-31.59-3.4-41.88-6.7-20.3-6.49-40.54-6.5-30.1,3.16-40.54,6.5c-10.29,3.3-20.93,6.7-41.87,6.7a148.57,148.57,0,0,1-16.87-.88l2.89,11.89c4,.36,8.5.57,13.68.57,20.32,0,30.2-3.16,40.65-6.51,10.26-3.28,20.86-6.67,41.65-6.7h.23c20.79,0,31.39,3.42,41.64,6.7,10.46,3.35,20.34,6.51,40.66,6.51s30.19-3.16,40.65-6.51c10.15-3.25,20.65-6.6,41-6.69H582c20.39.09,30.89,3.44,41,6.69,10.46,3.35,20.34,6.51,40.66,6.51l2.29,0,2.82-11.63c-1.55,0-3.14.07-4.81.07C643,737.15,632.37,733.75,622.08,730.45Z"/><path class="cls-15" d="M370.23,666h-45a18.83,18.83,0,0,0-10.9,3.43,133.15,133.15,0,0,0,20.6,1.41C351.78,670.84,361.45,668.66,370.23,666Z"/><path class="cls-15" d="M621.78,714.87c-10.38-3.32-20.2-6.46-40.24-6.5s-29.85,3.18-40.24,6.51-20.93,6.69-41.87,6.69-31.59-3.4-41.88-6.69-20.3-6.5-40.54-6.51-30.1,3.16-40.54,6.51-20.93,6.69-41.87,6.69a139.62,139.62,0,0,1-20.46-1.35L317,732.13a140.21,140.21,0,0,0,17.87,1c20.32,0,30.2-3.16,40.65-6.51,10.26-3.28,20.86-6.67,41.65-6.69h.23c20.79,0,31.39,3.41,41.64,6.69,10.46,3.35,20.34,6.51,40.66,6.51s30.2-3.16,40.65-6.51c10.16-3.25,20.66-6.6,41-6.69h.83c20.39.09,30.89,3.44,41,6.69,10.46,3.35,20.34,6.51,40.66,6.51,2,0,3.95,0,5.78-.09l2.84-11.72c-2.76.15-5.72.23-8.92.23C642.71,721.57,632.07,718.17,621.78,714.87Z"/><path class="cls-16" d="M376.77,668.14c2.29-.73,4.55-1.46,6.9-2.14H370.23c-8.78,2.66-18.45,4.84-35.33,4.84a133.15,133.15,0,0,1-20.6-1.41,19.09,19.09,0,0,0-3.71,3.41,130.87,130.87,0,0,0,24.31,2C355.84,674.84,366.48,671.43,376.77,668.14Z"/><path class="cls-16" d="M499.73,674.84c20.94,0,31.58-3.41,41.87-6.7,2.29-.73,4.55-1.46,6.9-2.14H535.06c-8.78,2.66-18.46,4.84-35.33,4.84s-26.55-2.18-35.34-4.84H451c2.35.68,4.61,1.41,6.9,2.14C468.14,671.43,478.78,674.84,499.73,674.84Z"/><path class="cls-16" d="M628.62,666H615.18c2.35.68,4.61,1.41,6.9,2.14,10.29,3.29,20.93,6.7,41.88,6.7,5.07,0,9.54-.2,13.55-.55a19.13,19.13,0,0,0-3.38-3.75c-3.09.19-6.45.3-10.17.3C647.08,670.84,637.41,668.66,628.62,666Z"/><path class="cls-16" d="M417.13,673.21h0Z"/><path class="cls-16" d="M376.47,683.72c10.44-3.34,20.3-6.5,40.54-6.51h-.11v-4c-20.79,0-31.39,3.42-41.65,6.7-10.45,3.34-20.33,6.51-40.65,6.51-12.6,0-21.18-1.22-28.38-2.94a19.67,19.67,0,0,0,.12,4.12,124.1,124.1,0,0,0,28.26,2.82C355.54,690.42,366.18,687,376.47,683.72Z"/><path class="cls-16" d="M582,673.21h0Z"/><path class="cls-16" d="M417,677.21c20.24,0,30.11,3.17,40.54,6.51s20.93,6.7,41.88,6.7S531,687,541.3,683.72s20.21-6.46,40.24-6.51h-.41v-4c-20.4.08-30.9,3.44-41,6.69-10.46,3.34-20.33,6.51-40.65,6.51s-30.2-3.17-40.66-6.51c-10.25-3.28-20.85-6.67-41.64-6.7h-.23v4Z"/><path class="cls-16" d="M623,679.91c-10.15-3.25-20.65-6.61-41-6.69h-.83v4h.41c20,0,29.86,3.18,40.24,6.51s20.93,6.7,41.88,6.7a149.87,149.87,0,0,0,16.63-.86v0a18.73,18.73,0,0,0,.53-4,141.42,141.42,0,0,1-17.17.94C643.34,686.42,633.46,683.25,623,679.91Z"/><path class="cls-16" d="M417.13,688.79h0Z"/><path class="cls-16" d="M376.47,699.3c10.44-3.34,20.3-6.5,40.54-6.51h-.11v-4c-20.79,0-31.39,3.42-41.65,6.7-10.45,3.34-20.33,6.5-40.65,6.5a123.42,123.42,0,0,1-25.43-2.27l1,4.26a130.6,130.6,0,0,0,24.39,2C355.54,706,366.18,702.59,376.47,699.3Z"/><path class="cls-16" d="M582,688.79h0Z"/><path class="cls-16" d="M417,692.79c20.24,0,30.11,3.17,40.54,6.51S478.48,706,499.43,706s31.58-3.4,41.87-6.69,20.21-6.47,40.24-6.51h-.41v-4c-20.4.09-30.9,3.45-41,6.7-10.46,3.34-20.33,6.5-40.65,6.5s-30.2-3.16-40.66-6.5c-10.25-3.28-20.85-6.67-41.64-6.7h-.23v4Z"/><path class="cls-16" d="M623,695.49c-10.15-3.25-20.65-6.61-41-6.7h-.83v4h.41c20,0,29.86,3.18,40.24,6.51S642.71,706,663.66,706c4.74,0,9-.17,12.76-.48l1-4.09c-4,.37-8.54.57-13.75.57C643.34,702,633.46,698.83,623,695.49Z"/><path class="cls-16" d="M417.13,704.37h0Z"/><path class="cls-16" d="M376.47,714.88c10.44-3.35,20.3-6.5,40.54-6.51h-.11v-4c-20.79,0-31.39,3.41-41.65,6.7-10.45,3.34-20.33,6.5-40.65,6.5A131.37,131.37,0,0,1,313.13,716l1,4.19a139.62,139.62,0,0,0,20.46,1.35C355.54,721.57,366.18,718.17,376.47,714.88Z"/><path class="cls-16" d="M582,704.37h0Z"/><path class="cls-16" d="M417,708.37c20.24,0,30.11,3.16,40.54,6.51s20.93,6.69,41.88,6.69,31.58-3.4,41.87-6.69,20.21-6.47,40.24-6.51h-.41v-4c-20.4.09-30.9,3.45-41,6.7-10.46,3.34-20.33,6.5-40.65,6.5s-30.2-3.16-40.66-6.5c-10.25-3.29-20.85-6.68-41.64-6.7h-.23v4Z"/><path class="cls-16" d="M623,711.06c-10.15-3.24-20.65-6.6-41-6.69h-.83v4h.41c20,0,29.86,3.18,40.24,6.5s20.93,6.7,41.88,6.7c3.2,0,6.16-.08,8.92-.23l1-4.05c-3,.18-6.3.28-9.91.28C643.34,717.57,633.46,714.41,623,711.06Z"/><path class="cls-16" d="M417.43,720h0Z"/><path class="cls-16" d="M376.77,730.45c10.44-3.34,20.3-6.49,40.54-6.5h-.11v-4c-20.79,0-31.39,3.41-41.65,6.69-10.45,3.35-20.33,6.51-40.65,6.51a140.21,140.21,0,0,1-17.87-1l1,4.14a148.57,148.57,0,0,0,16.87.88C355.84,737.15,366.48,733.75,376.77,730.45Z"/><path class="cls-16" d="M582.26,720h0Z"/><path class="cls-16" d="M417.31,724c20.24,0,30.11,3.16,40.54,6.5s20.93,6.7,41.88,6.7,31.58-3.4,41.87-6.7,20.21-6.46,40.24-6.5h-.41v-4c-20.39.09-30.89,3.44-41,6.69-10.45,3.35-20.33,6.51-40.65,6.51s-30.2-3.16-40.66-6.51c-10.25-3.28-20.85-6.67-41.64-6.69h-.23v4Z"/><path class="cls-16" d="M623.3,726.64c-10.15-3.25-20.65-6.6-41-6.69h-.83v4h.41c20,0,29.86,3.18,40.24,6.5s20.93,6.7,41.88,6.7c1.67,0,3.26,0,4.81-.07l1-4c-1.83.06-3.75.09-5.78.09C643.64,733.15,633.76,730,623.3,726.64Z"/><path class="cls-16" d="M417.13,735.52h0Z"/><path class="cls-16" d="M376.47,746c10.44-3.34,20.3-6.49,40.54-6.51h-.11v-4c-20.79,0-31.39,3.42-41.65,6.7-10.45,3.35-20.33,6.51-40.65,6.51-5.18,0-9.68-.21-13.68-.57l1,4.09c3.78.3,8,.48,12.69.48C355.54,752.73,366.18,749.32,376.47,746Z"/><path class="cls-16" d="M582,735.52h0Z"/><path class="cls-16" d="M417,739.52c20.24,0,30.11,3.17,40.54,6.51s20.93,6.7,41.88,6.7S531,749.32,541.3,746s20.21-6.46,40.24-6.5h-.41v-4c-20.4.09-30.9,3.44-41,6.69-10.46,3.35-20.33,6.51-40.65,6.51s-30.2-3.16-40.66-6.51c-10.25-3.28-20.85-6.67-41.64-6.7h-.23v4Z"/><path class="cls-16" d="M623,742.22c-10.15-3.25-20.65-6.6-41-6.69h-.83v4h.41c20,0,29.86,3.18,40.24,6.5s20.93,6.7,41.88,6.7H665l1-4-2.29,0C643.34,748.73,633.46,745.57,623,742.22Z"/><path class="cls-16" d="M417.13,751.1h0Z"/><path class="cls-16" d="M376.47,761.61c10.44-3.34,20.3-6.5,40.54-6.51h-.11v-4c-20.79,0-31.39,3.42-41.65,6.7-10.45,3.35-20.33,6.51-40.65,6.51-3.59,0-6.84-.1-9.84-.28l1,4.05c2.73.15,5.67.23,8.85.23C355.54,768.31,366.18,764.9,376.47,761.61Z"/><path class="cls-16" d="M582,751.1h0Z"/><path class="cls-16" d="M417,755.1c20.24,0,30.11,3.17,40.54,6.51s20.93,6.7,41.88,6.7,31.58-3.41,41.87-6.7,20.21-6.46,40.24-6.51h-.41v-4c-20.4.09-30.9,3.44-41,6.69-10.46,3.35-20.33,6.51-40.65,6.51s-30.2-3.16-40.66-6.51c-10.25-3.28-20.85-6.67-41.64-6.7h-.23v4Z"/><path class="cls-16" d="M582,751.11h-.83v4h.41c20,0,29.86,3.19,40.24,6.51,9.88,3.16,20.09,6.42,39.42,6.68l1-4c-19.32-.15-29-3.24-39.17-6.5S602.35,751.2,582,751.11Z"/><path class="cls-16" d="M397.94,767.86c6.35.61,12.69,1.53,19,2.47v-3.65A141.56,141.56,0,0,0,397.94,767.86Z"/><path class="cls-16" d="M417.13,766.68h0Z"/><path class="cls-16" d="M499.43,783.88c20.94,0,31.58-3.4,41.87-6.69s20.21-6.46,40.24-6.51h-.41v-4c-20.4.08-30.9,3.44-41,6.69-10.46,3.34-20.33,6.5-40.65,6.5s-30.2-3.16-40.66-6.5c-10.25-3.28-20.85-6.67-41.64-6.7h-.23v3.65l2.42.37c18.69.24,28.2,3.28,38.23,6.49C467.84,780.48,478.48,783.88,499.43,783.88Z"/><path class="cls-16" d="M582,766.68h0Z"/><path class="cls-16" d="M582,766.69h-.83v4h.41c20,.05,29.86,3.18,40.24,6.51,9.22,2.95,18.73,6,35.67,6.59l1-4c-16.86-.5-25.89-3.39-35.41-6.43C612.85,770.13,602.35,766.77,582,766.69Z"/><path class="cls-16" d="M582.26,782.26h0Z"/><path class="cls-16" d="M581.84,786.26h-.41v-4c-20.39.09-30.89,3.45-41,6.7-10.45,3.34-20.33,6.5-40.65,6.5h-.46q5.44,1.95,10.89,3.69c14.36-.92,23-3.69,31.44-6.38C552,789.44,561.81,786.3,581.84,786.26Z"/><path class="cls-16" d="M582.26,782.26h-.83v4h.41c20,0,29.86,3.18,40.24,6.51,8.46,2.7,17.17,5.48,31.64,6.39l1-3.95c-14.33-.8-22.65-3.46-31.38-6.25C613.15,785.71,602.65,782.35,582.26,782.26Z"/><path class="cls-16" d="M581.13,801.84v-4c-20.4.09-30.9,3.45-41,6.7-1.44.46-2.87.92-4.33,1.36,1.93.4,3.86.77,5.81,1.12l3,.29c9.3-2.91,19-5.43,37-5.47Z"/><path class="cls-16" d="M582,797.84h0Z"/><path class="cls-16" d="M582,797.84h-.83v4h.41c17.49,0,27.19,2.43,36.28,5.25,2.86-.27,5.71-.55,8.56-.87l1.28-.22c-1.56-.48-3.1-1-4.66-1.47C612.85,801.29,602.35,797.93,582,797.84Z"/></svg>